<?xml version="1.0" encoding="UTF-8" standalone="no"?>
<!DOCTYPE svg PUBLIC "-//W3C//DTD SVG 1.1//EN" "http://www.w3.org/Graphics/SVG/1.1/DTD/svg11.dtd">
<svg width="100%" height="100%" viewBox="0 0 800 800" version="1.1" xmlns="http://www.w3.org/2000/svg" xmlns:xlink="http://www.w3.org/1999/xlink" xml:space="preserve" xmlns:serif="http://www.serif.com/" style="fill-rule:evenodd;clip-rule:evenodd;stroke-linejoin:round;stroke-miterlimit:2;">
    <g transform="matrix(3.125,0,0,3.125,0,0)">
        <path d="M219.941,1.096L34.963,1.096C16.237,1.096 1.096,16.237 1.096,34.963L1.096,219.941C1.096,238.668 16.336,253.908 35.063,253.908L220.04,253.908C238.767,253.908 254.008,238.668 254.008,219.941L254.008,34.963C253.908,16.237 238.767,1.096 219.941,1.096Z" style="fill:rgb(211,211,211);fill-rule:nonzero;"/>
        <path d="M207.689,154.995C189.36,133.18 161.27,179.2 146.129,189.061C135.67,195.935 119.732,196.433 108.576,189.958C93.335,180.993 98.017,159.477 114.054,154.198C128.398,149.416 153.5,164.557 162.565,149.416C173.821,130.789 135.471,126.406 124.115,126.904C103.695,127.701 83.972,134.375 71.919,149.815C58.87,166.45 61.858,186.571 76.202,201.712C90.845,215.857 112.062,221.335 133.279,219.642C138.658,219.244 147.823,216.953 154.795,213.068C168.741,205.398 211.374,159.377 207.689,154.995ZM73.911,138.758C80.984,140.153 67.237,100.607 66.341,95.128C65.245,88.554 62.854,79.29 56.28,78.294C48.71,77.198 46.618,85.865 48.112,93.435C49.905,101.205 67.337,137.363 73.911,138.758ZM132.582,118.238C143.539,119.832 142.842,67.138 142.842,59.966C142.842,53.491 145.332,35.661 136.666,34.067C124.713,31.776 123.518,47.514 123.318,55.882C123.717,64.349 121.127,116.644 132.582,118.238ZM158.68,126.705C170.633,131.686 179.798,78.493 181.192,71.72C182.487,64.747 182.786,50.005 170.833,54.686C164.856,57.077 163.76,66.739 162.864,72.118C161.37,78.792 149.416,122.82 158.68,126.705ZM101.005,122.223C114.553,123.219 101.802,69.728 100.707,62.556C99.611,55.284 94.73,40.741 84.669,49.208C79.589,53.491 81.88,63.353 82.876,68.931C83.773,76.103 90.646,121.426 101.005,122.223Z" style="fill:rgb(33,33,33);fill-rule:nonzero;"/>
    </g>
</svg>
