<svg width="10" height="13" viewBox="0 0 10 13" fill="none" xmlns="http://www.w3.org/2000/svg">
<g clip-path="url(#clip0_7_175)">
<path d="M7.07864 2.72785C6.15244 1.84189 5.27379 0.979229 5.0125 0C4.75122 0.979229 3.87257 1.84208 2.94637 2.72804C1.56898 4.08036 0.00167796 5.61914 0.00167796 7.9274C-0.0695988 10.632 2.13899 12.8937 4.89377 12.9404C7.64856 12.9871 9.95215 10.842 9.9997 8.13734V7.92749C10.0233 5.61914 8.45603 4.08027 7.07864 2.72785ZM2.56645 8.37028C2.424 8.55682 2.28155 8.76667 2.18644 8.97651C2.16262 8.9999 2.13889 9.04649 2.09154 9.04649L2.06781 9.04629C1.94909 9.04629 1.83026 8.83645 1.83026 8.83645C1.80643 8.78977 1.75898 8.71998 1.73535 8.6733L1.71153 8.62681C1.4027 7.97379 1.66398 7.06464 1.66398 7.06464C1.78261 6.62176 1.99644 6.17859 2.25772 5.80559C2.4239 5.57236 2.61401 5.33932 2.80391 5.10608L3.04147 5.33932L4.15768 6.4585C4.20523 6.50519 4.20523 6.57498 4.15768 6.62166L2.99392 7.9041L2.56645 8.37028ZM5.06005 11.5879C4.11013 11.5879 3.32648 10.8184 3.3501 9.88585C3.3501 9.46607 3.51628 9.06988 3.77767 8.76667C4.13395 8.34689 4.58514 7.9273 5.08388 7.36775C5.6538 7.97399 6.03381 8.37028 6.39009 8.83674C6.41392 8.86013 6.43764 8.90672 6.46137 8.95331C6.65137 9.23304 6.77 9.55954 6.77 9.90934C6.79363 10.8419 6.01008 11.5879 5.06005 11.5879ZM8.31358 8.88314C8.28975 8.95321 8.21867 8.99971 8.1474 9.023L8.12357 9.02319C8.05229 8.9998 8.00494 8.95321 7.95739 8.90663C7.64876 8.46375 7.3163 8.04397 6.93628 7.67087L6.48519 7.2046L4.96525 5.66582C4.65661 5.3861 4.34778 5.05959 4.06277 4.75648C4.06277 4.73318 4.03905 4.73318 4.03905 4.73318C3.9915 4.6632 3.94414 4.59332 3.92032 4.49995V4.45326C3.87277 4.19674 3.96787 3.94031 4.15787 3.75376C4.44278 3.47404 4.75162 3.17082 5.03653 2.8678C5.34516 3.19421 5.67762 3.52062 6.01028 3.84703C6.6752 4.45326 7.26894 5.12948 7.81513 5.85227C8.26622 6.4817 8.50378 7.2046 8.50378 7.97408C8.45613 8.25381 8.40848 8.58012 8.31358 8.88314Z" fill="#D2D2D2"/>
</g>
<defs>
<clipPath id="clip0_7_175">
<rect width="10" height="12.9412" fill="white"/>
</clipPath>
</defs>
</svg>
