<svg width="11" height="14" viewBox="0 0 11 14" fill="none" xmlns="http://www.w3.org/2000/svg">
<path d="M5.35352 7C5.35352 6.46957 5.58286 5.96086 5.9911 5.58579C6.39934 5.21071 6.95303 5 7.53037 5C8.10771 5 8.6614 5.21071 9.06964 5.58579C9.47788 5.96086 9.70723 6.46957 9.70723 7C9.70723 7.53043 9.47788 8.03914 9.06964 8.41422C8.6614 8.78929 8.10771 9 7.53037 9C6.95303 9 6.39934 8.78929 5.9911 8.41422C5.58286 8.03914 5.35352 7.53043 5.35352 7V7Z" stroke="#C0C0C0" stroke-width="0.802"/>
<path d="M1 11C1 10.4696 1.22935 9.96086 1.63759 9.58579C2.04583 9.21071 2.59952 9 3.17686 9H5.35371V11C5.35371 11.5304 5.12437 12.0391 4.71613 12.4142C4.30789 12.7893 3.7542 13 3.17686 13C2.59952 13 2.04583 12.7893 1.63759 12.4142C1.22935 12.0391 1 11.5304 1 11Z" stroke="#C0C0C0" stroke-width="0.802"/>
<path d="M5.35352 1V5H7.53037C8.10771 5 8.6614 4.78929 9.06964 4.41422C9.47788 4.03914 9.70723 3.53043 9.70723 3C9.70723 2.46957 9.47788 1.96086 9.06964 1.58579C8.6614 1.21071 8.10771 1 7.53037 1L5.35352 1Z" stroke="#C0C0C0" stroke-width="0.802"/>
<path d="M1 7C1 7.53043 1.22935 8.03914 1.63759 8.41422C2.04583 8.78929 2.59952 9 3.17686 9H5.35371V5H3.17686C2.59952 5 2.04583 5.21071 1.63759 5.58579C1.22935 5.96086 1 6.46957 1 7Z" stroke="#C0C0C0" stroke-width="0.802"/>
</svg>
