<svg width="13" height="13" viewBox="0 0 13 13" fill="none" xmlns="http://www.w3.org/2000/svg">
<g clip-path="url(#clip0_7_49)">
<path fill-rule="evenodd" clip-rule="evenodd" d="M6.4927 0.0714111C10.0391 0.0714111 12.914 2.94629 12.914 6.4927C12.914 10.0391 10.0391 12.914 6.4927 12.914C2.94629 12.914 0.0714111 10.0391 0.0714111 6.4927C0.0714111 2.94629 2.94629 0.0714111 6.4927 0.0714111Z" fill="#D3D3D3"/>
<path d="M10.5205 2.81992C10.2297 1.6795 8.33872 1.30464 6.54903 1.94034C5.48396 2.31877 4.33084 2.91267 3.50192 3.68808C2.51618 4.61003 2.35893 5.41255 2.42371 5.74788C2.65231 6.93111 4.27347 7.70452 4.93986 8.2783V8.28172C4.74337 8.37847 3.305 9.10636 2.96838 9.85052C2.61321 10.6356 3.02489 11.199 3.29744 11.2748C4.14191 11.5098 5.00864 11.0871 5.4744 10.3925C5.92389 9.72209 5.88636 8.85636 5.69115 8.4257C5.96056 8.35464 6.27463 8.32282 6.67389 8.36934C7.80033 8.5009 8.02137 9.20425 7.97898 9.49863C7.93675 9.79301 7.70044 9.95483 7.62153 10.0036C7.54248 10.0526 7.51836 10.0694 7.52507 10.1058C7.53463 10.1586 7.57116 10.1566 7.63851 10.1452C7.73127 10.1295 8.22999 9.90574 8.25125 9.36236C8.27836 8.67257 7.61725 7.90087 6.44672 7.92099C5.9647 7.92927 5.66147 7.97521 5.44257 8.05669C5.42645 8.03829 5.4099 8.01988 5.39292 8.00176C4.66931 7.22963 3.33154 6.68354 3.38819 5.64557C3.40888 5.26828 3.54002 4.27455 5.9587 3.06935C7.94003 2.08204 9.52623 2.35373 9.80035 2.95591C10.1919 3.81607 8.95259 5.41497 6.89493 5.64557C6.11096 5.73347 5.69814 5.42967 5.59554 5.31651C5.48738 5.19736 5.4714 5.19194 5.43102 5.21434C5.36523 5.25073 5.4069 5.3559 5.43102 5.41868C5.49252 5.5785 5.74452 5.86204 6.17432 6.00316C6.55246 6.12731 7.47284 6.19537 8.58601 5.76486C9.83288 5.2827 10.8065 3.94122 10.5205 2.81992ZM5.21655 8.63176C5.31001 8.97736 5.29974 9.29957 5.20327 9.59138C5.19257 9.62377 5.18073 9.65588 5.16789 9.68756C5.15504 9.71924 5.1412 9.75049 5.12636 9.78145C5.05187 9.93585 4.95213 10.0804 4.82984 10.2138C4.45669 10.6208 3.93543 10.7748 3.71197 10.645C3.47053 10.5051 3.59153 9.93128 4.02404 9.47394C4.48937 8.98207 5.1589 8.66572 5.1589 8.66572L5.1579 8.66372C5.17716 8.6533 5.19671 8.6426 5.21655 8.63176Z" fill="#212121"/>
</g>
<defs>
<clipPath id="clip0_7_49">
<rect width="13" height="13" fill="white"/>
</clipPath>
</defs>
</svg>
