<?xml version="1.0" encoding="UTF-8" standalone="no"?>
<!DOCTYPE svg PUBLIC "-//W3C//DTD SVG 1.1//EN" "http://www.w3.org/Graphics/SVG/1.1/DTD/svg11.dtd">
<svg width="100%" height="100%" viewBox="0 0 24 24" version="1.1" xmlns="http://www.w3.org/2000/svg" xmlns:xlink="http://www.w3.org/1999/xlink" xml:space="preserve" xmlns:serif="http://www.serif.com/" style="fill-rule:evenodd;clip-rule:evenodd;stroke-linejoin:round;stroke-miterlimit:2;">
    <path d="M12.001,4.8C8.801,4.8 6.801,6.4 6.001,9.6C7.201,8 8.601,7.4 10.201,7.8C11.114,8.028 11.766,8.69 12.489,9.424C13.666,10.618 15.027,12 18.001,12C21.201,12 23.201,10.4 24.001,7.2C22.801,8.8 21.401,9.4 19.801,9C18.888,8.772 18.236,8.11 17.513,7.376C16.337,6.182 14.976,4.8 12.001,4.8ZM6.001,12C2.801,12 0.801,13.6 0.001,16.8C1.201,15.2 2.601,14.6 4.201,15C5.114,15.228 5.766,15.89 6.489,16.624C7.666,17.818 9.027,19.2 12.001,19.2C15.201,19.2 17.201,17.6 18.001,14.4C16.801,16 15.401,16.6 13.801,16.2C12.888,15.972 12.236,15.31 11.513,14.576C10.337,13.382 8.976,12 6.001,12Z" style="fill:rgb(210,210,210);fill-rule:nonzero;"/>
</svg>
