<?xml version="1.0" encoding="UTF-8" standalone="no"?>
<!DOCTYPE svg PUBLIC "-//W3C//DTD SVG 1.1//EN" "http://www.w3.org/Graphics/SVG/1.1/DTD/svg11.dtd">
<svg width="100%" height="100%" viewBox="0 0 24 24" version="1.1" xmlns="http://www.w3.org/2000/svg" xmlns:xlink="http://www.w3.org/1999/xlink" xml:space="preserve" xmlns:serif="http://www.serif.com/" style="fill-rule:evenodd;clip-rule:evenodd;stroke-linejoin:round;stroke-miterlimit:2;">
    <path d="M1.125,0C0.502,0 0,0.502 0,1.125L0,22.875C0,23.498 0.502,24 1.125,24L22.875,24C23.498,24 24,23.498 24,22.875L24,1.125C24,0.502 23.498,0 22.875,0L1.125,0ZM18.488,9.75C19.1,9.75 19.642,9.787 20.115,9.861C20.561,9.928 20.999,10.042 21.421,10.201L21.421,12.659C21.218,12.519 21.003,12.398 20.778,12.298C20.546,12.194 20.306,12.107 20.061,12.038C19.597,11.909 19.117,11.841 18.635,11.838C18.335,11.838 18.062,11.866 17.816,11.924C17.597,11.971 17.386,12.053 17.193,12.166C17.023,12.27 16.893,12.395 16.8,12.54C16.706,12.686 16.658,12.857 16.66,13.03C16.66,13.226 16.713,13.403 16.816,13.559C16.92,13.715 17.068,13.863 17.259,14.003C17.45,14.143 17.682,14.279 17.955,14.413C18.228,14.548 18.537,14.687 18.881,14.829C19.351,15.026 19.773,15.236 20.147,15.457C20.521,15.679 20.842,15.93 21.11,16.21C21.378,16.489 21.582,16.808 21.724,17.167C21.866,17.526 21.938,17.943 21.938,18.42C21.938,19.077 21.813,19.63 21.565,20.076C21.323,20.516 20.975,20.889 20.553,21.161C20.098,21.449 19.594,21.651 19.066,21.757C18.5,21.877 17.903,21.937 17.276,21.937C16.659,21.94 16.043,21.885 15.436,21.773C14.911,21.682 14.402,21.516 13.924,21.28L13.924,18.65C14.828,19.419 15.975,19.844 17.161,19.85C17.494,19.85 17.785,19.82 18.033,19.76C18.282,19.7 18.489,19.616 18.656,19.51C18.822,19.402 18.946,19.276 19.029,19.13C19.216,18.784 19.187,18.359 18.955,18.041C18.806,17.844 18.625,17.675 18.418,17.541C18.162,17.371 17.892,17.223 17.611,17.097C17.278,16.945 16.943,16.8 16.604,16.661C15.686,16.278 15.002,15.809 14.551,15.256C14.101,14.703 13.875,14.034 13.875,13.251C13.875,12.637 13.998,12.11 14.244,11.669C14.49,11.228 14.824,10.865 15.248,10.58C15.696,10.284 16.194,10.071 16.718,9.951C17.298,9.814 17.892,9.747 18.488,9.75ZM3.375,9.938L12.938,9.938L12.938,12.104L9.506,12.104L9.506,21.75L6.789,21.75L6.789,12.104L3.375,12.104L3.375,9.938Z" style="fill:rgb(210,210,210);fill-rule:nonzero;"/>
</svg>
