<svg width="15" height="15" viewBox="0 0 15 15" fill="none" xmlns="http://www.w3.org/2000/svg">
<g clip-path="url(#clip0_7_27)">
<path d="M7.5 0C3.35815 0 0 3.35815 0 7.5C0 11.6418 3.35815 15 7.5 15C11.6418 15 15 11.6418 15 7.5C15 3.35815 11.6418 0 7.5 0ZM12.9846 4.50195C13.0115 4.70093 13.0261 4.91455 13.0261 5.14404C13.0261 5.77759 12.9077 6.49048 12.5513 7.38281L10.6421 12.9016C12.5 11.8188 13.75 9.80469 13.75 7.5C13.75 6.41357 13.4729 5.39185 12.9846 4.50195ZM7.60986 8.04688L5.73486 13.4961C6.29517 13.6609 6.88721 13.7512 7.5 13.7512C8.22754 13.7512 8.92578 13.6255 9.5752 13.3972C9.55811 13.3704 9.54346 13.3423 9.53003 13.3105L7.60986 8.04688ZM11.7188 7.18506C11.7188 6.41235 11.4417 5.87769 11.2036 5.46143C10.8862 4.94629 10.5896 4.5105 10.5896 3.99536C10.5896 3.42041 11.0254 2.88574 11.6394 2.88574C11.6675 2.88574 11.6931 2.8894 11.72 2.89062C10.6079 1.87134 9.12598 1.25 7.5 1.25C5.31616 1.25 3.396 2.37061 2.27783 4.06738C2.42432 4.07227 2.56226 4.07471 2.68066 4.07471C3.33374 4.07471 4.34692 3.99536 4.34692 3.99536C4.68384 3.97583 4.7229 4.47021 4.38721 4.5105C4.38721 4.5105 4.04907 4.54956 3.67188 4.57031L5.94727 11.3403L7.31567 7.23877L6.34155 4.57031C6.00464 4.55078 5.68604 4.5105 5.68604 4.5105C5.34912 4.49097 5.38818 3.97583 5.7251 3.99536C5.7251 3.99536 6.75659 4.07471 7.37061 4.07471C8.02368 4.07471 9.03687 3.99536 9.03687 3.99536C9.37378 3.97583 9.41284 4.47021 9.07715 4.5105C9.07715 4.5105 8.73779 4.54956 8.36182 4.57031L10.6201 11.2878L11.2646 9.24438C11.5515 8.35205 11.7188 7.71973 11.7188 7.18506ZM1.25 7.5C1.25 9.97437 2.68799 12.1118 4.77295 13.125L1.79077 4.95605C1.44409 5.73364 1.25 6.59302 1.25 7.5ZM7.5 0.450439C8.45215 0.450439 9.375 0.637207 10.2441 1.00464C10.6616 1.18164 11.0645 1.40015 11.4417 1.65405C11.8152 1.90674 12.1667 2.19604 12.4854 2.51465C12.804 2.83325 13.0945 3.18481 13.3459 3.55835C13.6011 3.93555 13.8196 4.33838 13.9954 4.75586C14.3628 5.625 14.5496 6.54785 14.5496 7.5C14.5496 8.45215 14.3628 9.375 13.9954 10.2441C13.8184 10.6616 13.5999 11.0645 13.3459 11.4417C13.0933 11.8152 12.804 12.1667 12.4854 12.4854C12.1667 12.804 11.8152 13.0945 11.4417 13.3459C11.0645 13.6011 10.6616 13.8196 10.2441 13.9954C9.375 14.3628 8.45215 14.5496 7.5 14.5496C6.54785 14.5496 5.625 14.3628 4.75586 13.9954C4.33838 13.8184 3.93555 13.5999 3.55835 13.3459C3.18481 13.0933 2.83325 12.804 2.51465 12.4854C2.19604 12.1667 1.90552 11.8152 1.65405 11.4417C1.39893 11.0645 1.18042 10.6616 1.00464 10.2441C0.635986 9.375 0.450439 8.45215 0.450439 7.5C0.450439 6.54785 0.637207 5.625 1.00464 4.75586C1.18164 4.33838 1.40015 3.93555 1.65405 3.55835C1.90674 3.18481 2.19604 2.83325 2.51465 2.51465C2.83325 2.19604 3.18481 1.90552 3.55835 1.65405C3.93555 1.39893 4.33838 1.18042 4.75586 1.00464C5.625 0.635986 6.54785 0.450439 7.5 0.450439Z" fill="#C0C0C0"/>
</g>
<defs>
<clipPath id="clip0_7_27">
<rect width="15" height="15" fill="white"/>
</clipPath>
</defs>
</svg>
