<svg width="40" height="40" viewBox="0 0 40 40" fill="none" xmlns="http://www.w3.org/2000/svg">
<path d="M34.1668 28.2143V16.6667C34.1668 10.3813 34.1668 7.23859 32.2142 5.28596C30.2617 3.33334 27.1188 3.33334 20.8335 3.33334H19.1668C12.8814 3.33334 9.73875 3.33334 7.78611 5.28596C5.8335 7.23859 5.8335 10.3813 5.8335 16.6667V32.5" stroke="#65FF86" stroke-width="2.5" stroke-linecap="round"/>
<path d="M34.1668 28.3333H10.0002C7.69898 28.3333 5.8335 30.1988 5.8335 32.5C5.8335 34.8012 7.69898 36.6667 10.0002 36.6667H34.1668" stroke="#65FF86" stroke-width="2.5" stroke-linecap="round"/>
<path d="M34.1667 36.6667C31.8655 36.6667 30 34.8012 30 32.5C30 30.1988 31.8655 28.3333 34.1667 28.3333" stroke="#65FF86" stroke-width="2.5" stroke-linecap="round"/>
<path d="M20.513 20L18.0785 12.4648C17.9255 11.9911 17.4558 11.6667 16.9232 11.6667C16.3906 11.6667 15.921 11.9911 15.7679 12.4648L13.3335 20M25.0002 11.6667V20M14.2309 17.5H19.6155" stroke="#65FF86" stroke-width="2.5" stroke-linecap="round" stroke-linejoin="round"/>
</svg>
