<svg width="44" height="43" viewBox="0 0 44 43" fill="none" xmlns="http://www.w3.org/2000/svg">
<path d="M4.95312 21.625C4.95312 13.648 4.95312 9.65944 7.43127 7.18127C9.90944 4.70312 13.898 4.70312 21.875 4.70312C29.852 4.70312 33.8405 4.70312 36.3188 7.18127C38.7969 9.65944 38.7969 13.648 38.7969 21.625C38.7969 29.602 38.7969 33.5905 36.3188 36.0688C33.8405 38.5469 29.852 38.5469 21.875 38.5469C13.898 38.5469 9.90944 38.5469 7.43127 36.0688C4.95312 33.5905 4.95312 29.602 4.95312 21.625Z" stroke="#1FDBFF" stroke-width="2.67188"/>
<path d="M4.95312 16.2812H38.7969" stroke="#1FDBFF" stroke-width="2.67188" stroke-linejoin="round"/>
<path d="M12.9688 10.9375H12.9847" stroke="#1FDBFF" stroke-width="2.67188" stroke-linecap="round" stroke-linejoin="round"/>
<path d="M20.0938 10.9375H20.1098" stroke="#1FDBFF" stroke-width="2.67188" stroke-linecap="round" stroke-linejoin="round"/>
<path d="M16.7415 24.2969C16.2523 23.7502 15.5413 23.4062 14.75 23.4062C13.2744 23.4062 12.0781 24.6025 12.0781 26.0781V27.8594C12.0781 29.335 13.2744 30.5312 14.75 30.5312C15.5413 30.5312 16.2523 30.1873 16.7415 29.6406" stroke="#1FDBFF" stroke-width="2.67188" stroke-linecap="round" stroke-linejoin="round"/>
<path d="M28.1094 23.4062L31.6719 30.5312" stroke="#1FDBFF" stroke-width="2.67188" stroke-linecap="round" stroke-linejoin="round"/>
<path d="M22.7517 24.2969H22.7677M22.7517 29.6406H22.7677" stroke="#1FDBFF" stroke-width="2.67188" stroke-linecap="round" stroke-linejoin="round"/>
</svg>
