<svg width="44" height="44" viewBox="0 0 44 44" fill="none" xmlns="http://www.w3.org/2000/svg">
<path d="M22 23.8333L27.5 27.5M22 23.8333C13.7876 28.8673 8.94982 27.0981 5.5 25.3931C5.5 29.2045 6.7489 32.3935 8.6095 34.8333M22 23.8333L27.5 15.4256M27.5 27.5C27.0985 31.2351 24.6156 38.8394 18.6186 40.3333C15.2912 40.3333 11.3073 38.3709 8.6095 34.8333M27.5 27.5L32.2626 18.3333M8.6095 34.8333C10.5132 35.139 15.1801 35.2 18.6186 33M27.5 15.4256L34.4806 4.75453C35.0436 3.76193 36.2885 3.38316 37.3118 3.89307C38.3731 4.42187 38.8034 5.7079 38.2727 6.76552L32.2626 18.3333M27.5 15.4256L32.2626 18.3333" stroke="#65FF86" stroke-width="2.75" stroke-linecap="round" stroke-linejoin="round"/>
<path d="M11 7.33333L11.4053 8.42865C11.9368 9.86492 12.2025 10.5831 12.7264 11.107C13.2503 11.6308 13.9684 11.8966 15.4047 12.428L16.5 12.8333L15.4047 13.2386C13.9684 13.7701 13.2503 14.0358 12.7264 14.5597C12.2025 15.0836 11.9368 15.8017 11.4053 17.238L11 18.3333L10.5947 17.238C10.0632 15.8017 9.79748 15.0836 9.27361 14.5597C8.74975 14.0358 8.0316 13.7701 6.59533 13.2386L5.5 12.8333L6.59533 12.428C8.0316 11.8966 8.74975 11.6308 9.27361 11.1069C9.79748 10.5831 10.0632 9.86492 10.5947 8.42865L11 7.33333Z" stroke="#65FF86" stroke-width="2.75" stroke-linejoin="round"/>
</svg>
