<svg width="47" height="47" viewBox="0 0 47 47" fill="none" xmlns="http://www.w3.org/2000/svg">
<path d="M22.0312 31.8229H24.9688L23.5 33.2917L22.0312 31.8229Z" stroke="#65FF86" stroke-width="3" stroke-linecap="round" stroke-linejoin="round"/>
<path d="M31.3333 27.4167V28.3958" stroke="#65FF86" stroke-width="3" stroke-linecap="round" stroke-linejoin="round"/>
<path d="M8.65576 22.0254C8.10769 24.1418 7.8313 26.3193 7.83326 28.5055C7.83326 36.6757 14.848 41.125 23.4999 41.125C32.1518 41.125 39.1666 36.6757 39.1666 28.5055C39.1568 26.3104 38.8317 24.128 38.2011 22.0254" stroke="#65FF86" stroke-width="3" stroke-linecap="round" stroke-linejoin="round"/>
<path d="M15.6667 27.4167V28.3958" stroke="#65FF86" stroke-width="3" stroke-linecap="round" stroke-linejoin="round"/>
<path d="M16.6457 16.6459C15.8937 18.7021 14.5248 20.6174 12.0553 21.5417C8.2738 22.9556 5.05234 20.9601 4.89568 19.5834C4.67438 17.6368 7.20063 6.79547 12.729 5.87505C16.4949 5.24643 19.8789 7.52984 19.8789 10.2519C22.3558 9.62287 24.9539 9.65122 27.4165 10.3342C27.4165 7.61209 31.0277 5.24643 34.7936 5.87505C40.3219 6.79547 42.8482 17.6368 42.6269 19.5834C42.4702 20.9601 39.2488 22.9556 35.4672 21.5417C32.9978 20.6174 31.8345 18.7021 31.0825 16.6459" stroke="#65FF86" stroke-width="3" stroke-linecap="round" stroke-linejoin="round"/>
</svg>
