<svg width="50" height="50" viewBox="0 0 50 50" fill="none" xmlns="http://www.w3.org/2000/svg">
<path d="M4.18394 32.9358C4.6483 25.6585 6.01544 20.3331 7.17394 17.2398C7.75882 15.6781 9.01713 14.5152 10.6281 14.1254C19.5865 11.9582 30.4138 11.9582 39.3722 14.1254C40.9832 14.5152 42.2415 15.6781 42.8263 17.2398C43.9849 20.3331 45.352 25.6585 45.8163 32.9358C46.094 37.2894 42.9476 39.6881 39.4645 41.4427C37.2459 42.5602 35.5399 39.2619 34.4074 36.709C33.7886 35.3142 32.4307 34.4492 30.892 34.4492H19.1083C17.5695 34.4492 16.2117 35.3142 15.5929 36.709C14.4603 39.2619 12.7543 42.5602 10.5357 41.4427C7.0879 39.7058 3.90392 37.3244 4.18394 32.9358Z" stroke="#1FDBFF" stroke-width="3.125" stroke-linecap="round" stroke-linejoin="round"/>
<path d="M10.4167 9.37499L14.506 8.33333M39.5834 9.37499L35.4167 8.33333" stroke="#1FDBFF" stroke-width="3.125" stroke-linecap="round" stroke-linejoin="round"/>
<path d="M18.75 27.0833L15.625 23.9583M15.625 23.9583L12.5 20.8333M15.625 23.9583L12.5 27.0833M15.625 23.9583L18.75 20.8333" stroke="#1FDBFF" stroke-width="3.125" stroke-linecap="round"/>
<path d="M33.3083 20.8333H33.3275" stroke="#1FDBFF" stroke-width="3.125" stroke-linecap="round" stroke-linejoin="round"/>
<path d="M37.4751 27.0833H37.4942" stroke="#1FDBFF" stroke-width="3.125" stroke-linecap="round" stroke-linejoin="round"/>
</svg>
