<svg width="57" height="59" viewBox="0 0 57 59" fill="none" xmlns="http://www.w3.org/2000/svg">
<path d="M14.7676 35C15.5133 33.7084 17.3427 33.6681 18.1562 34.8789L18.2324 35L23.8613 44.75C24.6311 46.0833 23.6685 47.75 22.1289 47.75H10.8711C9.37968 47.75 8.42951 46.1859 9.07129 44.876L9.13867 44.75L14.7676 35Z" stroke="#65FF86" stroke-width="2"/>
<path d="M29.1654 28.8625C31.0069 27.7993 33.3088 29.1283 33.3088 31.2547C33.3088 33.381 31.0069 34.71 29.1654 33.6468C27.3239 32.5836 27.3239 29.9257 29.1654 28.8625Z" fill="#65FF86"/>
<path d="M30.5351 19.6852C31.4944 19.1313 32.6936 19.8237 32.6936 20.9314C32.6936 22.0392 31.4944 22.7315 30.5351 22.1776C29.5758 21.6238 29.5758 20.2391 30.5351 19.6852Z" fill="#65FF86"/>
<path d="M9.5 58L40.5 27M1 56L56 1" stroke="white" stroke-opacity="0.17"/>
</svg>
