<svg width="335" height="14" viewBox="0 0 335 14" fill="none" xmlns="http://www.w3.org/2000/svg">
<path d="M0.745316 0.789062H5.22188C6.52917 0.789062 7.66459 0.929688 8.62813 1.21094C9.59167 1.49219 10.3885 1.89583 11.0188 2.42188C11.6542 2.94271 12.1255 3.57812 12.4328 4.32812C12.7453 5.07292 12.9016 5.91146 12.9016 6.84375C12.9016 7.72917 12.7479 8.54948 12.4406 9.30469C12.1333 10.0547 11.6646 10.7057 11.0344 11.2578C10.4042 11.8047 9.60729 12.2344 8.64375 12.5469C7.68021 12.8542 6.54479 13.0078 5.2375 13.0078L0.745316 13V0.789062ZM5.83125 10.8594C6.57084 10.8594 7.21927 10.7656 7.77657 10.5781C8.33386 10.3854 8.7974 10.1146 9.16719 9.76562C9.54219 9.41667 9.82344 8.99479 10.0109 8.5C10.1984 8.00521 10.2922 7.45312 10.2922 6.84375C10.2922 6.24479 10.1984 5.70573 10.0109 5.22656C9.82344 4.74219 9.54219 4.33333 9.16719 4C8.7974 3.66146 8.33386 3.40104 7.77657 3.21875C7.21927 3.03646 6.57084 2.94531 5.83125 2.94531H3.22188V10.8594H5.83125ZM33.6259 0.789062H44.0244V2.96094H36.1025V5.39844H43.1181V7.4375H36.1025V10.8359H44.1884V13H33.6259V0.789062ZM63.5456 0.789062H66.2878L70.1237 10.1016L73.9597 0.789062H76.7019L71.3503 13H68.8972L63.5456 0.789062ZM96.0591 6.85938C96.0591 5.9375 96.2283 5.09375 96.5669 4.32812C96.9054 3.5625 97.3794 2.90625 97.9888 2.35938C98.6033 1.80729 99.3377 1.38021 100.192 1.07812C101.051 0.776042 102.002 0.625 103.043 0.625C104.08 0.625 105.028 0.776042 105.887 1.07812C106.747 1.38021 107.481 1.80729 108.09 2.35938C108.705 2.90625 109.181 3.5625 109.52 4.32812C109.859 5.09375 110.028 5.9375 110.028 6.85938C110.028 7.78646 109.859 8.63802 109.52 9.41406C109.181 10.1849 108.705 10.849 108.09 11.4062C107.481 11.9635 106.747 12.3984 105.887 12.7109C105.028 13.0182 104.08 13.1719 103.043 13.1719C102.002 13.1719 101.051 13.0182 100.192 12.7109C99.3377 12.3984 98.6033 11.9635 97.9888 11.4062C97.3794 10.849 96.9054 10.1849 96.5669 9.41406C96.2283 8.63802 96.0591 7.78646 96.0591 6.85938ZM98.5356 6.85938C98.5356 7.48958 98.6476 8.05729 98.8716 8.5625C99.1007 9.06771 99.4158 9.5 99.8169 9.85938C100.223 10.2135 100.7 10.487 101.247 10.6797C101.799 10.8724 102.398 10.9688 103.043 10.9688C103.689 10.9688 104.286 10.8724 104.833 10.6797C105.385 10.487 105.861 10.2135 106.262 9.85938C106.663 9.5 106.978 9.06771 107.208 8.5625C107.437 8.05729 107.551 7.48958 107.551 6.85938C107.551 6.22917 107.437 5.66406 107.208 5.16406C106.978 4.66406 106.663 4.24219 106.262 3.89844C105.861 3.54948 105.385 3.28385 104.833 3.10156C104.286 2.91927 103.689 2.82812 103.043 2.82812C102.398 2.82812 101.799 2.91927 101.247 3.10156C100.7 3.28385 100.223 3.54948 99.8169 3.89844C99.4158 4.24219 99.1007 4.66406 98.8716 5.16406C98.6476 5.66406 98.5356 6.22917 98.5356 6.85938ZM131.002 0.789062H133.479L141.088 4.77344V0.789062H143.565V13H141.088V7.39844L133.479 3.4375V13H131.002V0.789062Z" fill="#65FF86"/>
<path d="M187.232 0.789062H189.935L193.248 8.67188L194.013 10.5781L194.615 8.67188L195.834 5.79688L193.638 0.789062H196.185L197.084 3.17188L197.92 0.789062H200.467L198.271 5.79688L199.513 8.73438L200.263 10.5781L200.842 8.70312L204.17 0.789062H206.873L201.482 13H199.029L197.943 10.5781L197.06 8.22656L196.178 10.5781L195.076 13H192.623L187.232 0.789062ZM227.003 0.789062H237.402V2.96094H229.48V5.39844H236.496V7.4375H229.48V10.8359H237.566V13H227.003V0.789062ZM258.556 0.789062H261.032V10.8281H268.134V13H258.556V0.789062ZM288.038 6.82031C288.038 5.95052 288.202 5.14062 288.53 4.39062C288.858 3.63542 289.332 2.98177 289.952 2.42969C290.577 1.8724 291.338 1.4349 292.233 1.11719C293.135 0.799479 294.153 0.640625 295.288 0.640625C296.283 0.640625 297.194 0.742188 298.023 0.945312C298.856 1.14323 299.629 1.44792 300.343 1.85938L299.202 3.73438C298.989 3.59375 298.741 3.46875 298.46 3.35938C298.184 3.25 297.887 3.15885 297.569 3.08594C297.257 3.00781 296.931 2.94792 296.593 2.90625C296.26 2.86458 295.929 2.84375 295.601 2.84375C294.809 2.84375 294.103 2.94271 293.483 3.14062C292.864 3.33333 292.34 3.60677 291.913 3.96094C291.491 4.3099 291.168 4.72917 290.944 5.21875C290.726 5.70312 290.616 6.23698 290.616 6.82031C290.616 7.42448 290.731 7.97917 290.96 8.48438C291.189 8.98958 291.52 9.42708 291.952 9.79688C292.39 10.1615 292.921 10.4479 293.546 10.6562C294.176 10.8594 294.887 10.9609 295.679 10.9609C296.038 10.9609 296.395 10.9349 296.749 10.8828C297.103 10.8307 297.444 10.7604 297.773 10.6719C298.106 10.5781 298.426 10.4688 298.733 10.3438C299.041 10.2135 299.327 10.0729 299.593 9.92188L300.733 11.7969C300.067 12.224 299.296 12.5599 298.421 12.8047C297.546 13.0443 296.616 13.1641 295.632 13.1641C294.377 13.1641 293.275 13.0026 292.327 12.6797C291.379 12.3516 290.588 11.9036 289.952 11.3359C289.317 10.763 288.838 10.0911 288.515 9.32031C288.197 8.54427 288.038 7.71094 288.038 6.82031ZM321.7 0.789062H324.177V3.97656H331.77V0.789062H334.255V13H331.77V6.09375H324.177V13H321.7V0.789062Z" fill="url(#paint0_linear_7_193)"/>
<defs>
<linearGradient id="paint0_linear_7_193" x1="-1" y1="7" x2="336" y2="7" gradientUnits="userSpaceOnUse">
<stop stop-color="#1FDBFF"/>
<stop offset="1" stop-color="#6DFDDF"/>
</linearGradient>
</defs>
</svg>
