<?xml version="1.0" encoding="UTF-8" standalone="no"?>
<!DOCTYPE svg PUBLIC "-//W3C//DTD SVG 1.1//EN" "http://www.w3.org/Graphics/SVG/1.1/DTD/svg11.dtd">
<svg width="100%" height="100%" viewBox="0 0 190 53" version="1.1" xmlns="http://www.w3.org/2000/svg" xmlns:xlink="http://www.w3.org/1999/xlink" xml:space="preserve" xmlns:serif="http://www.serif.com/" style="fill-rule:evenodd;clip-rule:evenodd;stroke-miterlimit:10;">
    <path d="M85.34,3.38L7.53,31.16" style="fill:none;fill-rule:nonzero;"/>
    <path d="M85.28,3.23L58.88,12.65C44.95,17.62 31.02,22.59 17.1,27.57C13.89,28.71 10.69,29.86 7.48,31C6.81,31.24 6.9,31.54 7.59,31.3L33.99,21.88C47.92,16.91 61.85,11.94 75.77,6.96C78.98,5.82 82.18,4.67 85.39,3.53C86.06,3.29 85.97,2.99 85.28,3.23Z" style="fill:white;fill-rule:nonzero;"/>
    <path d="M187.42,40.4C184.04,39.16 180.67,37.93 177.29,36.69C169.18,33.72 161.07,30.76 152.97,27.79C143.2,24.22 133.44,20.65 123.67,17.07L98.24,7.77L89.86,4.71C88.61,4.25 87.21,3.49 85.9,3.26C85.84,3.25 85.78,3.21 85.72,3.19C85.67,3.17 85.55,3.24 85.63,3.27C89.01,4.51 92.38,5.74 95.76,6.98C103.87,9.95 111.98,12.91 120.08,15.88C129.85,19.45 139.61,23.02 149.38,26.6C157.86,29.7 166.33,32.8 174.81,35.9C177.6,36.92 180.4,37.94 183.19,38.96L185.78,39.91C186.2,40.06 186.7,40.35 187.15,40.41C187.21,40.41 187.27,40.46 187.33,40.48C187.38,40.5 187.5,40.43 187.42,40.4Z" style="fill:white;fill-rule:nonzero;"/>
    <path d="M84.88,3.51L1.93,38.42M85.66,3.24L180.34,48.37M85.66,3.24L187.29,45M187.58,40.52L140.75,39.94M187.29,45.09L147.72,44.36M180.33,48.37L154.21,48.57M85.34,3.38L2.07,44.73" style="fill:white;fill-rule:nonzero;"/>
    <path d="M45.73,33.68L30.5,33.68C30.5,32.7 30.5,32.01 31.52,31.87C33.75,31.53 34.02,31.97 30.71,25.75L29.83,24.04L14.26,24.04L13.38,25.75C10.13,31.97 10.4,31.53 12.7,31.87C13.78,32.02 13.78,32.7 13.78,33.68L2.4,33.68C2.4,32.7 2.4,32.01 3.48,31.87C5.85,31.53 5.58,31.97 8.9,25.75L18.51,7.61C19.05,6.58 19.53,5.65 19.53,5.16C19.53,4.57 19.26,4.08 18.31,2.91L27.18,2.91C27.52,4.18 27.72,4.82 28.67,6.58L39.23,25.79C42.61,31.96 42.34,31.52 44.71,31.87C45.73,32.02 45.73,32.7 45.73,33.68ZM28.46,21.47L21.96,9.07L15.6,21.47L28.46,21.47Z" style="fill:url(#_Linear1);fill-rule:nonzero;stroke:rgb(35,31,32);stroke-width:0.75px;"/>
    <path d="M49.86,31.86C52.3,31.52 52.3,32.01 52.3,25.34L52.3,11.23C52.3,4.57 52.3,5.06 49.86,4.71C48.78,4.56 48.78,3.88 48.78,2.9L64.83,2.9C68.28,2.9 71.53,3.05 74.17,3.68C78.5,4.71 81.35,6.91 81.35,10.59C81.35,15.59 73.7,19.61 62.87,20.1L62.46,18.48C68.62,17.75 72.89,15.79 72.89,11.52C72.89,8.33 70.79,5.44 64.09,5.44C60.5,5.44 60.3,5.54 60.3,7.11L60.3,25.34C60.3,32 60.3,31.51 63.82,31.86C65.38,32.01 65.38,32.69 65.38,33.67L48.79,33.67C48.79,32.69 48.79,32 49.87,31.86L49.86,31.86Z" style="fill:url(#_Linear2);fill-rule:nonzero;stroke:rgb(35,31,32);stroke-width:0.75px;"/>
    <path d="M121.69,25.39L120,33.67L86.83,33.67C86.83,32.69 86.83,32 88.12,31.86C91.17,31.52 91.17,32.01 91.17,25.34L91.17,11.23C91.17,4.57 91.17,5.06 88.73,4.71C87.65,4.56 87.65,3.88 87.65,2.9L117.57,2.9L118.04,9.76L116.55,9.76C115.81,9.76 115.13,9.66 114.72,8.68C113.37,5.45 112.82,5.45 108.29,5.45L100.64,5.45C99.29,5.45 99.15,5.99 99.15,7.12L99.15,16.09L100.84,16.09C110.05,16.09 109.37,16.09 109.84,14.38C110.04,13.64 110.99,13.64 112.34,13.64L112.34,21.09C110.99,21.09 110.04,21.09 109.84,20.35C109.37,18.64 110.04,18.64 100.84,18.64L99.15,18.64L99.15,29.47C99.15,30.6 99.29,31.14 100.64,31.14L110.32,31.14C114.92,31.14 115.74,30.6 118.38,26.49C118.92,25.61 119.46,25.41 120.21,25.41L121.7,25.41L121.69,25.39Z" style="fill:url(#_Linear3);fill-rule:nonzero;stroke:rgb(35,31,32);stroke-width:0.75px;"/>
    <path d="M166.38,33.68L149.59,33.68C149.59,32.7 149.59,32.01 150.67,31.87C153.11,31.53 153.51,31.92 148.64,26.28L144.31,21.23L139.5,26.37C134.29,31.91 134.69,31.51 137,31.86C137.95,32.01 137.95,32.69 137.95,33.67L126.1,33.67C126.1,32.69 126.1,32 127.25,31.86C129.96,31.52 129.55,31.91 134.77,26.42L142.15,18.68L134.91,10.3C130.03,4.67 130.44,5.06 127.73,4.71C126.51,4.56 126.51,3.88 126.51,2.9L143.3,2.9C143.3,3.88 143.3,4.57 142.22,4.71C139.78,5.05 139.38,4.66 144.25,10.3L147.63,14.22L151.22,10.2C156.23,4.66 155.82,5.06 153.66,4.71C152.71,4.56 152.71,3.88 152.71,2.9L164.42,2.9C164.42,3.88 164.42,4.57 163.13,4.71C160.29,5.05 160.69,4.66 155.62,10.2L149.66,16.62L157.99,26.27C162.87,31.9 162.46,31.51 165.17,31.86C166.39,32.01 166.39,32.69 166.39,33.67L166.38,33.68Z" style="fill:url(#_Linear4);fill-rule:nonzero;stroke:rgb(35,31,32);stroke-width:0.75px;"/>
    <path d="M14.45,48.65L15,48.65C15.73,48.65 16.55,48.2 16.55,47.39C16.55,46.74 16.09,46.42 15.51,46.23C14.72,45.97 13.68,45.92 13.12,45.63C12.43,45.27 11.89,44.57 11.89,43.77C11.89,42.46 13.27,41.68 14.45,41.68L15,41.68C16.16,41.68 17.27,42.43 17.56,43.58L16.52,43.58C16.29,42.96 15.66,42.55 15,42.55L14.45,42.55C13.75,42.55 12.91,42.97 12.91,43.76C12.91,45.06 14.68,45.13 15.59,45.34C16.6,45.57 17.57,46.25 17.57,47.39C17.57,48.72 16.19,49.52 15,49.52L14.45,49.52C13.26,49.52 12.15,48.72 11.91,47.53L12.94,47.53C13.14,48.2 13.76,48.65 14.45,48.65ZM20.92,42.54L18.14,42.54L18.14,41.67L24.41,41.67L24.41,42.54L21.94,42.54L21.94,49.49L20.91,49.49L20.91,42.54L20.92,42.54ZM29.07,41.69C31.19,41.69 33.06,43.41 33.06,45.61C33.06,47.81 31.19,49.53 29.07,49.53C26.95,49.53 25.08,47.82 25.08,45.61C25.08,43.4 26.95,41.69 29.07,41.69ZM32.04,45.6C32.04,43.94 30.7,42.54 29.07,42.54C27.44,42.54 26.1,43.94 26.1,45.6C26.1,47.26 27.45,48.64 29.07,48.64C30.69,48.64 32.04,47.26 32.04,45.6ZM34.18,41.66L35.01,41.66L39.75,47.75L39.75,41.69L40.78,41.69L40.78,49.51L39.91,49.51L35.21,43.44L35.21,49.51L34.18,49.51L34.18,41.66ZM42.19,41.69L47.65,41.69L47.65,42.55L43.21,42.55L43.21,45.21L46.7,45.21L46.7,46.07L43.21,46.07L43.21,48.64L47.65,48.64L47.65,49.51L42.19,49.51L42.19,41.69ZM51.84,41.08L52.66,41.08L52.66,50.91L51.84,50.91L51.84,41.08ZM59.29,42.54L56.51,42.54L56.51,41.67L62.78,41.67L62.78,42.54L60.31,42.54L60.31,49.49L59.28,49.49L59.28,42.54L59.29,42.54ZM63.71,41.64L64.74,41.64L64.74,49.5L63.71,49.5L63.71,41.64ZM66.29,41.67L67.32,41.67L67.32,48.62L71.49,48.62L71.49,49.49L66.3,49.49L66.3,41.67L66.29,41.67ZM72.48,41.69L77.94,41.69L77.94,42.55L73.5,42.55L73.5,45.21L76.99,45.21L76.99,46.07L73.5,46.07L73.5,48.64L77.94,48.64L77.94,49.51L72.48,49.51L72.48,41.69ZM82.14,41.08L82.96,41.08L82.96,50.91L82.14,50.91L82.14,41.08ZM87.27,41.66L92.73,41.66L92.73,42.53L88.29,42.53L88.29,45.19L91.56,45.19L91.56,46.05L88.29,46.05L88.29,49.52L87.26,49.52L87.26,41.65L87.27,41.66ZM93.82,41.67L94.85,41.67L94.85,48.62L99.02,48.62L99.02,49.49L93.83,49.49L93.83,41.67L93.82,41.67ZM103.74,41.69C105.86,41.69 107.73,43.41 107.73,45.61C107.73,47.81 105.86,49.53 103.74,49.53C101.62,49.53 99.75,47.82 99.75,45.61C99.75,43.4 101.62,41.69 103.74,41.69ZM106.71,45.6C106.71,43.94 105.37,42.54 103.74,42.54C102.11,42.54 100.77,43.94 100.77,45.6C100.77,47.26 102.12,48.64 103.74,48.64C105.36,48.64 106.71,47.26 106.71,45.6ZM112.57,41.69C114.69,41.69 116.56,43.41 116.56,45.61C116.56,47.81 114.69,49.53 112.57,49.53C110.45,49.53 108.58,47.82 108.58,45.61C108.58,43.4 110.45,41.69 112.57,41.69ZM115.54,45.6C115.54,43.94 114.2,42.54 112.57,42.54C110.94,42.54 109.6,43.94 109.6,45.6C109.6,47.26 110.95,48.64 112.57,48.64C114.19,48.64 115.54,47.26 115.54,45.6ZM121.62,41.67C122.86,41.67 123.9,42.63 123.9,43.87C123.9,44.99 123.1,45.69 122.12,46.01L123.93,49.5L122.77,49.5L121.01,46.06L118.71,46.06L118.71,49.51L117.68,49.51L117.68,41.67L121.62,41.67ZM121.62,45.19C122.33,45.19 122.87,44.57 122.87,43.87C122.87,43.17 122.32,42.55 121.62,42.55L118.71,42.55L118.71,45.2L121.62,45.2L121.62,45.19ZM125.09,41.64L126.12,41.64L126.12,49.5L125.09,49.5L125.09,41.64ZM127.67,41.66L128.5,41.66L133.24,47.75L133.24,41.69L134.27,41.69L134.27,49.51L133.4,49.51L128.7,43.44L128.7,49.51L127.67,49.51L127.67,41.66ZM143.03,45.24L143.03,49.5L141.99,49.5L141.99,48.55C141.19,49.12 140.41,49.51 139.4,49.51C137.25,49.51 135.41,47.75 135.41,45.58C135.41,43.41 137.3,41.69 139.45,41.69C141,41.69 142.46,42.65 142.96,44.14L141.91,44.14C141.5,43.17 140.45,42.55 139.41,42.55C137.76,42.55 136.44,43.95 136.44,45.58C136.44,47.21 137.75,48.64 139.4,48.64C140.64,48.64 141.98,47.74 141.98,47.18L141.98,46.1L138.86,46.1L138.86,45.24L143.03,45.24Z" style="fill:white;fill-rule:nonzero;"/>
    <defs>
        <linearGradient id="_Linear1" x1="0" y1="0" x2="1" y2="0" gradientUnits="userSpaceOnUse" gradientTransform="matrix(29.1,29.09,-29.09,29.1,8.85,12.36)"><stop offset="0" style="stop-color:rgb(94,57,23);stop-opacity:1"/><stop offset="0.1" style="stop-color:rgb(94,57,23);stop-opacity:1"/><stop offset="0.38" style="stop-color:rgb(171,118,45);stop-opacity:1"/><stop offset="0.56" style="stop-color:rgb(209,164,100);stop-opacity:1"/><stop offset="0.72" style="stop-color:rgb(209,164,98);stop-opacity:1"/><stop offset="0.76" style="stop-color:rgb(205,161,96);stop-opacity:1"/><stop offset="0.8" style="stop-color:rgb(196,152,89);stop-opacity:1"/><stop offset="0.83" style="stop-color:rgb(179,136,79);stop-opacity:1"/><stop offset="0.86" style="stop-color:rgb(156,115,64);stop-opacity:1"/><stop offset="0.89" style="stop-color:rgb(127,88,45);stop-opacity:1"/><stop offset="0.9" style="stop-color:rgb(113,75,37);stop-opacity:1"/><stop offset="1" style="stop-color:rgb(113,75,37);stop-opacity:1"/></linearGradient>
        <linearGradient id="_Linear2" x1="0" y1="0" x2="1" y2="0" gradientUnits="userSpaceOnUse" gradientTransform="matrix(771.258,728.326,-728.326,771.258,1609.53,118.595)"><stop offset="0" style="stop-color:rgb(94,57,23);stop-opacity:1"/><stop offset="0.1" style="stop-color:rgb(94,57,23);stop-opacity:1"/><stop offset="0.38" style="stop-color:rgb(171,118,45);stop-opacity:1"/><stop offset="0.56" style="stop-color:rgb(209,164,100);stop-opacity:1"/><stop offset="0.72" style="stop-color:rgb(209,164,98);stop-opacity:1"/><stop offset="0.76" style="stop-color:rgb(205,161,96);stop-opacity:1"/><stop offset="0.8" style="stop-color:rgb(196,152,89);stop-opacity:1"/><stop offset="0.83" style="stop-color:rgb(179,136,79);stop-opacity:1"/><stop offset="0.86" style="stop-color:rgb(156,115,64);stop-opacity:1"/><stop offset="0.89" style="stop-color:rgb(127,88,45);stop-opacity:1"/><stop offset="0.9" style="stop-color:rgb(113,75,37);stop-opacity:1"/><stop offset="1" style="stop-color:rgb(113,75,37);stop-opacity:1"/></linearGradient>
        <linearGradient id="_Linear3" x1="0" y1="0" x2="1" y2="0" gradientUnits="userSpaceOnUse" gradientTransform="matrix(1100.85,971.409,-971.409,1100.85,3128.19,105.056)"><stop offset="0" style="stop-color:rgb(94,57,23);stop-opacity:1"/><stop offset="0.1" style="stop-color:rgb(94,57,23);stop-opacity:1"/><stop offset="0.38" style="stop-color:rgb(171,118,45);stop-opacity:1"/><stop offset="0.56" style="stop-color:rgb(209,164,100);stop-opacity:1"/><stop offset="0.72" style="stop-color:rgb(209,164,98);stop-opacity:1"/><stop offset="0.76" style="stop-color:rgb(205,161,96);stop-opacity:1"/><stop offset="0.8" style="stop-color:rgb(196,152,89);stop-opacity:1"/><stop offset="0.83" style="stop-color:rgb(179,136,79);stop-opacity:1"/><stop offset="0.86" style="stop-color:rgb(156,115,64);stop-opacity:1"/><stop offset="0.89" style="stop-color:rgb(127,88,45);stop-opacity:1"/><stop offset="0.9" style="stop-color:rgb(113,75,37);stop-opacity:1"/><stop offset="1" style="stop-color:rgb(113,75,37);stop-opacity:1"/></linearGradient>
        <linearGradient id="_Linear4" x1="0" y1="0" x2="1" y2="0" gradientUnits="userSpaceOnUse" gradientTransform="matrix(1423.45,1087.15,-1087.15,1423.45,5290.47,40.4516)"><stop offset="0" style="stop-color:rgb(94,57,23);stop-opacity:1"/><stop offset="0.1" style="stop-color:rgb(94,57,23);stop-opacity:1"/><stop offset="0.38" style="stop-color:rgb(171,118,45);stop-opacity:1"/><stop offset="0.56" style="stop-color:rgb(209,164,100);stop-opacity:1"/><stop offset="0.72" style="stop-color:rgb(209,164,98);stop-opacity:1"/><stop offset="0.76" style="stop-color:rgb(205,161,96);stop-opacity:1"/><stop offset="0.8" style="stop-color:rgb(196,152,89);stop-opacity:1"/><stop offset="0.83" style="stop-color:rgb(179,136,79);stop-opacity:1"/><stop offset="0.86" style="stop-color:rgb(156,115,64);stop-opacity:1"/><stop offset="0.89" style="stop-color:rgb(127,88,45);stop-opacity:1"/><stop offset="0.9" style="stop-color:rgb(113,75,37);stop-opacity:1"/><stop offset="1" style="stop-color:rgb(113,75,37);stop-opacity:1"/></linearGradient>
    </defs>
</svg>
