<svg width="215" height="32" viewBox="0 0 215 32" fill="none" xmlns="http://www.w3.org/2000/svg">
<g clip-path="url(#clip0_7_85)">
<path d="M8.88673 1.0135V14.1615C9.65785 13.3603 10.5686 12.7068 11.5742 12.2332C12.5678 11.7851 13.6468 11.5587 14.7365 11.5696C16.2558 11.5449 17.7496 11.9624 19.0365 12.7714C20.3117 13.5929 21.3325 14.7546 21.9838 16.1256C22.7174 17.7088 23.079 19.4391 23.0409 21.1839C23.0874 23.1606 22.6507 25.1188 21.7688 26.8879C20.9898 28.4562 19.7807 29.7699 18.2831 30.6753C16.7854 31.5806 15.0612 32.0401 13.3121 32C11.4413 32.0932 9.60843 31.4493 8.20589 30.2063L4.69423 31.5068C4.14777 31.6951 3.7536 31.8117 3.51173 31.8745C3.28671 31.9356 3.05504 31.9687 2.82194 31.9731C2.70921 31.9891 2.59434 31.9788 2.48618 31.9433C2.37802 31.9077 2.27946 31.8477 2.1981 31.768C2.11674 31.6883 2.05475 31.5909 2.01691 31.4835C1.97907 31.376 1.96639 31.2612 1.97985 31.148V4.33189C1.97985 3.87449 1.80964 3.6144 1.46027 3.55162L0.564436 3.48884C0.419499 3.47539 0.28485 3.40808 0.187019 3.30018C0.0891891 3.19228 0.0352727 3.0516 0.035894 2.90588C0.035894 2.59198 0.277769 2.35879 0.752561 2.18839L6.27985 0.394669C6.78772 0.176253 7.32506 0.0342091 7.87444 -0.0268555C8.53735 5.03603e-05 8.88673 0.331889 8.88673 1.0135ZM12.1028 14.1346C11.4746 14.1557 10.8593 14.3183 10.3025 14.6102C9.74578 14.9021 9.26185 15.3158 8.88673 15.8207V28.7355C9.24371 29.1575 9.68835 29.4965 10.1896 29.7289C10.6909 29.9612 11.2368 30.0813 11.7892 30.0808C12.3991 30.0718 12.9957 29.901 13.5182 29.5859C14.0407 29.2708 14.4704 28.8226 14.7634 28.287C15.5458 27.0554 15.934 24.9268 15.928 21.9014C15.928 19.2108 15.5696 17.2018 14.853 15.9911C14.6121 15.4564 14.2272 14.9995 13.7414 14.6716C13.2556 14.3436 12.6882 14.1577 12.1028 14.1346ZM42.8926 19.5875C42.8926 20.7086 42.3103 21.2646 41.1546 21.2646H29.9299C30.0356 23.0342 30.7919 24.7019 32.053 25.9462C33.2654 26.9893 34.8273 27.5341 36.4246 27.4709C37.5729 27.5058 38.7081 27.2201 39.7034 26.6458C40.5988 26.0988 41.2741 25.2545 41.6115 24.2601C41.9251 23.9014 42.1669 23.731 42.3461 23.731C42.6686 23.731 42.8209 23.9911 42.8119 24.5113C42.7915 25.8316 42.3627 27.1132 41.5846 28.1794C40.7471 29.3126 39.638 30.2163 38.3596 30.8072C36.8976 31.4817 35.3019 31.8159 33.6924 31.7848C31.8742 31.8207 30.0759 31.4014 28.4607 30.5651C26.9683 29.7831 25.7263 28.5956 24.8774 27.1391C23.981 25.5777 23.5287 23.8005 23.5694 22.0001C23.5258 20.062 23.9596 18.143 24.8326 16.4126C25.637 14.845 26.8828 13.5478 28.4159 12.6817C30.1307 11.7775 32.0509 11.3355 33.988 11.3992C35.654 11.3511 37.3062 11.7146 38.7986 12.4574C40.0749 13.1167 41.1329 14.1323 41.8444 15.3812C42.5521 16.6686 42.9133 18.1181 42.8926 19.5875ZM29.8224 19.3722V20.0449H35.269C35.3727 20.0608 35.4786 20.0525 35.5785 20.0207C35.6784 19.9889 35.7697 19.9344 35.8451 19.8615C35.9206 19.7886 35.9782 19.6992 36.0134 19.6003C36.0487 19.5015 36.0606 19.3958 36.0484 19.2915C36.1385 17.6288 35.8314 15.9686 35.1526 14.4485C34.9874 14.0354 34.7136 13.6748 34.3604 13.4048C34.0071 13.1348 33.5874 12.9655 33.1459 12.9148C32.6462 12.9312 32.161 13.0867 31.7448 13.364C31.3286 13.6413 30.9979 14.0292 30.7899 14.4844C30.0606 16.0058 29.7277 17.6873 29.8224 19.3722ZM70.2513 27.2018C70.2382 26.3748 70.4392 25.5585 70.8348 24.8324C71.2304 24.1062 71.8072 23.495 72.5088 23.0583C74.0138 22.024 76.2653 21.5098 79.2634 21.5157C80.0866 21.4994 80.9078 21.6052 81.7001 21.8296V15.148C81.7462 14.503 81.5514 13.8638 81.1536 13.3543C80.9666 13.1389 80.7332 12.9688 80.4709 12.8569C80.2086 12.7451 79.9244 12.6943 79.6396 12.7086C79.0967 12.6764 78.5609 12.8457 78.1346 13.1839C77.9664 13.3275 77.8319 13.5064 77.7405 13.7079C77.6492 13.9094 77.6033 14.1286 77.6061 14.3498V16.3678C77.6211 16.7917 77.5403 17.2135 77.3697 17.6017C77.199 17.99 76.943 18.3346 76.6207 18.6099C75.8781 19.21 74.9399 19.5135 73.9869 19.4619C72.1236 19.4619 71.1919 18.6189 71.1919 16.9418C71.2329 16.0095 71.6156 15.125 72.2669 14.4575C73.1432 13.5207 74.235 12.8125 75.4471 12.3947C77.1377 11.7991 78.9232 11.5194 80.7146 11.5696C83.3544 11.5696 85.3252 12.0897 86.6271 13.1301C87.2683 13.6445 87.7787 14.3036 88.1165 15.0534C88.4544 15.8031 88.6102 16.6224 88.5711 17.444V28.027C88.5711 28.7714 88.7144 30.0718 89.2878 30.0718C89.8611 30.0718 91.1332 30.2691 91.7513 29.8835C91.8678 29.7131 92.6471 31.4978 91.6438 31.4978H89.1176C88.3203 31.4978 87.4782 31.9821 86.3405 31.9821C85.337 32.0349 84.3385 31.8083 83.4559 31.3274C83.1324 31.1491 82.8513 30.9029 82.6317 30.6057C82.4122 30.3085 82.2594 29.9673 82.1838 29.6054C81.4408 30.406 80.5202 31.0205 79.4963 31.3992C78.4323 31.8056 77.3026 32.0123 76.1638 32.009C74.6198 32.0809 73.1 31.6044 71.8728 30.6637C71.3512 30.2535 70.9329 29.7268 70.6513 29.1256C70.3698 28.5244 70.2328 27.8656 70.2513 27.2018ZM77.1582 26.1077C77.0897 26.9967 77.3407 27.8809 77.8659 28.6009C78.0823 28.8664 78.3559 29.0793 78.6662 29.2237C78.9765 29.3682 79.3154 29.4404 79.6576 29.435C80.3912 29.431 81.1017 29.1781 81.6732 28.7175V22.9328C81.1221 22.7323 80.5396 22.632 79.9532 22.6368C79.5624 22.6156 79.1721 22.6856 78.813 22.8413C78.4539 22.9969 78.1358 23.2339 77.8838 23.5337C77.3451 24.2786 77.088 25.1907 77.1582 26.1077Z" fill="#E3E3E3"/>
<path d="M97.9325 1.0135V28.8162C97.9325 29.4799 98.1296 29.8655 98.5237 29.9731L99.7152 30.1794C100.1 30.314 100.289 30.5292 100.289 30.8341C100.289 31.1391 100.011 31.4888 99.4464 31.4888H89.8879C89.3414 31.4888 89.0637 31.2736 89.0637 30.8341C89.0637 30.5382 89.2608 30.3229 89.655 30.1794L90.4343 29.9731C90.8196 29.8476 91.0166 29.4619 91.0166 28.8162V4.33189C91.0166 3.87449 90.8464 3.6144 90.4971 3.55162L89.6012 3.48884C89.2429 3.40812 89.0727 3.21081 89.0727 2.90588C89.0727 2.60095 89.3056 2.35879 89.7894 2.18839L95.3166 0.394669C95.8242 0.175243 96.3617 0.033159 96.9112 -0.0268555C97.5831 5.03585e-05 97.9325 0.331889 97.9325 1.0135Z" fill="#E3E3E3"/>
<path d="M108.163 1.0135V28.8162C108.163 29.4799 108.36 29.8655 108.754 29.9731L109.955 30.1794C110.331 30.314 110.519 30.5292 110.519 30.8341C110.519 31.1391 110.241 31.4888 109.677 31.4888H99.6973C99.1508 31.4888 98.8821 31.2736 98.8821 30.8341C98.8821 30.5382 99.0792 30.3229 99.4644 30.1794L100.665 29.9731C101.059 29.8476 101.256 29.4619 101.256 28.8162V4.33189C101.256 3.87449 101.077 3.6144 100.728 3.55162L99.8317 3.48884C99.6867 3.47539 99.5521 3.40808 99.4543 3.30018C99.3564 3.19228 99.3025 3.0516 99.3031 2.90588C99.3031 2.59198 99.545 2.35879 100.02 2.18839L105.547 0.394669C106.055 0.176253 106.592 0.0342091 107.142 -0.0268555C107.814 5.03585e-05 108.163 0.331889 108.163 1.0135Z" fill="#E3E3E3"/>
<path d="M118.25 12.3678V28.8431C118.25 29.441 118.456 29.8267 118.868 30.0001L119.621 30.2063C119.774 30.2438 119.911 30.331 120.01 30.4542C120.108 30.5775 120.164 30.7299 120.167 30.8879C120.167 31.3005 119.898 31.5158 119.37 31.5158H109.865C109.336 31.5158 109.068 31.3005 109.068 30.8879C109.076 30.7338 109.13 30.5858 109.225 30.4639C109.319 30.342 109.449 30.2521 109.596 30.2063L110.815 30.0001C111.209 29.8446 111.406 29.459 111.406 28.8431V15.8835C111.433 15.7106 111.393 15.5338 111.295 15.389C111.197 15.2441 111.048 15.142 110.877 15.1032H109.981C109.632 14.9956 109.453 14.7983 109.453 14.5202C109.453 14.2422 109.695 13.9911 110.17 13.8207L116.1 12.027L116.906 11.7848C117.109 11.737 117.316 11.7129 117.524 11.7131C117.616 11.7044 117.708 11.7148 117.795 11.7436C117.882 11.7725 117.963 11.8192 118.031 11.8808C118.099 11.9423 118.154 12.0174 118.192 12.1012C118.229 12.1851 118.249 12.2758 118.25 12.3678Z" fill="#E3E3E3"/>
<path d="M119.513 27.2018C119.5 26.3748 119.701 25.5585 120.097 24.8323C120.492 24.1062 121.069 23.495 121.771 23.0583C123.276 22.0269 125.533 21.5157 128.525 21.5157C129.351 21.4994 130.176 21.6052 130.971 21.8296V15.148C131.009 14.5038 130.816 13.8672 130.424 13.3543C130.237 13.1388 130.004 12.9688 129.742 12.8569C129.479 12.745 129.195 12.6943 128.91 12.7086C128.367 12.6764 127.832 12.8456 127.405 13.1839C127.234 13.3253 127.097 13.5036 127.004 13.7054C126.911 13.9073 126.864 14.1275 126.868 14.3498V16.3677C126.885 16.791 126.806 17.2126 126.636 17.6009C126.467 17.9892 126.213 18.3341 125.891 18.6099C125.147 19.207 124.21 19.5101 123.258 19.4619C121.394 19.4619 120.463 18.6189 120.463 16.9417C120.505 16.0114 120.884 15.1282 121.529 14.4574C122.41 13.5225 123.504 12.8148 124.718 12.3946C126.406 11.7998 128.188 11.5201 129.976 11.5695C132.628 11.5695 134.602 12.0897 135.898 13.1301C136.537 13.6459 137.047 14.3052 137.384 15.0547C137.722 15.8041 137.879 16.6226 137.842 17.444V28.0269C137.842 28.7713 138.111 29.139 139.078 29.139C140.046 29.139 140.225 28.87 140.413 28.3229C140.451 28.2518 140.506 28.1915 140.573 28.1476C140.641 28.1036 140.718 28.0776 140.798 28.0718C141.049 28.0718 141.174 28.2332 141.174 28.574C141.174 28.9148 141.81 31.4978 141.174 31.4978H139.293C137.985 31.4978 136.749 31.9821 135.611 31.9821C134.608 32.0382 133.608 31.8114 132.727 31.3274C132.402 31.1505 132.12 30.9048 131.9 30.6073C131.681 30.3099 131.528 29.9679 131.455 29.6054C130.712 30.406 129.791 31.0205 128.767 31.3991C127.703 31.8056 126.573 32.0123 125.435 32.009C123.888 32.0792 122.366 31.603 121.135 30.6637C120.615 30.2521 120.197 29.7251 119.916 29.1242C119.635 28.5234 119.497 27.8652 119.513 27.2018ZM126.429 26.1077C126.36 26.9966 126.611 27.8809 127.137 28.6009C127.353 28.8669 127.626 29.0801 127.937 29.2246C128.247 29.3691 128.586 29.4411 128.928 29.435C129.665 29.4323 130.379 29.1793 130.953 28.7175V22.9328C130.399 22.7323 129.813 22.6321 129.224 22.6368C128.833 22.6177 128.444 22.6886 128.085 22.8441C127.726 22.9996 127.408 23.2355 127.155 23.5337C126.619 24.2803 126.363 25.1911 126.429 26.1077Z" fill="#E3E3E3"/>
<path d="M147.32 12.6009V15.3542C148.529 14.2439 149.86 13.275 151.288 12.4663C152.257 11.9133 153.345 11.6054 154.46 11.5695C155.132 11.535 155.803 11.6526 156.423 11.9135C157.043 12.1743 157.597 12.5717 158.043 13.0762C158.979 14.2912 159.528 15.7599 159.62 17.2914L160.874 28.7982C160.945 29.5067 161.16 29.9103 161.51 30.0179L162.262 30.2062C162.63 30.3497 162.809 30.565 162.809 30.861C162.809 31.3004 162.54 31.5157 161.994 31.5157H152.865C152.268 31.5157 151.969 31.2914 151.969 30.843C151.974 30.6997 152.023 30.5615 152.11 30.4474C152.196 30.3333 152.316 30.249 152.453 30.2062L153.232 30C153.439 29.939 153.618 29.8053 153.734 29.6233C153.858 29.3671 153.896 29.0776 153.841 28.7982L152.766 18.1793C152.728 17.3876 152.481 16.6201 152.05 15.9551C151.854 15.708 151.6 15.5127 151.311 15.386C151.022 15.2594 150.707 15.2054 150.393 15.2287C149.276 15.315 148.23 15.8099 147.454 16.6188L147.284 16.7713V28.843C147.284 29.4409 147.481 29.8266 147.875 30L148.708 30.2332C148.842 30.2778 148.959 30.3631 149.043 30.4772C149.126 30.5913 149.172 30.7285 149.174 30.8699C149.174 31.3184 148.896 31.5426 148.332 31.5426H139.293C138.747 31.5426 138.469 31.3273 138.469 30.8879C138.469 30.5919 138.657 30.3766 139.015 30.2332L139.84 30.0269C140.216 29.9013 140.404 29.5157 140.404 28.8699V15.9282C140.404 15.4619 140.234 15.2018 139.884 15.1479L138.989 15.0852C138.847 15.0654 138.718 14.9941 138.625 14.885C138.532 14.7758 138.483 14.6364 138.487 14.4932C138.487 14.1973 138.72 13.9641 139.177 13.7758L144.704 11.982L145.663 11.6681C145.883 11.5981 146.112 11.5618 146.343 11.5605C146.481 11.5462 146.619 11.5638 146.749 11.612C146.878 11.6602 146.995 11.7377 147.089 11.8384C147.184 11.9391 147.254 12.0603 147.294 12.1926C147.334 12.3248 147.343 12.4646 147.32 12.6009Z" fill="#E3E3E3"/>
<path d="M180.063 17.3184C180.077 17.738 180.005 18.1561 179.851 18.5466C179.697 18.937 179.464 19.2914 179.167 19.5875C178.838 19.894 178.452 20.1313 178.03 20.2854C177.609 20.4394 177.16 20.5071 176.712 20.4844C176.281 20.5076 175.851 20.4397 175.448 20.2852C175.045 20.1306 174.679 19.8929 174.374 19.5875C173.801 18.9404 173.508 18.0921 173.559 17.2288V16.0539C173.607 15.2865 173.374 14.5277 172.905 13.9193C172.692 13.6658 172.424 13.4645 172.121 13.3308C171.818 13.1971 171.489 13.1346 171.158 13.148C170.632 13.1684 170.121 13.3309 169.679 13.6182C169.238 13.9056 168.882 14.3071 168.65 14.7803C167.909 16.2086 167.565 17.8102 167.655 19.4171C167.655 22.0539 168.252 24.0598 169.447 25.435C169.992 26.0927 170.677 26.6196 171.452 26.9766C172.227 27.3336 173.073 27.5118 173.926 27.4978C174.955 27.5245 175.975 27.3031 176.9 26.8521C177.754 26.4171 178.443 25.7149 178.862 24.8521C179.185 24.5023 179.444 24.3319 179.641 24.3319C179.839 24.3319 180.098 24.6009 180.08 25.1032C179.961 26.4037 179.483 27.6454 178.701 28.6906C177.887 29.7573 176.814 30.5972 175.583 31.1301C174.189 31.7512 172.675 32.0574 171.149 32.027C169.396 32.0596 167.661 31.6624 166.096 30.87C164.637 30.116 163.424 28.9579 162.603 27.5337C161.709 25.9396 161.266 24.132 161.322 22.305C161.286 20.3804 161.742 18.4785 162.648 16.7803C163.501 15.1897 164.779 13.8672 166.338 12.9597C168.027 12.0006 169.943 11.5172 171.884 11.5606C174.03 11.4295 176.158 12.0198 177.93 13.2377C178.587 13.6968 179.123 14.3072 179.494 15.0174C179.865 15.7277 180.06 16.5169 180.063 17.3184ZM199.636 19.5875C199.636 20.7086 199.054 21.2646 197.845 21.2646H186.665C186.771 23.0342 187.527 24.7019 188.788 25.9462C190 26.9893 191.562 27.5341 193.16 27.4709C194.308 27.5058 195.443 27.2201 196.438 26.6458C197.337 26.1004 198.016 25.2559 198.355 24.2601C198.66 23.9014 198.902 23.731 199.09 23.731C199.278 23.731 199.565 23.9911 199.547 24.5113C199.526 25.8316 199.098 27.1132 198.32 28.1794C197.486 29.3166 196.376 30.2213 195.095 30.8072C193.633 31.4826 192.037 31.8169 190.427 31.7848C188.609 31.8195 186.811 31.4003 185.196 30.5651C183.703 29.7831 182.461 28.5956 181.612 27.1391C180.719 25.5768 180.27 23.7996 180.313 22.0001C180.267 20.0627 180.698 18.1438 181.568 16.4126C182.375 14.8468 183.62 13.5503 185.151 12.6817C186.866 11.7775 188.786 11.3355 190.723 11.3992C192.389 11.3489 194.042 11.7125 195.534 12.4574C196.812 13.1141 197.87 14.1304 198.579 15.3812C199.294 16.6664 199.658 18.1169 199.636 19.5875ZM186.566 19.3722V20.0449H192.004C192.108 20.0608 192.214 20.0525 192.313 20.0207C192.413 19.9889 192.505 19.9344 192.58 19.8615C192.656 19.7886 192.713 19.6992 192.748 19.6003C192.784 19.5015 192.796 19.3958 192.783 19.2915C192.873 17.6288 192.566 15.9686 191.888 14.4485C191.718 14.0229 191.432 13.6536 191.063 13.3825C190.694 13.1113 190.257 12.9493 189.8 12.9148C189.301 12.9312 188.815 13.0867 188.399 13.364C187.983 13.6413 187.652 14.0292 187.444 14.4844C186.74 16.012 186.438 17.6947 186.566 19.3722ZM51.4477 1.0135V28.8162C51.4477 29.4799 51.6448 29.8655 52.039 29.9731L53.2394 30.1794C53.6156 30.314 53.8038 30.5292 53.8038 30.8341C53.8038 31.1391 53.5261 31.4888 52.9617 31.4888H43.4031C42.8567 31.4888 42.579 31.2736 42.579 30.8341C42.579 30.5382 42.7761 30.3229 43.1702 30.1794L43.9496 29.9731C44.3438 29.8476 44.5409 29.4619 44.5409 28.8162V4.33189C44.5409 3.87449 44.3617 3.6144 44.0123 3.55162L43.1165 3.48884C42.9715 3.47539 42.8369 3.40808 42.7391 3.30018C42.6412 3.19228 42.5873 3.0516 42.5879 2.90588C42.5879 2.59198 42.8298 2.35879 43.3046 2.18839L48.8319 0.394669C49.3398 0.176253 49.8771 0.0342091 50.4265 -0.0268555C51.0625 5.03603e-05 51.4477 0.331889 51.4477 1.0135Z" fill="#E3E3E3"/>
<path d="M61.6871 1.0135V28.8162C61.6871 29.4799 61.8842 29.8655 62.2694 29.9731L63.4698 30.1794C63.8461 30.314 64.0342 30.5292 64.0342 30.8341C64.0342 31.1391 63.7565 31.4888 63.2011 31.4888H53.2125C52.6661 31.4888 52.3973 31.2736 52.3973 30.8341C52.3973 30.5382 52.5944 30.3229 52.9886 30.1794L54.18 29.9731C54.5742 29.8476 54.7713 29.4619 54.7713 28.8162V4.33189C54.7713 3.87449 54.5921 3.6144 54.2428 3.55162L53.3469 3.48884C53.202 3.47539 53.0673 3.40808 52.9695 3.30018C52.8717 3.19228 52.8178 3.0516 52.8184 2.90588C52.8184 2.59198 53.0603 2.35879 53.535 2.18839L59.0623 0.394669C59.5705 0.177237 60.1077 0.035232 60.6569 -0.0268555C61.3378 5.03585e-05 61.6871 0.331889 61.6871 1.0135Z" fill="#E3E3E3"/>
<path d="M114.98 10.5022C114.195 10.5022 113.428 10.2692 112.775 9.83263C112.123 9.39606 111.614 8.77555 111.314 8.04956C111.013 7.32358 110.935 6.52472 111.088 5.75401C111.241 4.98331 111.619 4.27537 112.174 3.71972C112.729 3.16408 113.436 2.78568 114.206 2.63237C114.976 2.47907 115.774 2.55775 116.499 2.85847C117.224 3.15918 117.844 3.66842 118.28 4.32179C118.716 4.97517 118.949 5.74332 118.949 6.52913C118.949 7.05088 118.846 7.56753 118.647 8.04956C118.447 8.5316 118.155 8.96959 117.786 9.33853C117.418 9.70746 116.98 10.0001 116.499 10.1998C116.017 10.3995 115.501 10.5022 114.98 10.5022ZM114.98 3.39908C114.362 3.39908 113.757 3.58266 113.243 3.92659C112.729 4.27052 112.328 4.75937 112.092 5.33131C111.855 5.90325 111.793 6.5326 111.914 7.13977C112.035 7.74694 112.332 8.30466 112.77 8.7424C113.207 9.18015 113.764 9.47826 114.37 9.59903C114.977 9.7198 115.605 9.65782 116.177 9.42091C116.748 9.184 117.236 8.78282 117.58 8.26809C117.923 7.75335 118.107 7.14819 118.107 6.52913C118.097 5.70439 117.764 4.9165 117.179 4.33581C116.594 3.75512 115.804 3.42829 114.98 3.42599V3.39908Z" fill="#A1A1A1"/>
<path d="M203.659 30.3408H205.388V31.2376H202.7V27.1659H203.677L203.659 30.3408ZM208.183 30.3408H209.912V31.2376H207.224V27.1659H208.192L208.183 30.3408ZM212.707 30.0179V31.2107H211.739V27.1659H213.423C214.489 27.1659 215 27.6592 215 28.6098C215.002 28.8079 214.963 29.0042 214.884 29.1858C214.805 29.3674 214.688 29.5301 214.542 29.6632C214.395 29.7963 214.222 29.8968 214.034 29.9579C213.846 30.0191 213.647 30.0395 213.45 30.0179H212.707ZM212.707 27.991V29.2376H213.343C213.844 29.2376 214.041 29.0314 214.041 28.6098C214.041 28.1883 213.853 27.991 213.334 27.991H212.707Z" fill="#E3E3E3"/>
</g>
<defs>
<clipPath id="clip0_7_85">
<rect width="215" height="32" fill="white"/>
</clipPath>
</defs>
</svg>
