<?xml version="1.0" encoding="UTF-8" standalone="no"?>
<!DOCTYPE svg PUBLIC "-//W3C//DTD SVG 1.1//EN" "http://www.w3.org/Graphics/SVG/1.1/DTD/svg11.dtd">
<svg width="100%" height="100%" viewBox="0 0 165 44" version="1.1" xmlns="http://www.w3.org/2000/svg" xmlns:xlink="http://www.w3.org/1999/xlink" xml:space="preserve" xmlns:serif="http://www.serif.com/" style="fill-rule:evenodd;clip-rule:evenodd;stroke-linejoin:round;stroke-miterlimit:2;">
    <g>
        <g transform="matrix(0.79864,0,0,0.79864,82.7317,22.0943)">
            <g transform="matrix(1,0,0,1,-103,-27.5)">
                <clipPath id="_clip1">
                    <rect x="0" y="0" width="206" height="55"/>
                </clipPath>
                <g clip-path="url(#_clip1)">
                    <g>
                        <path d="M67.635,3.607C56.37,0.178 45.725,-1.17 32.7,1.174C20.25,3.415 2.962,10.592 0.58,26.322C-0.704,34.801 -0.191,41.026 5.56,47.735C13.03,56.45 38.307,58.339 57.6,47.237L67.062,31.053C54.582,34.595 44.901,40.047 34.693,38.772C14.774,36.282 25.978,21.84 34.693,20.097C44.228,18.19 63.078,21.342 63.078,21.342L67.635,3.607Z" style="fill:rgb(206,30,65);fill-rule:nonzero;"/>
                        <path d="M67.635,3.607C56.37,0.178 45.725,-1.17 32.7,1.174C20.25,3.415 2.962,10.592 0.58,26.322C-0.704,34.801 -0.191,41.026 5.56,47.735C13.03,56.45 38.307,58.339 57.6,47.237L67.062,31.053C54.582,34.595 44.901,40.047 34.693,38.772C14.774,36.282 25.978,21.84 34.693,20.097C44.228,18.19 63.078,21.342 63.078,21.342L67.635,3.607Z" style="fill:none;fill-rule:nonzero;"/>
                        <path d="M53.396,53.712L57.615,47.237C71.281,39.376 96.901,32.358 112.703,29.017L114.648,36.225L118.632,27.759C121.077,27.321 154.801,20.402 190.189,23.334L188.445,28.314L190.064,28.936L191.682,23.957L193.081,24.772L194.948,53.712L173.534,53.712L172.29,35.105L158.595,53.712L146.394,53.712L139.173,33.362L129.96,53.712L95.6,53.712L93.857,45.314L82.653,45.314L77.673,53.712L53.396,53.712Z" style="fill:rgb(35,31,32);fill-rule:nonzero;"/>
                        <path d="M106.681,1.174L86.981,1.174L67.311,30.804C79.938,29.625 94.938,28.063 111.178,23.527" style="fill:rgb(206,30,65);fill-rule:nonzero;"/>
                        <path d="M156.48,19.275C145.131,19.786 137.176,22.08 121.375,22.613L130.833,1.174L149.756,1.174L156.48,19.275Z" style="fill:rgb(206,30,65);fill-rule:nonzero;"/>
                        <path d="M183.84,19.102C176.594,18.798 176.369,18.604 160.449,19.351L173.133,1.174L192.086,1.174L192.226,6.222L189.816,14.246L186.952,10.138L186.081,11.881L182.969,10.511L183.372,13.816L181.6,14.619L183.84,19.102Z" style="fill:rgb(206,30,65);fill-rule:nonzero;"/>
                        <path d="M193.097,24.772L192.226,6.688L194.049,7.523L197.16,4.162L198.281,9.142L200.521,8.271L198.061,15.435L202.916,14.19L202.639,16.114L206,16.611L203.51,19.226L205.004,21.093L196.941,24.274L198.281,27.443L193.097,24.772Z" style="fill:rgb(206,30,65);fill-rule:nonzero;"/>
                        <path d="M192.23,6.22L189.82,14.25L186.95,10.14L186.08,11.88L182.97,10.51L183.37,13.82L181.6,14.62L183.84,19.1C183.62,19.09 183.4,19.08 183.2,19.07C182.57,19.04 182,19.02 181.46,18.99C181.1,18.98 180.76,18.96 180.43,18.95C180.26,18.94 180.1,18.94 179.94,18.93C178.68,18.88 177.39,18.85 176.1,18.83L175.75,18.83C170.87,18.74 165.83,18.82 160.69,19.01C159.29,19.06 157.87,19.12 156.45,19.19C152.86,19.36 149.23,19.59 145.61,19.87C145.46,19.87 145.31,19.88 145.16,19.9C143.97,19.99 142.78,20.09 141.6,20.18C140.46,20.28 139.32,20.38 138.17,20.48C137.37,20.55 136.57,20.63 135.77,20.71C134.83,20.79 133.9,20.89 132.97,20.98C131.24,21.15 129.53,21.33 127.82,21.52C126.68,21.64 125.55,21.77 124.42,21.9C119.71,22.44 115.12,23.02 110.71,23.62C110.17,23.69 109.64,23.76 109.11,23.84C106.7,24.17 104.36,24.5 102.09,24.84C101.1,24.98 100.13,25.13 99.17,25.28C97.95,25.46 96.75,25.64 95.58,25.83C94.65,25.97 93.73,26.12 92.83,26.26C90.87,26.57 89,26.88 87.23,27.18C86.83,27.25 86.43,27.31 86.04,27.38C85.64,27.45 85.25,27.51 84.87,27.58C84.49,27.64 84.11,27.71 83.74,27.77C80.38,28.35 77.45,28.87 75.02,29.32C74.54,29.41 74.09,29.49 73.65,29.58C73.09,29.68 72.57,29.78 72.09,29.87C71.87,29.91 71.66,29.95 71.46,29.99C69.8,30.3 68.61,30.54 67.94,30.67C67.87,30.69 67.8,30.7 67.74,30.71C67.63,30.73 67.52,30.75 67.41,30.78C67.38,30.78 67.34,30.79 67.31,30.8L67.06,31.05L57.63,47.19L57.62,47.24C71.28,39.38 96.9,32.36 112.7,29.02L114.65,36.23L118.63,27.76C121.08,27.32 154.8,20.4 190.19,23.33L188.45,28.31L190.06,28.94L191.68,23.96L193.08,24.77M206,16.61L203.51,19.23" style="fill:white;fill-rule:nonzero;"/>
                    </g>
                </g>
            </g>
        </g>
    </g>
</svg>
