<svg width="165" height="44" viewBox="0 0 165 44" fill="none" xmlns="http://www.w3.org/2000/svg">
<g clip-path="url(#clip0_7_163)">
<path d="M54.1735 2.88565C45.1506 0.142447 36.6242 -0.935954 26.1916 0.939246C16.2195 2.73205 2.3723 8.47365 0.464384 21.0576C-0.564063 27.8408 -0.153165 32.8208 4.45322 38.188C10.4365 45.16 30.6826 46.6712 46.1357 37.7896L53.7145 24.8424C43.7184 27.676 35.9642 32.0376 27.7879 31.0176C11.8334 29.0256 20.8074 17.472 27.7879 16.0776C35.4252 14.552 50.5235 17.0736 50.5235 17.0736L54.1735 2.88565Z" fill="#B3B3B3"/>
<path d="M42.7686 42.9697L46.1479 37.7897C57.0939 31.5009 77.6148 25.8865 90.2717 23.2137L91.8296 28.9801L95.0207 22.2073C96.9791 21.8569 123.991 16.3217 152.336 18.6673L150.939 22.6513L152.236 23.1489L153.532 19.1657L154.652 19.8177L156.148 42.9697H138.996L137.999 28.0841L127.03 42.9697H117.257L111.473 26.6897L104.094 42.9697H76.5727L75.1766 36.2513H66.2026L62.2137 42.9697H42.7686Z" fill="#6C6C6C"/>
<path d="M85.4483 0.939209H69.6692L53.9141 24.6432C64.0279 23.7 76.0425 22.4504 89.0503 18.8216" fill="#B3B3B3"/>
<path d="M125.336 15.42C116.246 15.8288 109.874 17.664 97.2178 18.0904L104.793 0.939209H119.95L125.336 15.42Z" fill="#B3B3B3"/>
<path d="M147.25 15.2816C141.447 15.0384 141.266 14.8832 128.515 15.4808L138.674 0.939209H153.855L153.967 4.97761L152.037 11.3968L149.743 8.11041L149.045 9.50481L146.553 8.40881L146.876 11.0528L145.456 11.6952L147.25 15.2816Z" fill="#B3B3B3"/>
<path d="M154.665 19.8176L153.967 5.35039L155.427 6.01839L157.919 3.32959L158.817 7.31359L160.611 6.61679L158.641 12.348L162.53 11.352L162.308 12.8912L165 13.2888L163.005 15.3808L164.202 16.8744L157.744 19.4192L158.817 21.9544L154.665 19.8176Z" fill="#B3B3B3"/>
<path d="M153.971 4.97607L152.04 11.4001L149.741 8.11207L149.045 9.50407L146.554 8.40807L146.874 11.0561L145.456 11.6961L147.25 15.2801C147.074 15.2721 146.898 15.2641 146.738 15.2561C146.233 15.2321 145.777 15.2161 145.344 15.1921C145.056 15.1841 144.783 15.1681 144.519 15.1601C144.383 15.1521 144.255 15.1521 144.127 15.1441C143.117 15.1041 142.084 15.0801 141.051 15.0641H140.771C136.862 14.9921 132.825 15.0561 128.708 15.2081C127.587 15.2481 126.449 15.2961 125.312 15.3521C122.436 15.4881 119.529 15.6721 116.629 15.8961C116.509 15.8961 116.389 15.9041 116.269 15.9201C115.316 15.9921 114.363 16.0721 113.417 16.1441C112.504 16.2241 111.591 16.3041 110.67 16.3841C110.029 16.4401 109.389 16.5041 108.748 16.5681C107.995 16.6321 107.25 16.7121 106.505 16.7841C105.119 16.9201 103.75 17.0641 102.38 17.2161C101.467 17.3121 100.562 17.4161 99.6567 17.5201C95.8841 17.9521 92.2077 18.4161 88.6754 18.8961C88.2429 18.9521 87.8184 19.0081 87.3938 19.0721C85.4635 19.3361 83.5892 19.6001 81.771 19.8721C80.9781 19.9841 80.2011 20.1041 79.4322 20.2241C78.455 20.3681 77.4938 20.5121 76.5567 20.6641C75.8118 20.7761 75.0749 20.8961 74.354 21.0081C72.7841 21.2561 71.2863 21.5041 69.8686 21.7441C69.5482 21.8001 69.2278 21.8481 68.9154 21.9041C68.5951 21.9601 68.2827 22.0081 67.9783 22.0641C67.6739 22.1121 67.3696 22.1681 67.0732 22.2161C64.382 22.6801 62.0351 23.0961 60.0887 23.4561C59.7043 23.5281 59.3438 23.5921 58.9914 23.6641C58.5429 23.7441 58.1264 23.8241 57.7419 23.8961C57.5657 23.9281 57.3975 23.9601 57.2373 23.9921C55.9077 24.2401 54.9545 24.4321 54.4179 24.5361C54.3618 24.5521 54.3057 24.5601 54.2577 24.5681C54.1696 24.5841 54.0815 24.6001 53.9934 24.6241C53.9693 24.6241 53.9373 24.6321 53.9133 24.6401L53.713 24.8401L46.1599 37.7521L46.1519 37.7921C57.0931 31.5041 77.614 25.8881 90.2693 23.2161L91.8312 28.9841L95.0191 22.2081C96.9815 21.8561 123.99 16.3201 152.337 18.6641L150.943 22.6481L152.232 23.1521L153.53 19.1681L154.651 19.8161M165 13.2881L163.005 15.3841L165 13.2881Z" fill="#E3E3E3"/>
</g>
<defs>
<clipPath id="clip0_7_163">
<rect width="165" height="44" fill="white"/>
</clipPath>
</defs>
</svg>
