<svg width="127" height="127" viewBox="0 0 127 127" fill="none" xmlns="http://www.w3.org/2000/svg">
<g clip-path="url(#clip0_7_129)">
<path d="M63.4959 126.992C50.9353 126.993 38.6564 123.27 28.212 116.293C17.7676 109.316 9.62685 99.3977 4.8194 87.7935C0.0119406 76.1894 -1.24632 63.4202 1.20374 51.1009C3.6538 38.7815 9.70213 27.4655 18.5838 18.5838C27.4655 9.70213 38.7815 3.6538 51.1009 1.20374C63.4202 -1.24632 76.1894 0.0119406 87.7935 4.8194C99.3977 9.62685 109.316 17.7676 116.293 28.212C123.27 38.6564 126.993 50.9353 126.992 63.4959C126.971 80.3296 120.274 96.4678 108.371 108.371C96.4678 120.274 80.3296 126.971 63.4959 126.992ZM63.4959 1.02221C51.1398 1.02221 39.0611 4.68623 28.7874 11.5509C18.5136 18.4156 10.5062 28.1727 5.77774 39.5883C1.04926 51.0038 -0.187932 63.5652 2.22263 75.6839C4.63319 87.8026 10.5832 98.9344 19.3203 107.671C28.0574 116.409 39.1892 122.359 51.3079 124.769C63.4266 127.18 75.988 125.943 87.4035 121.214C98.8191 116.486 108.576 108.478 115.441 98.2044C122.306 87.9307 125.97 75.852 125.97 63.4959C125.948 46.9341 119.359 31.0567 107.648 19.3465C95.9359 7.63626 80.0577 1.04922 63.4959 1.0302V1.02221Z" fill="#E3E3E3"/>
<path d="M26.6284 35.0067C26.2148 35.1713 25.8553 35.4479 25.5901 35.8054C25.405 36.0263 25.2677 36.2833 25.1869 36.56C25.1062 36.8367 25.0837 37.1272 25.1209 37.4131C25.158 37.6989 25.2541 37.9739 25.403 38.2208C25.5519 38.4676 25.7504 38.6809 25.9859 38.8471C26.2214 39.0134 26.4888 39.1289 26.7712 39.1866C27.0537 39.2442 27.345 39.2426 27.6268 39.182C27.9086 39.1213 28.1748 39.0028 28.4085 38.8341C28.6422 38.6653 28.8383 38.4499 28.9845 38.2015C29.2447 37.8348 29.3994 37.4039 29.4318 36.9555L30.1826 37.0194C30.1553 37.6171 29.9555 38.194 29.6075 38.6807C29.3878 38.9869 29.1099 39.2469 28.7897 39.4458C28.4694 39.6447 28.1132 39.7785 27.7413 39.8397C26.9901 39.9633 26.2206 39.7834 25.6021 39.3396C24.9835 38.8958 24.5666 38.2245 24.4431 37.4733C24.3195 36.7222 24.4994 35.9527 24.9431 35.3342C25.3053 34.8707 25.7975 34.5259 26.3568 34.3438L26.6284 35.0067ZM35.8373 28.2018C36.2424 28.6314 36.5099 29.1721 36.6055 29.7547C36.7011 30.3373 36.6205 30.9352 36.3741 31.4717C36.1276 32.0082 35.7265 32.4589 35.2221 32.7658C34.7178 33.0728 34.1333 33.2221 33.5435 33.1947C32.9538 33.1672 32.3857 32.9641 31.9121 32.6116C31.4385 32.259 31.081 31.773 30.8855 31.216C30.69 30.6589 30.6654 30.0561 30.8148 29.4849C30.9642 28.9137 31.2808 28.4002 31.724 28.0101C32.0064 27.7521 32.337 27.5523 32.6967 27.4223C33.0565 27.2922 33.4383 27.2345 33.8205 27.2523C34.2026 27.2701 34.5774 27.3631 34.9235 27.5261C35.2696 27.689 35.5801 27.9187 35.8373 28.2018ZM32.0435 31.5484C32.3157 31.8636 32.6754 32.0908 33.0769 32.2012C33.4785 32.3115 33.9038 32.3001 34.2988 32.1682C34.6938 32.0363 35.0407 31.7899 35.2954 31.4605C35.5502 31.131 35.7012 30.7332 35.7293 30.3177C35.7575 29.9022 35.6615 29.4877 35.4535 29.1269C35.2456 28.7661 34.9351 28.4752 34.5615 28.2912C34.1879 28.1073 33.768 28.0385 33.3552 28.0937C32.9424 28.1489 32.5554 28.3255 32.2432 28.6012C31.8287 28.9672 31.5752 29.482 31.5378 30.0337C31.5004 30.5855 31.6821 31.1297 32.0435 31.5484ZM38.6886 23.0822L41.3243 21.5647L41.6917 22.2116L39.7988 23.2819L40.5975 24.6636L42.2907 23.7132L42.6581 24.3601L40.9649 25.3106L42.0991 27.3313L41.3563 27.7466L38.6886 23.0822ZM46.3241 19.3364L49.2074 18.3699L49.455 19.0728L47.4104 19.7916L47.9215 21.2692L49.7585 20.6302L50.0061 21.3331L48.1691 21.972L48.9678 24.1525L48.1691 24.44L46.3241 19.3364ZM54.5507 17.0201L57.3461 16.5729L57.4579 17.3157L55.5091 17.6192L55.7407 19.0728L57.5058 18.7853L57.6256 19.4961L55.8286 19.7836L56.1001 21.4768L58.1048 21.1574L58.2246 21.9002L55.3973 22.3634L54.5507 17.0201ZM62.9609 16.1815L65.7883 16.2374V16.9802H63.8155V18.4418H65.6285V19.1606H63.8155V20.8778H65.8521V21.6206L62.865 21.5647L62.9609 16.1815ZM79.2382 19.8475C79.0516 19.5809 78.7904 19.3753 78.4874 19.2565C77.9763 19.0808 77.6888 19.3044 77.6249 19.544C77.561 19.7836 77.6888 20.1989 78.1201 20.8539C78.759 21.8283 78.9188 22.3874 78.759 22.9145C78.6849 23.1128 78.5708 23.2936 78.4238 23.4459C78.2768 23.5981 78.1 23.7184 77.9044 23.7994C77.7088 23.8803 77.4987 23.9201 77.2871 23.9162C77.0755 23.9124 76.8669 23.865 76.6744 23.7771C76.1827 23.6061 75.7447 23.3086 75.4045 22.9145L75.9396 22.3714C76.1956 22.6963 76.5313 22.9495 76.914 23.1062C77.1081 23.1832 77.3245 23.1812 77.5171 23.1006C77.7097 23.02 77.863 22.8672 77.9443 22.6749C78.0642 22.3314 77.8964 21.964 77.4172 21.2532C76.8182 20.3267 76.6185 19.8715 76.8182 19.2884C77.0179 18.7054 77.6888 18.2262 78.743 18.5776C79.1493 18.7286 79.5117 18.9784 79.7973 19.3044L79.2382 19.8475ZM85.1086 21.3251L85.8514 21.7404L84.7971 23.6094L86.9057 24.7994L87.9599 22.9305L88.7027 23.3538L86.0511 28.0501L85.3083 27.6348L86.5383 25.4623L84.4217 24.2723L83.1997 26.4447L82.457 26.0214L85.1086 21.3251ZM95.9149 32.5068C95.5355 32.9593 95.0296 33.2882 94.4619 33.4512C93.8943 33.6142 93.291 33.6038 92.7293 33.4215C92.1676 33.2392 91.6732 32.8931 91.3095 32.4279C90.9459 31.9626 90.7295 31.3992 90.6883 30.8101C90.647 30.221 90.7827 29.633 91.078 29.1216C91.3732 28.6102 91.8146 28.1986 92.3454 27.9398C92.8762 27.6809 93.4722 27.5866 94.057 27.6689C94.6417 27.7511 95.1886 28.0063 95.6274 28.4015C96.2087 28.9085 96.5653 29.6253 96.6192 30.3947C96.6731 31.1642 96.4199 31.9237 95.9149 32.5068ZM92.1451 29.1203C91.8644 29.427 91.6811 29.8101 91.6183 30.221C91.5555 30.632 91.616 31.0523 91.7923 31.4288C91.9685 31.8053 92.2525 32.1211 92.6082 32.3361C92.964 32.5512 93.3756 32.6558 93.7909 32.6367C94.2062 32.6177 94.6065 32.4759 94.9411 32.2292C95.2757 31.9826 95.5296 31.6422 95.6707 31.2511C95.8118 30.8601 95.8336 30.4359 95.7335 30.0325C95.6333 29.629 95.4158 29.2643 95.1082 28.9846C94.6951 28.6143 94.1531 28.4211 93.5989 28.4465C93.0447 28.4719 92.5227 28.7139 92.1451 29.1203ZM99.1097 37.4267L97.4404 38.6168L96.9452 37.9219L101.322 34.7271L102.121 35.8373C102.808 36.7878 102.872 37.6823 101.905 38.3931C101.701 38.5287 101.472 38.6206 101.231 38.663C100.99 38.7055 100.742 38.6976 100.505 38.6398C100.267 38.5821 100.043 38.4757 99.8487 38.3274C99.654 38.1791 99.4921 37.9921 99.3733 37.7781L99.1097 37.4267ZM101.21 35.9412L99.7327 37.0114L100.068 37.4746C100.132 37.5882 100.22 37.687 100.324 37.7645C100.429 37.8421 100.549 37.8965 100.677 37.9244C100.804 37.9523 100.936 37.953 101.064 37.9264C101.192 37.8998 101.312 37.8466 101.418 37.7702C101.833 37.4667 101.993 37.0194 101.546 36.4044L101.21 35.9412ZM23.9608 92.7042C23.7356 92.3988 23.5734 92.0517 23.4834 91.6831C23.3934 91.3145 23.3775 90.9317 23.4365 90.5569C23.4956 90.1821 23.6284 89.8227 23.8274 89.4996C24.0263 89.1765 24.2874 88.8961 24.5955 88.6747C24.9036 88.4532 25.2526 88.2952 25.6223 88.2096C25.9919 88.124 26.3749 88.1127 26.749 88.1762C27.1231 88.2397 27.4808 88.3769 27.8015 88.5797C28.1222 88.7825 28.3994 89.0469 28.6171 89.3577C29.0577 89.9553 29.2598 90.6957 29.1842 91.4343L28.3855 91.3224C28.4359 90.9817 28.4018 90.6337 28.286 90.3092C28.1703 89.9847 27.9765 89.6937 27.7218 89.4618C27.4671 89.2298 27.1592 89.0641 26.8254 88.9792C26.4915 88.8943 26.1418 88.8928 25.8073 88.9748C25.4727 89.0569 25.1634 89.22 24.9067 89.4497C24.65 89.6795 24.4537 89.9688 24.3352 90.2923C24.2167 90.6158 24.1796 90.9634 24.2271 91.3046C24.2746 91.6459 24.4053 91.9701 24.6077 92.2489C24.8823 92.6031 25.2719 92.8504 25.7093 92.9481C26.1468 93.0458 26.6046 92.9878 27.0038 92.7841L26.0054 91.4023L26.8041 91.2346L28.1219 93.0716L27.8744 93.2473C27.582 93.4694 27.2487 93.6316 26.8936 93.7246C26.5384 93.8175 26.1684 93.8394 25.8047 93.7889C25.4411 93.7385 25.091 93.6166 24.7745 93.4305C24.4581 93.2443 24.1815 92.9975 23.9608 92.7042ZM30.8934 100.412C29.903 99.525 29.9589 98.3749 30.8934 97.2967L33.0419 94.9006L33.6808 95.4757L31.3806 98.0315C31.2448 98.1425 31.1347 98.2817 31.0579 98.4394C30.9811 98.5971 30.9393 98.7695 30.9355 98.9449C30.9317 99.1203 30.966 99.2944 31.0359 99.4552C31.1059 99.6161 31.2099 99.7599 31.3407 99.8767C31.4716 99.9935 31.6262 100.081 31.7939 100.132C31.9616 100.183 32.1385 100.198 32.3123 100.174C32.4861 100.151 32.6528 100.09 32.8008 99.9955C32.9488 99.9014 33.0746 99.7763 33.1697 99.6288L35.4699 97.065L36.1089 97.6481L33.9524 100.044C33.0179 101.122 31.8998 101.314 30.8934 100.412ZM39.9346 100.364L42.3307 101.825L41.9393 102.464L40.2541 101.434L39.4953 102.688L41.0448 103.63L40.6774 104.237L39.08 103.303L38.1934 104.772L39.9346 105.835L39.5512 106.466L37.0833 104.972L39.9346 100.364ZM48.3927 105.619C48.2206 105.345 47.974 105.127 47.6819 104.988C47.1707 104.796 46.8832 104.988 46.7954 105.236C46.7075 105.483 46.7954 105.891 47.2267 106.569C47.8177 107.576 47.9615 108.167 47.7538 108.662C47.6696 108.859 47.5453 109.036 47.3888 109.182C47.2324 109.328 47.0472 109.44 46.845 109.511C46.6429 109.582 46.4283 109.609 46.2148 109.592C46.0014 109.576 45.7938 109.514 45.6053 109.413C45.1243 109.216 44.7031 108.896 44.3833 108.486L44.9504 107.967C45.1845 108.312 45.5073 108.588 45.8849 108.766C46.0739 108.851 46.2887 108.86 46.484 108.79C46.6793 108.72 46.8397 108.577 46.9311 108.391C47.0669 108.047 46.9311 107.672 46.4839 106.937C45.9328 105.986 45.7571 105.515 45.9807 104.94C46.2043 104.365 46.9072 103.926 47.9455 104.333C48.3458 104.509 48.6949 104.784 48.9598 105.132L48.3927 105.619ZM53.8478 107.025L52.9054 106.817L53.0651 106.082L55.7806 106.665L55.6209 107.408L54.6785 107.208L53.6961 111.737L52.8974 111.553L53.8478 107.025ZM66.5949 110.587H66.539L66.7067 112.687L65.8601 112.751L65.4209 107.376L66.7147 107.272C67.8569 107.184 68.6556 107.672 68.7434 108.758C68.7717 109.127 68.6708 109.495 68.4581 109.798C68.2454 110.101 67.9341 110.32 67.5773 110.419L69.582 112.448L68.5437 112.536L66.5949 110.587ZM66.3314 108.071L66.4831 109.876H66.9224C67.0574 109.88 67.1917 109.856 67.3163 109.803C67.4409 109.751 67.5528 109.673 67.6445 109.574C67.7361 109.474 67.8054 109.357 67.8475 109.228C67.8897 109.1 67.9038 108.964 67.8888 108.83C67.8489 108.351 67.4815 107.983 66.7786 108.031L66.3314 108.071ZM79.358 107.384C79.5425 107.945 79.5553 108.548 79.395 109.115C79.2346 109.683 78.9084 110.19 78.458 110.572C78.0076 110.953 77.4537 111.191 76.8671 111.256C76.2805 111.32 75.6881 111.208 75.1656 110.934C74.6432 110.659 74.2146 110.235 73.9347 109.716C73.6548 109.196 73.5364 108.605 73.5947 108.018C73.6529 107.43 73.8852 106.874 74.2617 106.42C74.6382 105.965 75.1418 105.634 75.708 105.467C76.0735 105.352 76.4581 105.311 76.8397 105.345C77.2213 105.379 77.5924 105.489 77.9316 105.667C78.2708 105.845 78.5714 106.088 78.8162 106.383C79.061 106.678 79.2452 107.018 79.358 107.384ZM74.502 108.814C74.6154 109.214 74.8452 109.572 75.1624 109.842C75.4796 110.112 75.8697 110.281 76.2833 110.328C76.6969 110.376 77.1152 110.3 77.4853 110.109C77.8554 109.918 78.1604 109.622 78.3617 109.257C78.563 108.893 78.6516 108.477 78.616 108.062C78.5804 107.647 78.4224 107.253 78.162 106.928C77.9017 106.603 77.5506 106.363 77.1535 106.238C76.7564 106.113 76.3311 106.109 75.9316 106.226C75.4016 106.384 74.9547 106.743 74.6873 107.227C74.4199 107.711 74.3533 108.281 74.502 108.814ZM88.9423 102.576C89.25 103.079 89.4004 103.663 89.3742 104.253C89.3481 104.842 89.1465 105.41 88.7954 105.885C88.4443 106.359 87.9597 106.717 87.4035 106.914C86.8474 107.111 86.2451 107.138 85.6738 106.99C85.1025 106.843 84.5882 106.528 84.1968 106.087C83.8053 105.645 83.5547 105.097 83.4768 104.512C83.3989 103.927 83.4974 103.333 83.7597 102.804C84.0219 102.276 84.436 101.837 84.9489 101.546C85.2787 101.351 85.6437 101.223 86.0229 101.17C86.4022 101.116 86.7882 101.138 87.1591 101.233C87.53 101.329 87.8783 101.497 88.1843 101.727C88.4903 101.958 88.7479 102.246 88.9423 102.576ZM84.5415 105.076C84.7443 105.439 85.0504 105.734 85.4209 105.923C85.7915 106.112 86.2099 106.187 86.623 106.138C87.0361 106.089 87.4254 105.919 87.7415 105.648C88.0576 105.378 88.2862 105.019 88.3985 104.619C88.5107 104.218 88.5014 103.793 88.3718 103.398C88.2422 103.003 87.9982 102.655 87.6706 102.398C87.343 102.142 86.9467 101.988 86.5318 101.957C86.1169 101.927 85.7022 102.02 85.3402 102.225C84.8607 102.501 84.5086 102.954 84.3593 103.487C84.21 104.02 84.2754 104.591 84.5415 105.076ZM92.784 98.1513L95.4277 101.003L94.7968 101.578L91.1307 97.5842L91.7857 96.9772L95.2121 97.9516L94.4533 94.5012L95.1002 93.9022L98.7663 97.8558L98.1433 98.4388L95.5156 95.6034L96.2104 98.926L96.0986 99.0378L92.784 98.1513ZM100.22 88.9503C99.9083 89.0536 99.6317 89.2417 99.4212 89.4935C99.1097 89.9327 99.2375 90.2921 99.4212 90.4119C99.6049 90.5317 100.068 90.5397 100.819 90.3161C101.937 89.9966 102.528 89.9966 102.975 90.3161C103.146 90.4455 103.288 90.6091 103.392 90.7965C103.496 90.9839 103.56 91.191 103.58 91.4044C103.599 91.6179 103.574 91.8331 103.506 92.0362C103.438 92.2394 103.328 92.4261 103.183 92.5844C102.871 92.9997 102.459 93.3294 101.985 93.5428L101.618 92.8639C102.007 92.7233 102.35 92.4772 102.608 92.1531C102.739 91.991 102.801 91.7843 102.782 91.5769C102.762 91.3695 102.663 91.1779 102.504 91.0429C102.201 90.8273 101.809 90.8752 100.987 91.1228C99.9323 91.4263 99.3892 91.4822 98.934 91.1228C98.4787 90.7634 98.1353 89.9807 98.8222 89.0701C99.0846 88.7231 99.4309 88.4482 99.8285 88.2714L100.22 88.9503ZM16.3333 70.844L20.9737 66.9703C21.3358 67.9217 22.0017 68.7269 22.8682 69.2612C23.7346 69.7955 24.7531 70.029 25.7658 69.9255C28.2338 69.9255 29.5995 68.4479 29.5995 65.8282V51.915H36.5801V65.6046C36.5801 72.5053 32.7064 76.2671 25.6939 76.2671C22.0439 76.2671 18.2821 74.8614 16.3333 70.844ZM47.2027 51.915H54.4309L64.087 75.8198H56.9388L55.8286 72.7209H45.797L44.7267 75.8198H37.5385L47.2027 51.915ZM53.9516 67.3298L51.1163 59.263C50.9939 58.9513 50.8951 58.631 50.8208 58.3045C50.7414 58.6296 50.6427 58.9496 50.5253 59.263L47.6819 67.3377L53.9516 67.3298ZM64.1989 63.8954C64.1989 57.0745 69.2546 51.5795 76.8501 51.5795C80.2249 51.4948 83.4979 52.7397 85.9632 55.0459L81.3468 59.838C80.834 59.2274 80.1897 58.7406 79.4622 58.4142C78.7346 58.0878 77.9427 57.9302 77.1457 57.9531C76.3819 57.9632 75.6278 58.126 74.9279 58.4319C74.228 58.7379 73.5964 59.1807 73.0702 59.7344C72.544 60.2881 72.1339 60.9415 71.8641 61.6561C71.5942 62.3707 71.4701 63.1321 71.4989 63.8954C71.4989 67.4336 73.895 69.9495 77.1457 69.9495C78.608 69.9315 80.0275 69.4536 81.203 68.5837V66.3793H77.9204V62.2501H87.2491V71.5069C85.2204 74.494 81.3148 76.2991 77.0019 76.2991C69.3265 76.2671 64.1989 70.7721 64.1989 63.8954ZM90.4199 73.3918L92.7122 67.9288C95.0389 69.3947 97.7417 70.1523 100.491 70.1092C101.226 70.1092 103.367 69.8856 103.367 68.6316C103.367 67.3777 101.857 67.3058 100.491 66.9703C95.883 65.94 91.0509 64.1669 91.0509 58.7837C91.0509 53.8079 95.5874 51.5955 100.491 51.5955C103.74 51.5151 106.947 52.3451 109.748 53.9916L107.352 59.4067C105.954 58.4483 102.784 57.6736 100.459 57.6736C99.8684 57.6736 98.319 57.8253 98.319 58.7837C98.319 59.7422 99.2055 59.9978 100.459 60.2933C104.038 61.092 110.635 62.5056 110.635 68.6316C110.635 74.0867 105.403 76.2671 100.459 76.2671C93.7744 76.2671 91.1627 73.6873 90.4199 73.3918ZM53.5523 40.5257H73.4397V41.556H53.5523V40.5257ZM53.5523 86.2587H73.4397V87.2891H53.5523V86.2587Z" fill="#E3E3E3"/>
</g>
<defs>
<clipPath id="clip0_7_129">
<rect width="127" height="127" fill="white"/>
</clipPath>
</defs>
</svg>
