<?xml version="1.0" encoding="UTF-8" standalone="no"?>
<!DOCTYPE svg PUBLIC "-//W3C//DTD SVG 1.1//EN" "http://www.w3.org/Graphics/SVG/1.1/DTD/svg11.dtd">
<svg width="100%" height="100%" viewBox="0 0 127 127" version="1.1" xmlns="http://www.w3.org/2000/svg" xmlns:xlink="http://www.w3.org/1999/xlink" xml:space="preserve" xmlns:serif="http://www.serif.com/" style="fill-rule:evenodd;clip-rule:evenodd;stroke-linejoin:round;stroke-miterlimit:2;">
    <g>
        <clipPath id="_clip1">
            <rect x="0" y="0" width="127" height="127"/>
        </clipPath>
        <g clip-path="url(#_clip1)">
            <path d="M63.496,126.992C50.935,126.993 38.656,123.27 28.212,116.293C17.768,109.316 9.627,99.398 4.819,87.793C0.012,76.189 -1.246,63.42 1.204,51.101C3.654,38.782 9.702,27.465 18.584,18.584C27.465,9.702 38.782,3.654 51.101,1.204C63.42,-1.246 76.189,0.012 87.793,4.819C99.398,9.627 109.316,17.768 116.293,28.212C123.27,38.656 126.993,50.935 126.992,63.496C126.971,80.33 120.274,96.468 108.371,108.371C96.468,120.274 80.33,126.971 63.496,126.992ZM63.496,1.022C51.14,1.022 39.061,4.686 28.787,11.551C18.514,18.416 10.506,28.173 5.778,39.588C1.049,51.004 -0.188,63.565 2.223,75.684C4.633,87.803 10.583,98.934 19.32,107.671C28.057,116.409 39.189,122.359 51.308,124.769C63.427,127.18 75.988,125.943 87.403,121.214C98.819,116.486 108.576,108.478 115.441,98.204C122.306,87.931 125.97,75.852 125.97,63.496C125.948,46.934 119.359,31.057 107.648,19.347C95.936,7.636 80.058,1.049 63.496,1.03L63.496,1.022Z" style="fill:rgb(125,185,188);fill-rule:nonzero;"/>
            <path d="M26.628,35.007C26.215,35.171 25.855,35.448 25.59,35.805C25.405,36.026 25.268,36.283 25.187,36.56C25.106,36.837 25.084,37.127 25.121,37.413C25.158,37.699 25.254,37.974 25.403,38.221C25.552,38.468 25.75,38.681 25.986,38.847C26.221,39.013 26.489,39.129 26.771,39.187C27.054,39.244 27.345,39.243 27.627,39.182C27.909,39.121 28.175,39.003 28.409,38.834C28.642,38.665 28.838,38.45 28.985,38.202C29.245,37.835 29.399,37.404 29.432,36.956L30.183,37.019C30.155,37.617 29.956,38.194 29.608,38.681C29.388,38.987 29.11,39.247 28.79,39.446C28.469,39.645 28.113,39.779 27.741,39.84C26.99,39.963 26.221,39.783 25.602,39.34C24.984,38.896 24.567,38.225 24.443,37.473C24.32,36.722 24.499,35.953 24.943,35.334C25.305,34.871 25.798,34.526 26.357,34.344L26.628,35.007ZM35.837,28.202C36.242,28.631 36.51,29.172 36.606,29.755C36.701,30.337 36.621,30.935 36.374,31.472C36.128,32.008 35.727,32.459 35.222,32.766C34.718,33.073 34.133,33.222 33.544,33.195C32.954,33.167 32.386,32.964 31.912,32.612C31.439,32.259 31.081,31.773 30.886,31.216C30.69,30.659 30.665,30.056 30.815,29.485C30.964,28.914 31.281,28.4 31.724,28.01C32.006,27.752 32.337,27.552 32.697,27.422C33.057,27.292 33.438,27.235 33.821,27.252C34.203,27.27 34.577,27.363 34.924,27.526C35.27,27.689 35.58,27.919 35.837,28.202ZM32.044,31.548C32.316,31.864 32.675,32.091 33.077,32.201C33.478,32.312 33.904,32.3 34.299,32.168C34.694,32.036 35.041,31.79 35.295,31.461C35.55,31.131 35.701,30.733 35.729,30.318C35.758,29.902 35.661,29.488 35.454,29.127C35.246,28.766 34.935,28.475 34.562,28.291C34.188,28.107 33.768,28.039 33.355,28.094C32.942,28.149 32.555,28.326 32.243,28.601C31.829,28.967 31.575,29.482 31.538,30.034C31.5,30.586 31.682,31.13 32.044,31.548ZM38.689,23.082L41.324,21.565L41.692,22.212L39.799,23.282L40.597,24.664L42.291,23.713L42.658,24.36L40.965,25.311L42.099,27.331L41.356,27.747L38.689,23.082ZM46.324,19.336L49.207,18.37L49.455,19.073L47.41,19.792L47.922,21.269L49.759,20.63L50.006,21.333L48.169,21.972L48.968,24.153L48.169,24.44L46.324,19.336ZM54.551,17.02L57.346,16.573L57.458,17.316L55.509,17.619L55.741,19.073L57.506,18.785L57.626,19.496L55.829,19.784L56.1,21.477L58.105,21.157L58.225,21.9L55.397,22.363L54.551,17.02ZM62.961,16.182L65.788,16.237L65.788,16.98L63.816,16.98L63.816,18.442L65.629,18.442L65.629,19.161L63.816,19.161L63.816,20.878L65.852,20.878L65.852,21.621L62.865,21.565L62.961,16.182ZM79.238,19.848C79.052,19.581 78.79,19.375 78.487,19.257C77.976,19.081 77.689,19.304 77.625,19.544C77.561,19.784 77.689,20.199 78.12,20.854C78.759,21.828 78.919,22.387 78.759,22.915C78.685,23.113 78.571,23.294 78.424,23.446C78.277,23.598 78.1,23.718 77.904,23.799C77.709,23.88 77.499,23.92 77.287,23.916C77.076,23.912 76.867,23.865 76.674,23.777C76.183,23.606 75.745,23.309 75.405,22.915L75.94,22.371C76.196,22.696 76.531,22.95 76.914,23.106C77.108,23.183 77.325,23.181 77.517,23.101C77.71,23.02 77.863,22.867 77.944,22.675C78.064,22.331 77.896,21.964 77.417,21.253C76.818,20.327 76.619,19.872 76.818,19.288C77.018,18.705 77.689,18.226 78.743,18.578C79.149,18.729 79.512,18.978 79.797,19.304L79.238,19.848ZM85.109,21.325L85.851,21.74L84.797,23.609L86.906,24.799L87.96,22.93L88.703,23.354L86.051,28.05L85.308,27.635L86.538,25.462L84.422,24.272L83.2,26.445L82.457,26.021L85.109,21.325ZM95.915,32.507C95.536,32.959 95.03,33.288 94.462,33.451C93.894,33.614 93.291,33.604 92.729,33.422C92.168,33.239 91.673,32.893 91.31,32.428C90.946,31.963 90.73,31.399 90.688,30.81C90.647,30.221 90.783,29.633 91.078,29.122C91.373,28.61 91.815,28.199 92.345,27.94C92.876,27.681 93.472,27.587 94.057,27.669C94.642,27.751 95.189,28.006 95.627,28.401C96.209,28.909 96.565,29.625 96.619,30.395C96.673,31.164 96.42,31.924 95.915,32.507ZM92.145,29.12C91.864,29.427 91.681,29.81 91.618,30.221C91.556,30.632 91.616,31.052 91.792,31.429C91.969,31.805 92.253,32.121 92.608,32.336C92.964,32.551 93.376,32.656 93.791,32.637C94.206,32.618 94.607,32.476 94.941,32.229C95.276,31.983 95.53,31.642 95.671,31.251C95.812,30.86 95.834,30.436 95.734,30.033C95.633,29.629 95.416,29.264 95.108,28.985C94.695,28.614 94.153,28.421 93.599,28.447C93.045,28.472 92.523,28.714 92.145,29.12ZM99.11,37.427L97.44,38.617L96.945,37.922L101.322,34.727L102.121,35.837C102.808,36.788 102.872,37.682 101.905,38.393C101.701,38.529 101.472,38.621 101.231,38.663C100.99,38.706 100.742,38.698 100.505,38.64C100.267,38.582 100.043,38.476 99.849,38.327C99.654,38.179 99.492,37.992 99.373,37.778L99.11,37.427ZM101.21,35.941L99.733,37.011L100.068,37.475C100.132,37.588 100.22,37.687 100.324,37.765C100.429,37.842 100.549,37.897 100.677,37.924C100.804,37.952 100.936,37.953 101.064,37.926C101.192,37.9 101.312,37.847 101.418,37.77C101.833,37.467 101.993,37.019 101.546,36.404L101.21,35.941ZM23.961,92.704C23.736,92.399 23.573,92.052 23.483,91.683C23.393,91.315 23.378,90.932 23.437,90.557C23.496,90.182 23.628,89.823 23.827,89.5C24.026,89.177 24.287,88.896 24.596,88.675C24.904,88.453 25.253,88.295 25.622,88.21C25.992,88.124 26.375,88.113 26.749,88.176C27.123,88.24 27.481,88.377 27.802,88.58C28.122,88.783 28.399,89.047 28.617,89.358C29.058,89.955 29.26,90.696 29.184,91.434L28.386,91.322C28.436,90.982 28.402,90.634 28.286,90.309C28.17,89.985 27.977,89.694 27.722,89.462C27.467,89.23 27.159,89.064 26.825,88.979C26.491,88.894 26.142,88.893 25.807,88.975C25.473,89.057 25.163,89.22 24.907,89.45C24.65,89.68 24.454,89.969 24.335,90.292C24.217,90.616 24.18,90.963 24.227,91.305C24.275,91.646 24.405,91.97 24.608,92.249C24.882,92.603 25.272,92.85 25.709,92.948C26.147,93.046 26.605,92.988 27.004,92.784L26.005,91.402L26.804,91.235L28.122,93.072L27.874,93.247C27.582,93.469 27.249,93.632 26.894,93.725C26.538,93.818 26.168,93.839 25.805,93.789C25.441,93.739 25.091,93.617 24.775,93.431C24.458,93.244 24.182,92.998 23.961,92.704ZM30.893,100.412C29.903,99.525 29.959,98.375 30.893,97.297L33.042,94.901L33.681,95.476L31.381,98.031C31.245,98.143 31.135,98.282 31.058,98.439C30.981,98.597 30.939,98.769 30.936,98.945C30.932,99.12 30.966,99.294 31.036,99.455C31.106,99.616 31.21,99.76 31.341,99.877C31.472,99.994 31.626,100.081 31.794,100.132C31.962,100.183 32.139,100.198 32.312,100.174C32.486,100.151 32.653,100.09 32.801,99.996C32.949,99.901 33.075,99.776 33.17,99.629L35.47,97.065L36.109,97.648L33.952,100.044C33.018,101.122 31.9,101.314 30.893,100.412ZM39.935,100.364L42.331,101.825L41.939,102.464L40.254,101.434L39.495,102.688L41.045,103.63L40.677,104.237L39.08,103.303L38.193,104.772L39.935,105.835L39.551,106.466L37.083,104.972L39.935,100.364ZM48.393,105.619C48.221,105.345 47.974,105.127 47.682,104.988C47.171,104.796 46.883,104.988 46.795,105.236C46.708,105.483 46.795,105.891 47.227,106.569C47.818,107.576 47.962,108.167 47.754,108.662C47.67,108.859 47.545,109.036 47.389,109.182C47.232,109.328 47.047,109.44 46.845,109.511C46.643,109.582 46.428,109.609 46.215,109.592C46.001,109.576 45.794,109.514 45.605,109.413C45.124,109.216 44.703,108.896 44.383,108.486L44.95,107.967C45.185,108.312 45.507,108.588 45.885,108.766C46.074,108.851 46.289,108.86 46.484,108.79C46.679,108.72 46.84,108.577 46.931,108.391C47.067,108.047 46.931,107.672 46.484,106.937C45.933,105.986 45.757,105.515 45.981,104.94C46.204,104.365 46.907,103.926 47.946,104.333C48.346,104.509 48.695,104.784 48.96,105.132L48.393,105.619ZM53.848,107.025L52.905,106.817L53.065,106.082L55.781,106.665L55.621,107.408L54.679,107.208L53.696,111.737L52.897,111.553L53.848,107.025ZM66.595,110.587L66.539,110.587L66.707,112.687L65.86,112.751L65.421,107.376L66.715,107.272C67.857,107.184 68.656,107.672 68.743,108.758C68.772,109.127 68.671,109.495 68.458,109.798C68.245,110.101 67.934,110.32 67.577,110.419L69.582,112.448L68.544,112.536L66.595,110.587ZM66.331,108.071L66.483,109.876L66.922,109.876C67.057,109.88 67.192,109.856 67.316,109.803C67.441,109.751 67.553,109.673 67.644,109.574C67.736,109.474 67.805,109.357 67.848,109.228C67.89,109.1 67.904,108.964 67.889,108.83C67.849,108.351 67.482,107.983 66.779,108.031L66.331,108.071ZM79.358,107.384C79.543,107.945 79.555,108.548 79.395,109.115C79.235,109.683 78.908,110.19 78.458,110.572C78.008,110.953 77.454,111.191 76.867,111.256C76.281,111.32 75.688,111.208 75.166,110.934C74.643,110.659 74.215,110.235 73.935,109.716C73.655,109.196 73.536,108.605 73.595,108.018C73.653,107.43 73.885,106.874 74.262,106.42C74.638,105.965 75.142,105.634 75.708,105.467C76.074,105.352 76.458,105.311 76.84,105.345C77.221,105.379 77.592,105.489 77.932,105.667C78.271,105.845 78.571,106.088 78.816,106.383C79.061,106.678 79.245,107.018 79.358,107.384ZM74.502,108.814C74.615,109.214 74.845,109.572 75.162,109.842C75.48,110.112 75.87,110.281 76.283,110.328C76.697,110.376 77.115,110.3 77.485,110.109C77.855,109.918 78.16,109.622 78.362,109.257C78.563,108.893 78.652,108.477 78.616,108.062C78.58,107.647 78.422,107.253 78.162,106.928C77.902,106.603 77.551,106.363 77.153,106.238C76.756,106.113 76.331,106.109 75.932,106.226C75.402,106.384 74.955,106.743 74.687,107.227C74.42,107.711 74.353,108.281 74.502,108.814ZM88.942,102.576C89.25,103.079 89.4,103.663 89.374,104.253C89.348,104.842 89.147,105.41 88.795,105.885C88.444,106.359 87.96,106.717 87.403,106.914C86.847,107.111 86.245,107.138 85.674,106.99C85.103,106.843 84.588,106.528 84.197,106.087C83.805,105.645 83.555,105.097 83.477,104.512C83.399,103.927 83.497,103.333 83.76,102.804C84.022,102.276 84.436,101.837 84.949,101.546C85.279,101.351 85.644,101.223 86.023,101.17C86.402,101.116 86.788,101.138 87.159,101.233C87.53,101.329 87.878,101.497 88.184,101.727C88.49,101.958 88.748,102.246 88.942,102.576ZM84.542,105.076C84.744,105.439 85.05,105.734 85.421,105.923C85.792,106.112 86.21,106.187 86.623,106.138C87.036,106.089 87.425,105.919 87.742,105.648C88.058,105.378 88.286,105.019 88.399,104.619C88.511,104.218 88.501,103.793 88.372,103.398C88.242,103.003 87.998,102.655 87.671,102.398C87.343,102.142 86.947,101.988 86.532,101.957C86.117,101.927 85.702,102.02 85.34,102.225C84.861,102.501 84.509,102.954 84.359,103.487C84.21,104.02 84.275,104.591 84.542,105.076ZM92.784,98.151L95.428,101.003L94.797,101.578L91.131,97.584L91.786,96.977L95.212,97.952L94.453,94.501L95.1,93.902L98.766,97.856L98.143,98.439L95.516,95.603L96.21,98.926L96.099,99.038L92.784,98.151ZM100.22,88.95C99.908,89.054 99.632,89.242 99.421,89.494C99.11,89.933 99.238,90.292 99.421,90.412C99.605,90.532 100.068,90.54 100.819,90.316C101.937,89.997 102.528,89.997 102.975,90.316C103.146,90.446 103.288,90.609 103.392,90.797C103.496,90.984 103.56,91.191 103.58,91.404C103.599,91.618 103.574,91.833 103.506,92.036C103.438,92.239 103.328,92.426 103.183,92.584C102.871,93 102.459,93.329 101.985,93.543L101.618,92.864C102.007,92.723 102.35,92.477 102.608,92.153C102.739,91.991 102.801,91.784 102.782,91.577C102.762,91.37 102.663,91.178 102.504,91.043C102.201,90.827 101.809,90.875 100.987,91.123C99.932,91.426 99.389,91.482 98.934,91.123C98.479,90.763 98.135,89.981 98.822,89.07C99.085,88.723 99.431,88.448 99.829,88.271L100.22,88.95ZM16.333,70.844L20.974,66.97C21.336,67.922 22.002,68.727 22.868,69.261C23.735,69.796 24.753,70.029 25.766,69.926C28.234,69.926 29.6,68.448 29.6,65.828L29.6,51.915L36.58,51.915L36.58,65.605C36.58,72.505 32.706,76.267 25.694,76.267C22.044,76.267 18.282,74.861 16.333,70.844ZM47.203,51.915L54.431,51.915L64.087,75.82L56.939,75.82L55.829,72.721L45.797,72.721L44.727,75.82L37.539,75.82L47.203,51.915ZM53.952,67.33L51.116,59.263C50.994,58.951 50.895,58.631 50.821,58.304C50.741,58.63 50.643,58.95 50.525,59.263L47.682,67.338L53.952,67.33ZM64.199,63.895C64.199,57.075 69.255,51.58 76.85,51.58C80.225,51.495 83.498,52.74 85.963,55.046L81.347,59.838C80.834,59.227 80.19,58.741 79.462,58.414C78.735,58.088 77.943,57.93 77.146,57.953C76.382,57.963 75.628,58.126 74.928,58.432C74.228,58.738 73.596,59.181 73.07,59.734C72.544,60.288 72.134,60.942 71.864,61.656C71.594,62.371 71.47,63.132 71.499,63.895C71.499,67.434 73.895,69.95 77.146,69.95C78.608,69.932 80.028,69.454 81.203,68.584L81.203,66.379L77.92,66.379L77.92,62.25L87.249,62.25L87.249,71.507C85.22,74.494 81.315,76.299 77.002,76.299C69.327,76.267 64.199,70.772 64.199,63.895ZM90.42,73.392L92.712,67.929C95.039,69.395 97.742,70.152 100.491,70.109C101.226,70.109 103.367,69.886 103.367,68.632C103.367,67.378 101.857,67.306 100.491,66.97C95.883,65.94 91.051,64.167 91.051,58.784C91.051,53.808 95.587,51.596 100.491,51.596C103.74,51.515 106.947,52.345 109.748,53.992L107.352,59.407C105.954,58.448 102.784,57.674 100.459,57.674C99.868,57.674 98.319,57.825 98.319,58.784C98.319,59.742 99.206,59.998 100.459,60.293C104.038,61.092 110.635,62.506 110.635,68.632C110.635,74.087 105.403,76.267 100.459,76.267C93.774,76.267 91.163,73.687 90.42,73.392ZM53.552,40.526L73.44,40.526L73.44,41.556L53.552,41.556L53.552,40.526ZM53.552,86.259L73.44,86.259L73.44,87.289L53.552,87.289L53.552,86.259Z" style="fill:rgb(125,185,188);fill-rule:nonzero;"/>
        </g>
    </g>
</svg>
