<svg xmlns="http://www.w3.org/2000/svg" width="263" height="57" fill="none"><path fill="#E3E3E3" d="M81.429 10.552c1.546-.511 2.995-.984 4.35-1.418a76.456 76.456 0 0 1 4.31-1.227 48.394 48.394 0 0 1 4.332-.939 19.554 19.554 0 0 1 3.257-.268c1.852 0 3.066.051 3.641.153a9.872 9.872 0 0 1 2.453.805 7.02 7.02 0 0 1 2.069 1.495 7.383 7.383 0 0 1 1.495 2.184c.153.345.23.71.23 1.093 0 1.43-.786 3.193-2.357 5.288-1.559 2.095-3.13 3.922-4.714 5.48-1.571 1.559-2.747 2.677-3.526 3.354l3.449 12.091-5.02 3.622-8.796-25.122c-.025 0-.147.122-.364.364-.217.243-.504.563-.862.958-.345.384-.562.62-.651.71-.039 0-.166-.275-.384-.824l-.843-2.28a261.39 261.39 0 0 0-1.169-3.258c-.447-1.201-.747-1.955-.9-2.261Zm12.397 5.327 1.572 5.653c.792-.805 1.776-1.904 2.95-3.296 1.176-1.393 1.764-2.402 1.764-3.028 0-.243-.103-.383-.307-.422a7.846 7.846 0 0 0-1.705-.191c-1.687 0-3.111.428-4.273 1.284Zm32.84 4.369a6.077 6.077 0 0 1 2.203 1.973c.575.818.99 1.744 1.246 2.779.268 1.022.402 2.088.402 3.2 0 .92-.077 1.807-.23 2.663-.14.856-.338 1.642-.594 2.357-.255.716-.556 1.322-.901 1.82-.804 1.201-1.667 2.236-2.586 3.105-.92.868-1.859 1.571-2.817 2.108-.958.523-1.91.907-2.855 1.15-.933.255-1.859.383-2.779.383a9.313 9.313 0 0 1-3.104-.518c-.971-.332-1.801-.773-2.491-1.322-1.137-.945-2.025-2.216-2.664-3.813a13.707 13.707 0 0 1-.958-5.097c0-3.079.888-5.564 2.664-7.454 1.52-1.623 3.091-2.843 4.714-3.66 1.622-.83 3.283-1.246 4.982-1.246.996 0 1.954.128 2.874.384.92.242 1.884.638 2.894 1.188Zm-1.131 3.219c-.217.97-.69 1.827-1.418 2.568-.715.74-1.418 1.11-2.108 1.11-.345 0-.651-.088-.92-.267-.383-.307-.574-.843-.574-1.61 0-.588.191-1.169.574-1.744.396-.575 1.016-1.028 1.859-1.36-.843 0-1.661.16-2.453.479-.779.32-1.45.734-2.012 1.245a6.213 6.213 0 0 0-1.36 1.706c-.332.626-.498 1.258-.498 1.897 0 1.188.549 2.133 1.648 2.836 1.022.651 1.992.977 2.912.977.907 0 1.712-.3 2.415-.9.702-.614 1.239-1.393 1.609-2.338.371-.958.556-1.904.556-2.836 0-.639-.077-1.227-.23-1.763Zm6.51-14.487L141.78 4.9l1.418 22.132 8.009-4.388 8.317 1.245-10.846 8.317 10.213 7.703.46 7.684-15.061-10.827.479 9.409-9.121.172-1.725-33.284-2.817.632.939-4.714Zm45.525 21.423 4.618 5.577c-.371 1.073-1.252 2.056-2.645 2.95-1.379.895-3.027 1.597-4.943 2.108a21.443 21.443 0 0 1-5.711.786c-1.686 0-3.193-.224-4.522-.67-1.316-.448-2.331-1.125-3.047-2.032-1.239-1.558-1.858-3.551-1.858-5.978 0-1.917.344-3.8 1.034-5.653.703-1.865 1.444-3.168 2.223-3.91a14.327 14.327 0 0 1 3.028-2.203 14.817 14.817 0 0 1 3.411-1.322 14.87 14.87 0 0 1 3.621-.44c1.623 0 3.162.261 4.618.785 1.469.51 2.753 1.258 3.852 2.242l-10.52 12.55c.932 0 1.814-.19 2.644-.574a8.033 8.033 0 0 0 2.319-1.667 12.585 12.585 0 0 0 1.878-2.549Zm-5.308-4.464a4.173 4.173 0 0 0-1.916-.48c-.69 0-1.361.141-2.012.422-.639.281-1.093.613-1.361.997-.792 1.022-1.188 2.146-1.188 3.372 0 .447.045.875.134 1.284.09.409.243.97.46 1.686l5.883-7.281Zm24.695-3.699a6.232 6.232 0 0 0-2.089.671 7.188 7.188 0 0 0-1.743 1.265 5.808 5.808 0 0 0-1.15 1.61c-.268.574-.403 1.143-.403 1.705 0 1.162.55 2.108 1.648 2.836.971.651 1.955.977 2.951.977.192 0 .454-.025.786-.077v-4.081a1.62 1.62 0 0 1-.92-.268c-.383-.307-.575-.895-.575-1.763 0-1.252.499-2.21 1.495-2.875Zm-.173-18.606 8.01-3.602.479 25.945c.102.664.154 1.418.154 2.261 0 .741-.026 1.29-.077 1.648l.23 11.746-8.623.46v-1.169c-1.405.575-2.823.863-4.254.863a9.521 9.521 0 0 1-3.104-.499c-.958-.332-1.789-.779-2.491-1.34-1.137-.946-2.025-2.217-2.664-3.814a13.687 13.687 0 0 1-.958-5.097c0-3.079.888-5.564 2.664-7.454 1.533-1.61 3.11-2.83 4.733-3.66 1.635-.83 3.302-1.246 5.001-1.246.473 0 .83.013 1.073.039l-.173-15.08Zm29.448 26.77 4.618 5.576c-.371 1.073-1.252 2.056-2.645 2.95-1.379.895-3.027 1.597-4.943 2.108a21.443 21.443 0 0 1-5.711.786c-1.686 0-3.193-.224-4.522-.67-1.316-.448-2.331-1.125-3.047-2.032-1.239-1.558-1.858-3.551-1.858-5.978 0-1.917.345-3.8 1.034-5.653.703-1.865 1.444-3.168 2.223-3.91a14.327 14.327 0 0 1 3.028-2.203 14.817 14.817 0 0 1 3.411-1.322 14.87 14.87 0 0 1 3.621-.44c1.623 0 3.162.261 4.618.785 1.469.51 2.753 1.258 3.852 2.242l-10.52 12.55c.933 0 1.814-.19 2.644-.574a8.033 8.033 0 0 0 2.319-1.667 12.548 12.548 0 0 0 1.878-2.549Zm-5.308-4.465a4.173 4.173 0 0 0-1.916-.48c-.69 0-1.361.141-2.012.422-.639.281-1.092.613-1.361.997-.792 1.022-1.188 2.146-1.188 3.372 0 .447.045.875.134 1.284.09.409.243.97.46 1.686l5.883-7.281Zm25.711 11.42-4.638 5.998-9.887.306 9.581-12.665-10.827-14.008 10.501.46 5.27 6.956 5.25-6.956 10.52-.46-10.827 14.008 9.581 12.665-9.906-.306-4.618-5.998Z"/><path fill="#1F1F1F" d="M52.958 4.106a.909.909 0 0 1 1.154.564c.636 2.765 1.22 5.543 1.831 8.314.115.412-.415.656-.312 1.066.964 4.353 1.992 8.688 2.94 13.044 1.32 4.842 2.295 9.812 3.465 14.71.134.832.55 1.822-.04 2.566-.414.54-.645 1.34-1.39 1.501-7.79 1.614-15.643 2.8-23.438 4.38-1.06.469-2.571.794-3.41-.24-.192-.563-.81-.176-1.212-.134-6.664 1.194-13.331 2.273-19.985 3.548-1.14-.008-2.23.379-3.355.495-.418.084-.774-.284-.825-.68-1.766-9.884-3.914-19.718-5.824-29.588.11-.316.204-.71.428-.948 2.625-.565 5.284-.98 7.93-1.438.619-.164 1.353-.136 1.83-.63 1.122-1.38 2.019-2.927 3.068-4.362.188-.29.497-.472.827-.553 2.953-.684 5.98-.765 8.95-1.303-.034-1.383-.69-2.709-.581-4.094.315-.663.695-1.305 1.017-1.968.465-.769 1.451-.283 2.144-.588 8.27-1.237 16.527-2.352 24.788-3.662Zm-.365.292C45.503 5.49 38.395 6.44 31.317 7.536c-1.687.154-3.395.404-5.04.79.068 1.675.435 3.33.736 4.984 3.352-.683 6.755-1.096 10.106-1.821.638-.218 1.33-.005 1.807.454 1.005.84 2.023 1.667 3.008 2.53.635.454 1.434.293 2.142.156 1.583-.14 3.11-.704 4.704-.679 2.293-.357 4.585-.793 6.866-1.014-.585-2.73-1.144-5.468-1.76-8.192-.11-.637-.853-.276-1.293-.346Zm-15.731 8.044c-2.225.377-4.439.922-6.676 1.148a156.234 156.234 0 0 0 2.471 10.99c1.65 7.91 3.495 15.781 5.161 23.688 2.13-.317 4.223-.85 6.35-1.058 5.712-1.013 11.402-2.1 17.117-3.005.61-.003 1.08-.609.859-1.204-.686-2.756-1.149-5.584-2.008-8.286-1.474-6.927-3.132-13.815-4.783-20.689-4.27.462-8.54 1.16-12.8 1.756-1.55-.494-2.638-1.85-3.948-2.771-.427-.534-1.083-.74-1.743-.569Zm-8.846.95c-.204.03-.416.072-.59.192.103.768.312 1.522.46 2.284.908-.183 1.968-.12 2.693.529-.251-.778-.332-1.602-.607-2.372-.422-.653-1.242-.814-1.956-.634Zm-2.093 1.246c-2.504.181-4.992.728-7.5.928-.771.174-1.704.043-2.317.635-.92 1.314-1.868 2.613-2.751 3.957a2.567 2.567 0 0 1-2.02 1.272c-2.77.56-5.597.763-8.339 1.454C4.97 32.74 6.942 42.604 8.94 52.459c.032.208.159.473.412.421 6.205-1.163 12.445-2.054 18.65-3.335 1.79-.136 3.555-.517 5.315-.856-2.303-11.33-4.768-22.632-7.091-33.961.016-.196-.19-.1-.303-.09Zm2.6 1.711c-.62-.16-.449.504-.343.893 1.697 8.015 3.438 16.02 5.108 24.04.474 1.128.564 2.372.894 3.547.916-.325 1.984-.326 2.768.319-.512-2.313-1.018-4.628-1.524-6.942-.548-1.243-.582-2.638-.948-3.933-1.27-5.763-2.527-11.53-3.821-17.286-.405-.763-1.39-.75-2.134-.638Zm7.012 28.709c-.407.055-.825.079-1.218.209.057.864.314 1.714.502 2.559.92-.294 2.002-.326 2.8.304-.256-1.232-.382-3.191-2.084-3.072Z"/><path fill="#1F1F1F" d="M48.886 6.25c2.053-.44 4.204 1.365 4.043 3.494-.21 1.313-1.215 2.51-2.55 2.726-1.834.453-3.825-1.026-4.037-2.9-.172-1.538 1.012-3.112 2.544-3.32Zm.517.094c-1.244.019-2.424.918-2.752 2.135-.505 1.736.856 3.698 2.648 3.801 1.068.28 2.185-.28 2.84-1.122 1.512-1.978-.344-5.004-2.736-4.814ZM44.391 6.324c.49-.21 1.02.26.92.772-.046.595-.982.786-1.264.272-.172-.371-.128-.942.344-1.044Zm.228.172c-.314.086-.212.766.182.617.537.121.23-.747-.182-.617ZM42.22 6.595c.959-.29 1.201 1.4.216 1.337-.831.103-.949-1.114-.216-1.337Zm-.018.216c-.663.346-.013 1.295.56.857.036-.154.285-.614.044-.583l-.066-.13c-.103-.218-.342-.2-.538-.144Z"/><path fill="#1F1F1F" d="M49.178 6.56c1.635-.458 3.467 1.201 3.055 2.897-.085 2.104-3.053 3.038-4.4 1.481-1.473-1.336-.629-4.123 1.345-4.378Zm.22.092c-1.675.113-2.796 2.296-1.76 3.684.818 1.64 3.525 1.61 4.226-.122.93-1.637-.622-3.886-2.465-3.562ZM39.821 6.973c.814-.3 1.383.894.585 1.281-.82.456-1.439-.979-.585-1.28Zm.294.31c.775-.187-.053.73 0 0ZM36.508 12.733c.44.002.908-.183 1.325.02a88.917 88.917 0 0 0 3.903 3.166c1.244.804 2.726-.178 4.072-.072 3.065-.38 6.109-1.02 9.178-1.228.472 1.088.499 2.367.975 3.48a5425.341 5425.341 0 0 0 4.128 18.303c.698 2.045.938 4.222 1.504 6.309.15.366-.015.774-.34.975-2.005.488-4.058.7-6.09 1.038-5.433 1.04-10.885 1.79-16.307 2.869-.569.067-.8-.615-.954-1.05-2.355-10.828-4.962-21.587-7.323-32.412-.119-.401.374-.432.642-.475 1.77-.256 3.513-.704 5.287-.923Zm.721.137c-2.118.399-4.278.665-6.359 1.185-.036.822.267 1.688.55 2.472 1.464 6.865 3.056 13.705 4.571 20.56.96 3.277 1.469 6.688 2.339 9.995.282.42.848.288 1.255.172 7.129-1.384 14.281-2.466 21.423-3.765.267-.014.453-.251.366-.516-.985-4.37-1.98-8.74-2.954-13.115-1.359-4.946-2.255-10.038-3.517-15.014-.065-.133-.225-.07-.335-.058-3.66.651-7.344 1.009-11.006 1.628-.665.007-1.422.133-1.98-.328-1.163-.87-2.26-1.826-3.4-2.727-.291-.205-.546-.604-.953-.49ZM25.256 15.024c.237-.04.515.073.637.285 2.155 10.365 4.27 20.744 6.431 31.112.154.565.265 1.517-.438 1.73-2.685.558-5.394.998-8.077 1.574-4.503.62-8.954 1.662-13.444 2.41-.453.03-1.029-.176-1.1-.693-1.947-9.238-3.846-18.488-5.794-27.726-.025-.21.045-.472.263-.55 2.81-.658 5.703-.837 8.51-1.512 1.505-1.069 2.31-2.839 3.465-4.247.783-1.448 2.579-1.326 3.957-1.654 1.877-.07 3.728-.473 5.59-.729Zm-.501.558c-1.83.284-3.664.559-5.482.89-1.148.013-2.587.067-3.197 1.237-1.251 1.466-1.977 3.48-3.731 4.436-2.826.659-5.707 1.02-8.556 1.536 1.892 9.28 3.825 18.512 5.766 27.788.142.68.907.419 1.368.3 1.376-.183 2.709-.681 4.105-.69 5.585-1.066 11.24-2.109 16.778-3.177.304-.642.044-1.348-.086-1.998-2.062-10.048-4.165-20.086-6.24-30.13-.055-.346-.488-.2-.725-.192Z"/><path fill="#1F1F1F" d="M52.44 17.004c.642-.282 1.11.297 1.119.904.842 4.012 1.642 8.033 2.481 12.046.092.489.233 1.054-.095 1.487-.483.72-.706 1.73-1.579 2.085-5.215 1.007-10.467 1.737-15.699 2.605-.554.27-1.393.09-1.41-.645-1.045-4.837-2.116-9.67-3.164-14.506-.17-.509.256-1.112.777-1.157 5.857-.922 11.715-1.86 17.57-2.82Zm-.557.281c-5.7.967-11.425 1.788-17.116 2.816-.6.116-.362.808-.257 1.213 1.164 4.655 2.097 9.379 3.159 14.065.05.282.34.426.605.376 5.387-.868 10.799-1.727 16.166-2.613.76-.384.96-1.273 1.427-1.917.277-.327.1-.773.037-1.146-.848-4.16-1.723-8.314-2.57-12.474-.118-.7-.977-.32-1.45-.32Zm-15.266 14.4c.17 1.27.553 2.505.776 3.768.025.285.215.572.524.576 3.588-.399 7.134-1.175 10.71-1.674 1.876-.268 3.776-.539 5.615-.977-5.41.707-10.773 1.801-16.182 2.506-.344.028-.485-.35-.554-.623-.261-1.2-.485-2.42-.89-3.576Z"/><path fill="#1F1F1F" d="M45.206 19.45c.53-.235.668.852.102.784-.483.09-.598-.766-.102-.785Zm-.018.127c.771.193-.315.7 0 0ZM42.524 19.953c.546-.305.804.708.237.751-.442.182-.653-.624-.237-.75Zm.062.148c.745.201-.471.66 0 0ZM50.312 20.208c.35-.06.902-.247 1.022.243.05.369.136.732.218 1.095.137.36.108 1.37.322 1.313.107-.086-.014.756.154 1.028.414 1.936.753 3.891 1.135 5.834.129.573-.58.576-.949.679-3.962.668-7.933 1.363-11.896 1.966-.448.044-1.228.416-1.397-.22-.622-2.987-1.237-5.977-1.834-8.969a.612.612 0 0 1 .589-.793c4.213-.724 8.43-1.392 12.636-2.176ZM24.388 22.564c.307-.059.664.098.694.444.245 1.473.618 2.92.87 4.392.032.253.251.662-.066.803-3.047.59-6.128 1.002-9.168 1.645-2.746.234-5.443.854-8.165 1.29-.3.056-.648-.035-.793-.329-.447-1.427-.37-2.942-.743-4.387-.031-.325-.278-.904.187-1.006 2.258-.4 4.52-.77 6.783-1.136 1.034-.145 2.038-.558 3.096-.456 2.43-.445 4.892-.73 7.305-1.26ZM25.91 29.512c.21-.066.43.056.513.253.355 1.714.687 3.443 1.084 5.146.011.611-.691.659-1.136.733-2.073.244-4.083.922-6.172 1.017-3.463.691-6.955 1.23-10.416 1.927a.607.607 0 0 1-.714-.551c-.302-1.467-.57-2.943-.859-4.413-.11-.392 0-.904.385-1.092 5.75-1.131 11.559-1.892 17.316-3.02Zm-.217.302c-.798.196-1.7.186-2.432.502.141.84.25 1.716.522 2.518.983-.158 1.964-.346 2.944-.521.023-.758-.302-1.539-.403-2.308-.007-.365-.399-.211-.631-.19Zm-3.694.547c-.75.197-1.545.22-2.276.47.116.85.28 1.696.456 2.534 1.114-.14 2.271-.224 3.371-.514-.109-.844-.282-1.686-.464-2.518-.354-.05-.727.011-1.087.028Zm-2.825.504c-1.11.22-2.231.39-3.337.625.103.87.281 1.737.433 2.599 1.22-.189 2.447-.39 3.653-.658-.143-.858-.147-1.746-.386-2.587a1.622 1.622 0 0 0-.363.02Zm-3.92.701c-1.042.198-2.1.33-3.131.587.099.867.228 1.75.44 2.597 1.175-.152 2.337-.418 3.507-.605-.132-.824-.299-1.645-.462-2.464.006-.207-.226-.119-.354-.115Zm-3.62.543c-1.034.253-2.122.297-3.129.641.063.863.306 1.707.46 2.559 1.145-.072 2.276-.284 3.403-.506-.07-.87-.295-1.726-.414-2.593.017-.201-.202-.101-.32-.101Zm14.784.407c-.874.193-1.777.256-2.635.51.115.843.303 1.68.465 2.517 1.027-.14 2.097-.27 3.081-.577-.096-.797-.297-1.58-.473-2.363-.018-.229-.293-.082-.438-.087Zm-2.909.525c-1.086.194-2.179.371-3.261.586.068.866.291 1.719.446 2.573 1.141-.155 2.28-.387 3.416-.593-.21-.833-.221-1.86-.6-2.566Zm-3.691.658c-1.156.255-2.356.238-3.496.577.102.83.321 1.654.29 2.5-.34-.762-.282-1.655-.534-2.45-1.162.14-2.322.376-3.47.602.05.87.27 1.729.402 2.59 2.473-.447 4.995-.8 7.43-1.373-.23-.765-.102-1.977-.622-2.446Zm-7.753 1.304c-1.011.203-2.04.332-3.043.571.174.843.228 1.747.58 2.533 1.062-.092 2.14-.307 3.174-.566a13.894 13.894 0 0 0-.344-2.451c-.007-.211-.238-.084-.367-.087ZM52.478 31.542c.278-.544 1.258-.366 1.217.303.033.728-.976.894-1.307.298.024-.202.054-.402.09-.6Zm.27-.094c-.41.255-.075 1.103.44.869.652-.177.189-1.265-.44-.87ZM39.986 33.006c.327-.056.662-.06.994-.08-.561.303-1.262.284-1.884.424-.055-.439.614-.146.89-.344ZM41.118 33.367c-.072.273-1.486.425-1.944.45.467-.302 1.327-.27 1.944-.45ZM40.997 33.937c.087.011.394-.11.274.059-.64.195-1.316.282-1.978.383.431-.358 1.157-.266 1.704-.442ZM40.92 34.444c.155-.007.63-.13.36.116-.633-.003-1.289.265-1.864.317.172-.385 1.05-.262 1.503-.434ZM56.64 34.77c1.356-.452 2.61 1.394 1.622 2.456-.534.886-1.876.959-2.547.206-.663-.904-.146-2.383.926-2.662ZM53.31 35.065c.554-.29.761.543.236.702-.878.148-1.746.444-2.646.4-.364.045-.321-.57-.026-.626.807-.18 1.633-.269 2.435-.476Zm.012.268c-.797.274-1.843.195-2.493.659.931-.123 1.865-.3 2.772-.538.272-.215-.117-.158-.279-.121ZM48.017 36.085c.369-.196.99.14.584.54-.857.247-1.762.342-2.64.51-.38.102-.461-.506-.121-.598.712-.202 1.455-.287 2.177-.452ZM53.31 37.332a.436.436 0 0 1 .605.317c.28 1.199.444 2.424.703 3.628.061.188-.086.323-.251.373-1.955.368-3.927.687-5.876 1.095-.422.06-.958-.085-1.03-.578-.15-1.007-.316-2.016-.494-3.02-.05-.278-.082-.718.3-.743 2.003-.41 4.048-.623 6.044-1.072Zm.083.262c-1.835.435-3.717.512-5.565.87-.274.063-.807.035-.7.469.187 1.187.275 2.43.677 3.559 2.032-.087 4-.826 6.04-.891.221-.04.647-.074.575-.395a224.65 224.65 0 0 0-.67-3.477c-.005-.219-.209-.159-.357-.135ZM41.346 37.549c1.437-.313.406 1.575 1.09 2.087.75-.015 1.457-.442 2.208-.418.202.787.891 1.91.025 2.511a4.31 4.31 0 0 1-1.883.238c.045.845 1.11 1.758.241 2.497-.575.2-1.46.653-1.923.032-.3-.59-.2-1.32-.51-1.902-.729-.489-2.232.97-2.499-.274-.112-.554-.688-1.168-.162-1.681.604-.483 1.476-.34 2.198-.497-.029-.667-.491-1.304-.305-1.97.218-.654 1.004-.457 1.52-.623ZM27.646 37.623c1.147-.266.765 1.44 1.13 2.138.246.465-.102 1.012-.597 1.07-2.116.37-4.23.799-6.348 1.12-.601-.483-.353-1.457-.615-2.14-.263-.615.263-1.364.934-1.262 1.842-.228 3.662-.632 5.496-.926Zm.29.119c-.977.18-1.968.307-2.93.546.143.86.268 1.741.514 2.574 1.053-.204 2.15-.287 3.163-.643-.264-.782-.102-1.97-.748-2.477Zm-3.195.563c-1.06.202-2.132.36-3.186.59-.021.85.174 1.764.435 2.578 1.108-.14 2.214-.356 3.309-.58-.124-.844-.195-1.877-.558-2.588Zm-3.06 3.052c.536.3.086.53 0 0ZM15.757 37.989c.401-.188.953.179.677.622-.972.332-2.012.475-3.024.648-.543.083-.582-.683-.099-.795.82-.11 1.63-.311 2.446-.475Z"/><path fill="#1F1F1F" d="M12.207 38.654c.443-.22.97.44.482.725-.839.304-1.745.387-2.616.57-.52.032-.74-.684-.187-.848.77-.146 1.553-.26 2.321-.447ZM11.476 41.504c1.2-.359 2.068 1.405 1.183 2.227-.556.724-1.727.442-2.082-.335-.428-.719.072-1.78.899-1.892Zm-.605 1.967c.34.52 1.023.502 1.522.244.678-.45.573-1.655-.197-1.931-.934-.651-2.126.901-1.325 1.687ZM28.442 43.039c1.227-.307.867 1.392 1.156 2.11.182.398.071.934-.453.904-2.15.427-4.311.805-6.46 1.244-1.057.026-.777-1.447-1.022-2.153-.022-.316-.136-.822.3-.885 2.15-.456 4.322-.825 6.479-1.22ZM18.51 44.868c.84-.342 1.221.431 1.165 1.156.072.612.47 1.371-.06 1.88-1.19.234-2.375.58-3.594.623-1.525.166-3.014.776-4.55.722-.438-.559-.34-1.343-.519-2.003-.05-.329-.268-.924.208-1.019 2.447-.47 4.874-1.086 7.35-1.36Z"/><path fill="#A5A5A5" d="M52.593 4.398c.44.07 1.182-.29 1.293.346.616 2.724 1.175 5.463 1.76 8.192-2.28.22-4.573.657-6.866 1.014-1.595-.025-3.12.538-4.704.679-.708.136-1.507.298-2.142-.156-.985-.863-2.003-1.69-3.008-2.53-.477-.46-1.169-.672-1.807-.454-3.351.725-6.754 1.138-10.106 1.821-.3-1.654-.668-3.31-.736-4.984 1.645-.387 3.353-.636 5.04-.79C38.395 6.44 45.503 5.49 52.593 4.398Zm-3.707 1.853c-1.532.207-2.716 1.781-2.544 3.319.212 1.874 2.203 3.353 4.037 2.9 1.335-.216 2.34-1.413 2.55-2.726.16-2.13-1.99-3.934-4.043-3.493Zm-4.495.073c-.472.102-.516.673-.344 1.044.282.514 1.218.323 1.265-.272.099-.512-.431-.981-.92-.772Zm-2.17.27c-.734.224-.616 1.441.215 1.338.986.063.743-1.628-.216-1.338Zm-2.4.38c-.854.301-.235 1.736.585 1.28.799-.387.23-1.581-.585-1.28Z"/><path fill="#A5A5A5" d="M44.619 6.496c.413-.13.72.738.182.617-.394.148-.496-.531-.182-.617Zm.136.143c.47.196-.282.584 0 0ZM49.399 6.652c1.843-.324 3.394 1.925 2.465 3.562-.701 1.732-3.408 1.761-4.225.121-1.037-1.387.084-3.57 1.76-3.683Zm.953 1.089c-.586.28.045 1.096.507.734.423-.35-.012-1.037-.508-.734ZM42.763 7.667c-.574.439-1.224-.51-.56-.856-.105.554.486.439.56.856ZM36.862 12.442c.66-.171 1.316.035 1.743.569 1.31.92 2.397 2.277 3.948 2.771 4.26-.596 8.53-1.294 12.8-1.756 1.65 6.874 3.31 13.762 4.783 20.689.86 2.701 1.322 5.53 2.008 8.285.222.596-.248 1.201-.859 1.205-5.715.905-11.405 1.992-17.117 3.005-2.127.209-4.22.741-6.35 1.058-1.666-7.907-3.511-15.778-5.161-23.689a156.292 156.292 0 0 1-2.47-10.989c2.236-.226 4.45-.771 6.675-1.148Zm-.354.29c-1.774.22-3.516.668-5.287.924-.268.043-.76.074-.642.475 2.361 10.825 4.968 21.584 7.323 32.412.153.435.385 1.117.954 1.05 5.422-1.08 10.874-1.83 16.307-2.869 2.032-.338 4.085-.55 6.09-1.038.325-.201.49-.609.34-.975-.566-2.087-.806-4.264-1.504-6.309-1.387-6.098-2.762-12.2-4.128-18.303-.476-1.113-.503-2.392-.975-3.48-3.07.209-6.113.848-9.178 1.228-1.346-.107-2.828.876-4.072.072a88.944 88.944 0 0 1-3.903-3.167c-.417-.202-.886-.017-1.325-.02Z"/><path fill="#A5A5A5" d="M37.23 12.87c.406-.115.66.284.953.489 1.14.901 2.236 1.857 3.4 2.727.557.46 1.314.335 1.98.328 3.66-.62 7.346-.977 11.005-1.628.11-.012.27-.075.335.058 1.262 4.976 2.158 10.068 3.517 15.014.973 4.374 1.969 8.744 2.954 13.115.087.264-.099.501-.366.516-7.142 1.299-14.294 2.38-21.423 3.765-.407.116-.973.248-1.255-.172-.87-3.307-1.38-6.718-2.339-9.995-1.515-6.855-3.107-13.695-4.57-20.56-.283-.784-.587-1.65-.551-2.472 2.081-.52 4.241-.787 6.36-1.185Zm15.21 4.133a2830.6 2830.6 0 0 1-17.57 2.82c-.52.045-.948.648-.777 1.156 1.048 4.837 2.12 9.67 3.165 14.507.016.735.855.915 1.41.645 5.231-.868 10.483-1.598 15.698-2.606.873-.355 1.096-1.365 1.58-2.084.327-.433.186-.998.094-1.487-.84-4.013-1.639-8.034-2.481-12.047-.008-.606-.477-1.185-1.12-.904Zm4.2 17.767c-1.07.279-1.588 1.758-.925 2.662.671.752 2.013.68 2.547-.206.988-1.063-.266-2.908-1.621-2.456Zm-3.33.295c-.803.207-1.629.296-2.436.476-.295.055-.338.67.026.626.9.044 1.769-.252 2.646-.4.525-.16.318-.992-.237-.702Zm-5.293 1.02c-.722.165-1.464.25-2.177.452-.34.092-.258.7.121.597.878-.167 1.784-.262 2.64-.509.406-.4-.215-.736-.584-.54Zm5.294 1.247c-1.996.449-4.04.661-6.044 1.072-.382.025-.35.465-.3.743.178 1.004.344 2.013.494 3.02.072.493.608.637 1.03.578 1.949-.409 3.92-.727 5.876-1.095.165-.05.313-.185.25-.373-.258-1.204-.421-2.43-.702-3.628a.435.435 0 0 0-.604-.317Zm-11.965.217c-.516.166-1.302-.03-1.52.624-.186.665.276 1.302.306 1.968-.722.158-1.595.014-2.199.498-.526.513.05 1.127.162 1.68.268 1.244 1.77-.214 2.5.275.31.582.21 1.311.51 1.901.462.621 1.347.169 1.922-.032.87-.738-.196-1.651-.24-2.496a4.312 4.312 0 0 0 1.882-.238c.867-.6.177-1.724-.025-2.511-.75-.024-1.457.403-2.207.417-.685-.51.346-2.4-1.091-2.086ZM28.017 13.391c.714-.18 1.534-.019 1.955.634.275.77.356 1.594.607 2.371-.725-.649-1.785-.711-2.693-.528-.148-.762-.357-1.516-.46-2.284.175-.12.386-.161.59-.193ZM25.923 14.638c.113-.01.319-.106.303.09 2.323 11.329 4.788 22.631 7.092 33.961-1.76.339-3.526.72-5.316.856-6.205 1.28-12.445 2.171-18.65 3.335-.253.052-.38-.213-.412-.421-1.998-9.855-3.97-19.718-5.944-29.575 2.742-.691 5.57-.894 8.338-1.454a2.567 2.567 0 0 0 2.02-1.272c.884-1.344 1.831-2.643 2.752-3.957.613-.592 1.546-.461 2.317-.635 2.508-.2 4.996-.747 7.5-.928Zm-.667.386c-1.862.256-3.713.66-5.59.729-1.378.328-3.174.206-3.957 1.654-1.155 1.408-1.96 3.178-3.466 4.247-2.806.675-5.698.854-8.509 1.512-.218.078-.288.34-.263.55C5.42 32.953 7.32 42.204 9.265 51.442c.071.517.648.724 1.1.692 4.49-.748 8.941-1.788 13.444-2.41 2.683-.575 5.392-1.015 8.077-1.572.703-.215.593-1.166.438-1.732-2.16-10.368-4.276-20.746-6.43-31.111-.123-.212-.401-.326-.638-.285Z"/><path fill="#A5A5A5" d="M24.755 15.582c.238-.008.67-.155.725.192 2.075 10.044 4.179 20.082 6.24 30.13.13.65.39 1.356.087 1.998-5.539 1.068-11.194 2.111-16.778 3.177-1.397.008-2.73.507-4.106.69-.46.119-1.226.38-1.368-.3C7.615 42.191 5.682 32.96 3.79 23.68c2.849-.516 5.73-.878 8.556-1.536 1.754-.956 2.48-2.97 3.731-4.436.61-1.17 2.05-1.224 3.197-1.236 1.819-.332 3.653-.607 5.482-.891Zm-.367 6.982c-2.413.53-4.875.815-7.305 1.26-1.057-.102-2.061.311-3.096.456-2.263.366-4.525.736-6.783 1.136-.465.102-.218.68-.187 1.006.373 1.445.296 2.96.743 4.387.145.294.492.385.793.328 2.723-.435 5.42-1.055 8.165-1.29 3.04-.643 6.12-1.055 9.168-1.645.317-.14.098-.549.066-.802-.252-1.471-.624-2.92-.87-4.392-.03-.346-.387-.503-.694-.444Zm1.523 6.948c-5.757 1.128-11.565 1.889-17.316 3.02-.385.188-.495.7-.385 1.092.289 1.47.557 2.945.86 4.413a.607.607 0 0 0 .713.551c3.462-.696 6.953-1.236 10.416-1.927 2.089-.095 4.1-.773 6.173-1.017.444-.074 1.147-.122 1.135-.733-.397-1.703-.73-3.432-1.084-5.146-.083-.197-.304-.32-.512-.253Zm1.735 8.11c-1.834.295-3.654.698-5.496.927-.671-.102-1.197.647-.934 1.263.262.682.014 1.656.615 2.138 2.119-.32 4.232-.75 6.348-1.12.495-.057.843-.604.597-1.069-.364-.698.017-2.404-1.13-2.138Zm-11.89.366c-.815.165-1.625.366-2.445.476-.482.112-.443.878.1.795 1.011-.173 2.051-.316 3.023-.648.276-.444-.276-.81-.677-.623Zm-3.549.666c-.768.187-1.551.3-2.321.447-.553.164-.333.88.188.848.87-.183 1.777-.266 2.615-.57.489-.285-.039-.944-.482-.725Zm-.731 2.85c-.827.111-1.327 1.173-.899 1.892.355.777 1.527 1.06 2.082.334.885-.82.018-2.585-1.183-2.227Zm16.966 1.535c-2.157.395-4.328.764-6.479 1.22-.436.063-.322.569-.3.885.245.706-.035 2.179 1.023 2.153 2.148-.44 4.308-.817 6.46-1.244.524.03.634-.506.453-.904-.29-.718.07-2.417-1.157-2.11Zm-9.931 1.829c-2.477.273-4.904.89-7.35 1.36-.476.094-.259.69-.209 1.018.18.66.082 1.444.52 2.003 1.536.054 3.025-.556 4.55-.722 1.218-.044 2.402-.39 3.593-.623.53-.509.132-1.268.06-1.88.057-.725-.325-1.499-1.164-1.156ZM28.523 16.349c.745-.112 1.73-.125 2.134.638 1.294 5.756 2.55 11.523 3.821 17.286.366 1.294.4 2.69.948 3.933.506 2.314 1.012 4.63 1.524 6.942-.784-.645-1.852-.645-2.768-.319-.33-1.175-.42-2.419-.894-3.548-1.67-8.02-3.41-16.025-5.108-24.04-.105-.388-.277-1.052.343-.892ZM45.188 19.577c.772.193-.315.7 0 0ZM42.586 20.101c.745.201-.47.66 0 0ZM51.334 20.45c.16-.258.3.532.27.76-.016.112-.035.223-.051.336-.083-.363-.17-.726-.218-1.095Z"/><path fill="#A5A5A5" d="M25.693 29.814c.232-.02.624-.174.63.191.102.769.427 1.55.404 2.308-.98.175-1.961.363-2.944.521-.273-.802-.38-1.679-.522-2.519.733-.315 1.635-.305 2.432-.5ZM22 30.36c.359-.016.732-.078 1.086-.027.182.832.355 1.673.464 2.518-1.1.29-2.257.375-3.371.514a36.662 36.662 0 0 1-.456-2.533c.73-.252 1.527-.274 2.276-.471ZM19.174 30.865c.12-.018.24-.03.362-.021.24.841.244 1.73.387 2.587-1.206.267-2.433.469-3.653.658-.152-.862-.33-1.729-.433-2.599 1.105-.235 2.226-.406 3.337-.625ZM52.748 31.448c.629-.396 1.093.691.44.868-.514.235-.85-.613-.44-.868ZM15.254 31.566c.128-.004.36-.092.354.115.163.82.33 1.64.462 2.464-1.17.187-2.332.453-3.506.605-.213-.848-.342-1.73-.441-2.597 1.03-.256 2.089-.39 3.131-.587ZM52.389 32.142c-.047-.199-.164-.498.089-.6-.036.199-.066.4-.09.6ZM36.617 31.685c.404 1.157.628 2.377.889 3.576.07.274.21.651.554.622 5.41-.704 10.773-1.798 16.182-2.505-1.839.438-3.739.71-5.614.977-3.577.499-7.123 1.275-10.711 1.674-.309-.004-.499-.291-.524-.576-.223-1.263-.605-2.498-.776-3.768ZM11.634 32.109c.118 0 .337-.1.32.1.119.867.344 1.723.414 2.594-1.127.222-2.258.434-3.403.506-.154-.852-.397-1.697-.46-2.559 1.007-.344 2.095-.388 3.13-.641ZM26.418 32.516c.145.005.42-.142.438.087.176.783.377 1.566.473 2.363-.983.307-2.054.437-3.08.577-.162-.837-.351-1.674-.466-2.518.858-.253 1.761-.316 2.635-.51ZM23.51 33.04c.379.708.39 1.734.6 2.567-1.136.206-2.274.438-3.416.593-.155-.854-.378-1.707-.446-2.573 1.082-.215 2.175-.392 3.261-.587ZM19.818 33.699c.52.47.393 1.681.622 2.446-2.435.574-4.958.925-7.43 1.374-.132-.862-.352-1.72-.403-2.59 1.15-.227 2.309-.464 3.47-.603.253.795.194 1.688.536 2.45.03-.846-.189-1.67-.291-2.5 1.14-.34 2.34-.322 3.496-.577ZM12.065 35.003c.129.003.36-.124.367.087.182.805.308 1.624.344 2.45-1.034.26-2.112.475-3.174.567-.352-.786-.407-1.69-.58-2.533 1.002-.24 2.032-.368 3.043-.571ZM53.322 35.333c.162-.037.55-.094.28.121-.907.237-1.842.415-2.773.538.65-.464 1.696-.385 2.493-.66ZM53.394 37.594c.147-.024.351-.084.355.136.235 1.155.455 2.317.671 3.477.072.32-.354.354-.574.394-2.042.065-4.01.803-6.04.89-.403-1.127-.49-2.371-.677-3.558-.108-.434.425-.406.7-.468 1.847-.359 3.729-.436 5.565-.87ZM21.68 41.357c.537.3.087.53 0 0ZM10.87 43.47c-.8-.785.392-2.337 1.326-1.687-.404.172-.809.646-.595 1.092.365.375.804.144 1.11-.16.106.37-.426.795-.318 1-.5.257-1.182.276-1.522-.244ZM35.535 45.058c1.703-.12 1.828 1.84 2.084 3.072-.798-.63-1.88-.599-2.8-.305-.188-.844-.445-1.694-.502-2.559.393-.13.81-.153 1.218-.208Z"/><path fill="#F4F4F4" d="M49.403 6.344c2.392-.19 4.248 2.836 2.737 4.814-.656.841-1.773 1.402-2.84 1.122-1.793-.104-3.154-2.065-2.649-3.801.328-1.217 1.508-2.116 2.752-2.135Zm-.225.215c-1.974.256-2.818 3.043-1.345 4.38 1.347 1.556 4.315.622 4.4-1.483.412-1.695-1.42-3.354-3.055-2.897ZM44.755 6.64c.47.195-.283.583 0 0ZM42.806 7.084c-.357.304-.423-.33-.066-.129l.066.13ZM40.115 7.283c.775-.188-.053.73 0 0Z"/><path fill="#F4F4F4" d="M50.351 7.74c.495-.302.93.385.508.735-.462.362-1.093-.454-.508-.734ZM51.883 17.285c.474 0 1.333-.381 1.45.32.848 4.16 1.723 8.314 2.57 12.474.064.372.24.819-.036 1.146-.468.644-.668 1.533-1.427 1.916-5.367.887-10.779 1.746-16.166 2.614-.264.05-.555-.095-.605-.376-1.062-4.686-1.995-9.41-3.159-14.065-.105-.406-.344-1.098.257-1.213 5.691-1.028 11.416-1.849 17.116-2.816Zm-6.677 2.164c-.496.018-.381.876.102.784.566.068.428-1.018-.102-.784Zm-2.682.504c-.416.127-.205.933.238.751.567-.043.308-1.056-.238-.75Zm7.788.255c-4.207.784-8.423 1.452-12.636 2.176a.612.612 0 0 0-.589.793c.597 2.992 1.212 5.982 1.834 8.968.17.637.95.265 1.397.22 3.963-.602 7.934-1.297 11.897-1.966.369-.102 1.077-.105.948-.678-.382-1.943-.72-3.898-1.135-5.834-.168-.273-.047-1.114-.154-1.028.048-.558-.088-1.125-.27-1.649.03-.229-.11-1.018-.27-.76-.12-.49-.672-.302-1.022-.242Zm2.166 11.334c-.253.102-.136.401-.09.6.331.596 1.34.431 1.307-.297.041-.669-.939-.847-1.217-.303Zm-12.492 1.464c-.276.198-.945-.095-.89.344.622-.14 1.323-.122 1.884-.424-.332.02-.667.024-.994.08Zm1.132.36c-.617.18-1.477.148-1.944.45.458-.024 1.872-.177 1.944-.45Zm-.12.57c-.548.177-1.274.085-1.705.443.662-.101 1.337-.188 1.978-.383.12-.17-.187-.048-.274-.06Zm-.078.507c-.454.172-1.331.05-1.504.434.576-.052 1.23-.32 1.865-.317.27-.246-.206-.123-.361-.117ZM27.935 37.742c.646.507.485 1.695.748 2.477-1.012.356-2.11.439-3.163.643-.246-.833-.37-1.714-.514-2.574.962-.239 1.953-.366 2.93-.546ZM24.74 38.305c.363.711.435 1.744.558 2.588-1.094.224-2.2.44-3.308.58-.261-.814-.456-1.729-.435-2.578 1.054-.23 2.126-.388 3.186-.59ZM12.263 42.113c.348-.004.294.797-.098.573-.323-.092-.192-.53.098-.573Z"/><path fill="#B3B3B3" d="M42.202 6.811c.196-.056.435-.074.538.144-.357-.201-.29.433.066.13.241-.031-.008.429-.043.583-.074-.418-.664-.303-.56-.857ZM11.601 42.875c-.214-.446.191-.92.595-1.091.77.276.875 1.48.197 1.931-.108-.205.425-.63.318-1-.306.304-.745.535-1.11.16Zm.662-.762c-.29.042-.421.48-.098.573.392.224.446-.577.098-.573Z"/><path fill="#C5C5C5" d="M51.605 21.21c.181.524.317 1.09.27 1.649-.214.057-.186-.952-.322-1.313.016-.113.035-.224.052-.336Z"/></svg>