<svg width="257" height="57" viewBox="0 0 257 57" fill="none" xmlns="http://www.w3.org/2000/svg">
<path opacity="0.98" d="M28.6217 5.9373C37.4539 4.61549 46.2989 3.42103 55.1318 2.1156C55.4617 2.16028 55.728 2.48124 55.8454 2.77911C56.4954 5.55603 57.0557 8.35454 57.7191 11.1277C57.841 11.5946 57.2853 11.888 57.3571 12.3684C57.2546 12.1747 57.2703 11.9588 57.3564 11.7622L57.4573 11.6229C57.6787 11.4129 57.6264 11.1218 57.5202 10.8693C56.7423 8.21007 56.2665 5.47709 55.6143 2.78805C55.5522 2.42017 55.1573 2.25486 54.8184 2.30549C45.6227 3.73156 36.4008 4.93049 27.1998 6.31337C27.1661 6.31932 27.0996 6.33198 27.0667 6.33794C27.3718 5.83379 28.1116 6.02443 28.6217 5.9373Z" fill="#371018"/>
<path d="M54.8185 2.30556C55.1573 2.25492 55.5522 2.42024 55.6143 2.78811C56.2666 5.47715 56.7423 8.21013 57.5202 10.8694C57.5149 10.9573 57.5097 11.0459 57.5037 11.1345C53.6336 11.62 49.7778 12.247 45.9159 12.7974C45.0116 12.9582 43.9794 13.2702 43.1753 12.6417C42.1296 11.7719 41.0869 10.8977 40.0352 10.0353C39.6194 9.71066 39.0786 9.5096 38.5497 9.63843C35.0013 10.3116 31.4439 10.9535 27.8842 11.5351C27.5529 10.0569 27.2955 8.56237 26.9978 7.07747C26.9163 6.80045 27.0457 6.53683 27.1998 6.31343C36.4008 4.93056 45.6227 3.73162 54.8185 2.30556ZM50.9701 4.27673C49.0657 4.25588 47.48 6.15928 47.8928 8.01428C48.3327 10.2982 51.3508 11.5113 53.2365 10.1068C54.5185 9.20354 55.0077 7.27481 54.075 5.96417C53.4459 4.90524 52.2027 4.22237 50.9701 4.27673ZM45.8082 4.42864C44.9832 4.6312 45.3968 6.02449 46.2106 5.7296C47.1329 5.5762 46.6856 4.02949 45.8082 4.42864ZM43.7034 4.72577C42.8552 4.72652 42.9 6.05279 43.7228 6.06024C44.6167 6.15779 44.6802 4.56641 43.7034 4.72577ZM41.0966 5.10035C40.6112 5.3096 40.6277 6.01332 40.9912 6.32609C41.3562 6.47205 41.9157 6.3879 42.0226 5.9463C42.2822 5.43024 41.5776 4.87173 41.0966 5.10035Z" fill="#F20B31"/>
<path d="M38.4032 11.0496C38.5804 11.0205 38.7742 11.0243 38.9193 11.1456C40.1811 12.1755 41.4542 13.1928 42.7318 14.2026C43.3174 14.7052 44.144 14.7775 44.8792 14.6702C48.7867 14.0224 52.7166 13.5986 56.6278 12.9753C57.7281 17.1314 58.4933 21.3813 59.6146 25.5329C60.8742 30.838 62.0597 36.1632 63.2872 41.4765C63.3694 41.758 63.3941 42.2115 62.9984 42.2443C55.5171 43.6219 47.9893 44.7092 40.5185 46.1524C40.1871 46.2365 39.7473 46.206 39.5356 45.9081C36.8084 34.7312 34.4104 23.4627 31.7139 12.2761C33.91 11.7645 36.1742 11.451 38.4032 11.0496ZM54.1064 15.298C48.0664 16.2646 42.0286 17.252 35.9849 18.1792C35.4815 18.2149 35.0462 18.766 35.1816 19.2589C36.2886 24.2639 37.3986 29.2689 38.5064 34.2739C38.5707 34.7684 39.1751 34.9114 39.591 34.8004C44.9421 33.8592 50.3208 33.1338 55.6712 32.1881C56.8732 32.0608 57.1597 30.7613 57.7281 29.922C58.0715 29.5013 57.877 28.9443 57.7969 28.4669C56.9196 24.2342 56.0452 19.9999 55.1393 15.7738C55.0496 15.2764 54.5365 15.1386 54.1064 15.298ZM58.4469 33.4034C57.3347 33.6849 56.7011 35.2674 57.5995 36.1126C58.331 36.9622 59.8068 36.5996 60.2346 35.6196C60.9138 34.507 59.6766 33.0095 58.4469 33.4034ZM55.0795 33.6953C54.2201 33.842 53.3636 34.0118 52.5064 34.1727C52.125 34.2643 52.2589 34.9084 52.6673 34.8295C53.5319 34.7275 54.3861 34.5197 55.2426 34.3581C55.7333 34.3015 55.5709 33.3967 55.0795 33.6953ZM49.9162 34.6634C49.0515 34.8622 48.1666 34.9702 47.3072 35.1854C47.008 35.2644 47.0259 35.7529 47.3513 35.7536C48.2452 35.6218 49.1285 35.4163 50.0201 35.2659C50.3926 35.2219 50.2243 34.5666 49.9162 34.6634ZM55.1573 36.0083C53.033 36.3918 50.8953 36.7031 48.771 37.0851C48.4606 37.097 48.4007 37.4306 48.4681 37.6756C48.6633 38.7822 48.8293 39.8948 49.035 40.9992C49.1083 41.4393 49.6342 41.4832 49.9932 41.4296C51.9282 41.1049 53.858 40.7497 55.7931 40.4213C56.0167 40.3744 56.3743 40.3074 56.3002 39.9998C56.1357 38.8366 55.8469 37.6928 55.6749 36.5311C55.6398 36.2816 55.4557 35.9405 55.1573 36.0083ZM42.5141 36.2272C41.9688 36.336 41.2178 36.3084 41.0293 36.9652C41.045 37.6168 41.3891 38.2193 41.4624 38.8686C40.7511 38.9952 39.9911 38.9327 39.3157 39.2149C38.7203 39.7958 39.3179 40.7445 39.469 41.4244C40.1557 41.7699 40.9687 41.1138 41.7093 41.2002C42.636 41.5942 42.0324 42.9472 42.743 43.5341C43.4842 43.5229 44.5538 43.4961 44.7678 42.6069C44.5389 41.971 44.1858 41.3603 44.1118 40.6715C44.7738 40.4913 45.4843 40.6425 46.1306 40.4124C46.904 39.8389 46.275 38.818 46.1097 38.0897C45.3527 37.6622 44.4035 38.5953 43.5912 38.2275C43.3144 37.5208 43.8231 35.8259 42.5141 36.2272ZM28.241 11.7466C28.6778 11.5932 29.1393 11.5411 29.5994 11.5143C29.731 12.3826 29.9606 13.233 30.1357 14.0931C29.8724 14.0581 29.6053 14.0439 29.3428 14.0864C29.1461 14.108 28.9494 14.1296 28.7526 14.1497C28.5956 13.3454 28.4123 12.5471 28.241 11.7466ZM18.4888 14.8288C21.0716 14.5399 23.6364 14.1102 26.2087 13.7327C28.4295 23.8909 30.488 34.0878 32.6743 44.2542C32.7207 45.121 33.5181 46.3683 32.5232 46.9521C32.0572 46.9544 31.595 47.0303 31.1335 47.0869C24.2288 48.3313 17.3436 49.7238 10.4187 50.8282C9.7478 50.826 9.77098 49.9875 9.64682 49.5153C7.68784 40.3639 5.85453 31.1761 3.75269 22.0649C6.6631 21.5079 9.61091 21.1847 12.5124 20.5718C14.3823 19.7936 15.1236 17.7331 16.3525 16.272C16.8013 15.4938 17.5418 14.8422 18.4888 14.8288ZM25.0045 21.0492C19.1851 21.9956 13.3494 22.8126 7.53974 23.8201C7.31834 23.8529 7.10292 24.0286 7.17173 24.2736C7.43951 25.935 7.82248 27.5793 8.05436 29.2466C8.13738 29.5862 8.49866 29.7716 8.82777 29.6465C14.7563 28.5608 20.7282 27.7774 26.6545 26.6834C26.8774 26.6261 26.8438 26.3453 26.8161 26.1711C26.4735 24.5477 26.1384 22.922 25.816 21.2942C25.7622 20.927 25.273 21.0626 25.0045 21.0492ZM26.5745 28.1274C20.7828 29.1349 14.98 30.0293 9.19055 31.042C8.69014 31.0495 8.36178 31.611 8.48819 32.0652C8.80608 33.6387 9.10154 35.2175 9.42841 36.7895C9.50021 37.2318 10.0418 37.2363 10.3821 37.1402C16.1266 36.0731 21.8846 35.1065 27.6434 34.1392C28.06 34.1406 28.419 33.8137 28.3151 33.3803C27.9717 31.7212 27.6015 30.0665 27.2649 28.4059C27.2282 28.07 26.8236 28.1132 26.5745 28.1274ZM28.5282 36.298C26.475 36.6681 24.4173 37.0144 22.3648 37.3815C21.382 37.8149 22.1419 38.9997 22.1352 39.7771C22.1786 40.1257 22.2474 40.67 22.7246 40.6231C24.899 40.2493 27.0749 39.8717 29.2426 39.4629C29.7976 39.2506 29.7445 38.5611 29.5762 38.0979C29.277 37.4828 29.5866 35.9592 28.5282 36.298ZM16.3398 36.6741C15.5447 36.8215 14.7511 36.9801 13.9545 37.1246C13.5977 37.1633 13.2588 37.5714 13.5491 37.8894C14.6164 37.8313 15.6629 37.5528 16.7041 37.3338C17.2621 37.173 16.7998 36.4201 16.3398 36.6741ZM12.7375 37.3539C11.8571 37.5409 10.9483 37.6362 10.0859 37.8886C9.59446 38.1024 10.062 38.6899 10.4584 38.5596C11.3246 38.3846 12.2184 38.2818 13.0614 38.0212C13.5064 37.797 13.1556 37.2393 12.7375 37.3539ZM11.8452 40.2433C11.0426 40.3535 10.5631 41.3082 10.8862 42.0328C11.1667 42.9011 12.5131 43.1982 13.0636 42.4267C13.932 41.6061 13.0322 39.9104 11.8452 40.2433ZM29.3488 41.7989C27.1437 42.2227 24.9289 42.6002 22.7269 43.0366C22.0402 43.1766 22.4419 44.0136 22.489 44.4776C22.6745 45.0078 22.5286 45.8426 23.1151 46.1114C25.4338 45.7309 27.7369 45.2282 30.0519 44.8164C30.2875 44.7829 30.6458 44.7039 30.574 44.386C30.4805 43.6294 30.3122 42.881 30.1589 42.1348C30.0766 41.7587 29.6674 41.6872 29.3488 41.7989ZM17.5291 44.0241C16.1865 44.0241 14.8371 44.3971 13.5289 44.6868C12.7741 44.7903 12.0172 44.9199 11.2834 45.1284C11.1757 45.8508 11.4622 46.5537 11.54 47.2664C11.5871 47.6238 11.7143 48.195 12.1907 48.1325C14.8281 47.7139 17.4311 47.0393 20.0812 46.7146C20.9474 46.0265 20.1216 44.7025 20.0446 43.7872C19.2809 43.4276 18.3414 43.9176 17.5291 44.0241ZM29.0601 14.5675C29.458 14.4922 29.8656 14.4647 30.2681 14.528C32.2801 24.1776 34.5151 33.7884 36.697 43.3985C36.1944 43.3725 35.7052 43.5028 35.2302 43.651C32.987 34.2546 31.123 24.7703 29.0122 15.3434C28.9307 15.085 28.9366 14.8117 29.0601 14.5675ZM35.3319 44.0665C35.8495 43.8721 36.4068 43.7738 36.9595 43.8334C36.9034 43.8327 36.7912 43.8319 36.7351 43.8319C36.9349 44.7039 37.1211 45.5797 37.3216 46.4525C36.8526 46.4793 36.3798 46.5329 35.9423 46.7131C35.6259 45.8627 35.5159 44.9512 35.3319 44.0665Z" fill="#F20B31"/>
<path d="M50.9701 4.27671C52.2028 4.22234 53.4459 4.90522 54.075 5.96415C55.0077 7.27479 54.5185 9.20352 53.2365 10.1068C51.3508 11.5113 48.3327 10.2982 47.8929 8.01426C47.48 6.15926 49.0657 4.25586 50.9701 4.27671ZM50.6021 4.45022C49.1128 4.66245 47.8211 6.10713 48.0559 7.64117C48.1277 9.11937 49.4217 10.3392 50.8698 10.4888C52.5005 10.8582 54.2709 9.49543 54.348 7.83852C54.532 5.8316 52.5558 4.14713 50.6021 4.45022Z" fill="#471E21"/>
<path d="M45.8081 4.42863C46.6855 4.02948 47.1328 5.57618 46.2105 5.72959C45.3967 6.02448 44.9831 4.63118 45.8081 4.42863ZM45.8141 4.5731C45.4439 4.91788 45.7042 5.68342 46.2696 5.40639C46.9787 5.29916 46.3452 4.31097 45.8141 4.5731Z" fill="#530310"/>
<path d="M50.602 4.45023C52.5557 4.14715 54.5319 5.83162 54.3479 7.83853C54.2708 9.49545 52.5004 10.8582 50.8697 10.4889C49.4216 10.3392 48.1276 9.11938 48.0558 7.64119C47.8209 6.10715 49.1127 4.66247 50.602 4.45023ZM50.6663 4.65428C48.4867 4.98789 47.8314 8.19002 49.667 9.37853C51.157 10.5752 53.7166 9.5796 53.9118 7.65981C54.3367 5.89343 52.4076 4.13226 50.6663 4.65428Z" fill="#F5F5F5"/>
<path d="M45.8142 4.57313C46.3453 4.311 46.9789 5.29919 46.2698 5.40643C45.7043 5.68345 45.444 4.91791 45.8142 4.57313Z" fill="#F9062D"/>
<path d="M50.6664 4.65428C52.4077 4.13226 54.3368 5.89343 53.9119 7.65981C53.7167 9.5796 51.1571 10.5752 49.6671 9.37854C47.8315 8.19003 48.4868 4.9879 50.6664 4.65428ZM48.9946 6.14662C48.9438 6.07216 48.8054 6.51375 48.8144 6.67162C48.2444 8.62269 50.6589 10.4725 52.3823 9.47311C53.9246 8.83269 54.2313 6.6046 53.0704 5.47418C51.9357 4.23726 49.6559 4.59322 48.9946 6.14662Z" fill="#15313E"/>
<path d="M43.7033 4.72571C44.6802 4.56634 44.6166 6.15773 43.7228 6.06017C42.9 6.05273 42.8551 4.72645 43.7033 4.72571ZM43.6382 4.87017C43.1191 4.99826 43.1423 5.90453 43.7602 5.83379C44.5261 5.91347 44.3526 4.6423 43.6382 4.87017Z" fill="#490E0D"/>
<path d="M48.9947 6.14658C49.6559 4.59318 51.9357 4.23722 53.0704 5.47414C54.2313 6.60456 53.9246 8.83265 52.3823 9.47307C53.1422 8.75967 53.6471 7.6985 53.214 6.66414C53.0442 7.63967 51.736 8.11105 51.0688 7.31648C50.3994 6.58892 50.9499 5.50914 51.8168 5.26786C50.7816 4.90967 49.5938 5.37509 48.9991 6.27243C48.9984 6.24116 48.9961 6.1786 48.9947 6.14658ZM52.0913 5.76605C51.5228 5.89712 51.6635 6.66041 52.2095 6.6835C52.8393 6.70286 52.7293 5.56722 52.0913 5.76605ZM26.8834 28.2599C26.9305 28.2517 27.0255 28.2353 27.0734 28.2264C27.2806 29.1036 27.505 29.9838 27.6172 30.8782C26.5775 31.0212 25.5453 31.22 24.5146 31.4173C24.3208 30.5498 24.065 29.642 24.0321 28.773C24.9693 28.5481 25.9357 28.4438 26.8834 28.2599ZM22.9213 28.8661C23.2243 28.8236 23.5302 28.8124 23.8354 28.8147C23.979 29.6882 24.1802 30.552 24.3133 31.4285C23.1427 31.6028 21.9707 31.7763 20.8015 31.9624C20.6632 31.0822 20.4747 30.2109 20.3303 29.3322C21.186 29.1356 22.0567 29.015 22.9213 28.8661ZM19.9204 29.3866C19.9975 29.3769 20.0753 29.368 20.153 29.3605C20.2316 30.2549 20.4552 31.1269 20.5734 32.0161C19.316 32.2514 18.0557 32.4792 16.7908 32.6743C16.6345 31.7867 16.4632 30.902 16.3166 30.0129C17.5149 29.788 18.7162 29.5772 19.9204 29.3866ZM15.6621 30.1179C15.802 30.0978 15.9426 30.0821 16.084 30.068C16.2515 30.9489 16.4146 31.8306 16.5769 32.7131C15.3704 32.9484 14.1587 33.1629 12.9447 33.358C12.7779 32.4696 12.6126 31.5789 12.4892 30.6831C13.5431 30.4723 14.6037 30.3025 15.6621 30.1179ZM11.703 30.727C11.9117 30.7002 12.1219 30.7263 12.3306 30.7479C12.4697 31.6325 12.6545 32.5098 12.7734 33.3967C11.6088 33.6573 10.415 33.7035 9.24666 33.9396C9.13296 33.0571 8.76869 32.1821 8.82404 31.2945C9.74631 30.9809 10.7494 30.9348 11.703 30.727ZM27.2544 31.0763C27.3958 31.0539 27.5387 31.0361 27.6808 31.0189C27.8805 31.8731 28.0705 32.7302 28.2171 33.5948C27.1617 33.8428 26.0853 34.0111 25.0135 34.1741C24.8601 33.3051 24.6694 32.4428 24.5213 31.573C25.4249 31.3697 26.3449 31.2483 27.2544 31.0763ZM24.267 31.5946C24.5729 32.2908 24.7569 33.3714 24.7861 34.2076C23.6723 34.4839 22.5174 34.6128 21.3895 34.8429C21.1404 33.979 21.0162 33.0824 20.8763 32.1955C22.0066 31.9959 23.1398 31.8083 24.267 31.5946ZM20.4492 32.2767C20.9698 32.7175 20.8412 34.0148 21.109 34.793C19.8202 35.0655 18.5172 35.2748 17.2209 35.5093C17.1633 34.6105 16.9704 33.7303 16.832 32.8419C18.028 32.585 19.2532 32.5351 20.4492 32.2767ZM16.1857 32.9506C16.3249 32.9313 16.4647 32.9156 16.6053 32.9015C16.7437 33.7765 16.9449 34.6403 17.0609 35.519C15.8544 35.7648 14.6411 35.983 13.4242 36.1743C13.2776 35.2867 13.0921 34.4042 12.9903 33.5099C14.057 33.3326 15.1198 33.1346 16.1857 32.9506ZM12.4436 33.6112C12.5625 33.5903 12.6822 33.5709 12.8018 33.5523C13.0375 34.4229 13.003 35.3321 13.2035 36.2079C12.1129 36.4112 11.0141 36.6904 9.91087 36.7574C9.52715 35.9673 9.49723 35.0283 9.31398 34.1689C10.3552 33.9716 11.4001 33.7944 12.4436 33.6112Z" fill="#2CBBFF"/>
<path d="M43.6384 4.87016C44.3527 4.64229 44.5262 5.91346 43.7603 5.83378C43.1425 5.90452 43.1193 4.99825 43.6384 4.87016Z" fill="#D9BB14"/>
<path d="M41.0966 5.10029C41.5775 4.87168 42.2821 5.43019 42.0226 5.94625C41.9156 6.38785 41.3561 6.472 40.9911 6.32604C40.6276 6.01327 40.6111 5.30955 41.0966 5.10029ZM40.9021 5.96412C41.1183 6.64923 42.2978 6.12944 41.8431 5.48083C41.766 5.4071 41.6912 5.33189 41.6172 5.25519C41.1833 5.05487 40.6411 5.51434 40.9021 5.96412ZM58.4469 33.4034C59.6766 33.0094 60.9137 34.507 60.2346 35.6196C59.8067 36.5996 58.3309 36.9622 57.5994 36.1125C56.7011 35.2673 57.3346 33.6849 58.4469 33.4034ZM58.5995 33.4726C57.2546 33.7161 57.0691 35.837 58.4057 36.2116C59.5479 36.7753 60.7641 35.2279 60.1164 34.2009C59.7925 33.6916 59.1919 33.4384 58.5995 33.4726ZM49.9161 34.6634C50.2243 34.5666 50.3926 35.2219 50.0201 35.2658C49.1285 35.4163 48.2451 35.6218 47.3512 35.7536C47.0259 35.7529 47.0079 35.2643 47.3071 35.1854C48.1665 34.9702 49.0514 34.8622 49.9161 34.6634ZM49.9812 34.8116C49.0903 35.0789 47.7567 34.8585 47.1785 35.595C48.1673 35.5741 49.1531 35.3247 50.1061 35.0685C50.0687 34.9754 50.1502 34.7423 49.9812 34.8116Z" fill="#030608"/>
<path d="M48.9992 6.27239C49.5938 5.37505 50.7816 4.90962 51.8168 5.26782C50.9499 5.50909 50.3994 6.58888 51.0688 7.31643C51.736 8.11101 53.0443 7.63963 53.2141 6.66409C53.6471 7.69845 53.1423 8.75963 52.3823 9.47303C50.6589 10.4724 48.2444 8.6226 48.8144 6.67154C48.8054 6.51367 48.9438 6.07207 48.9947 6.14654C48.9962 6.17856 48.9984 6.24111 48.9992 6.27239Z" fill="#1B74AD"/>
<path d="M40.9022 5.96412C40.6411 5.51434 41.1834 5.05487 41.6173 5.25519C41.0495 5.35646 41.618 6.07508 41.8431 5.48083C42.2979 6.12944 41.1184 6.64923 40.9022 5.96412Z" fill="#367740"/>
<path d="M41.843 5.48089C41.6178 6.07514 41.0494 5.35653 41.6171 5.25525C41.6911 5.33195 41.7659 5.40716 41.843 5.48089Z" fill="#E8E8E8"/>
<path d="M52.0912 5.76605C52.7293 5.56722 52.8392 6.70286 52.2094 6.6835C51.6634 6.66041 51.5228 5.89711 52.0912 5.76605Z" fill="#B1EFFF"/>
<path d="M26.0239 10.2684C25.3799 8.8624 26.2161 7.37155 27.0666 6.33793C27.0995 6.33197 27.1661 6.31931 27.1998 6.31335C27.0457 6.53676 26.9163 6.80038 26.9978 7.0774C27.2955 8.56229 27.5528 10.0569 27.8842 11.5351C31.4438 10.9535 35.0012 10.3115 38.5497 9.63835C39.0785 9.50952 39.6193 9.71059 40.0352 10.0353C41.0869 10.8976 42.1296 11.7719 43.1752 12.6417C43.9793 13.2702 45.0115 12.9581 45.9159 12.7973C49.7777 12.247 53.6336 11.62 57.5037 11.1344C57.5097 11.0458 57.5149 10.9572 57.5201 10.8693C57.6263 11.1218 57.6787 11.4129 57.4573 11.6229C57.4491 11.5209 57.4416 11.4196 57.4341 11.3176C53.5229 11.9052 49.6019 12.4145 45.6989 13.0564C44.844 13.1063 43.8641 13.4459 43.1214 12.8427C42.0398 11.9357 40.9395 11.048 39.8602 10.138C39.4323 9.79846 38.8392 9.74187 38.3178 9.84984C35.5847 10.3704 32.8418 10.841 30.1109 11.3712C30.3069 11.4896 30.4954 11.6252 30.7078 11.713C33.2345 11.235 35.7993 10.7032 38.3694 10.4106C38.7382 10.3726 39.163 10.3428 39.4622 10.6064C40.5536 11.5909 41.7511 12.4488 42.906 13.3565C43.3974 13.7646 44.0908 13.8838 44.7086 13.7579C48.7724 12.9998 52.8871 12.6111 56.9666 11.9595C57.111 11.9275 57.2381 11.8478 57.3563 11.7622C57.2703 11.9588 57.2546 12.1747 57.3571 12.3684C57.675 13.297 57.8485 14.2792 58.043 15.2398C58.0332 15.3836 58.0198 15.5273 58.0115 15.6718C57.5957 14.5503 57.4498 13.3484 57.1394 12.1956C53.1384 12.6588 49.1509 13.2441 45.1671 13.8384C44.3743 14.0647 43.4744 14.0848 42.808 13.5286C41.6456 12.6297 40.4817 11.7324 39.3605 10.7837C38.9626 10.4203 38.3956 10.5685 37.9206 10.6481C35.6385 11.0726 33.3489 11.4479 31.0526 11.783C32.1342 16.6547 33.2038 21.5302 34.3886 26.3765C35.9317 33.2954 37.4689 40.215 39.0299 47.1286C47.0132 45.8097 54.9792 44.3598 62.9595 43.0269C63.4225 42.9777 63.9072 42.8556 64.1764 42.4401C64.1278 42.5957 64.0747 42.7498 64.0313 42.9077C63.9693 43.0112 64.0171 43.2235 63.8855 43.2533C63.7972 43.2711 63.7097 43.2897 63.6229 43.3091C63.6753 43.2183 63.7277 43.1274 63.7823 43.038C55.5626 44.5654 47.3064 45.85 39.0815 47.3535C39.5378 47.8941 38.4158 48.8853 39.0531 48.8495C38.6701 48.9396 38.2849 49.0215 37.9079 49.1325C38.4495 48.7669 39.1713 48.2493 38.9132 47.4935C37.9977 45.8395 34.269 46.6773 34.9384 48.7676C34.7843 48.5263 34.5442 48.3647 34.2495 48.4645C34.7297 48.51 34.4754 48.0401 34.4664 47.7459C30.3383 48.4154 26.2393 49.2732 22.0992 49.8556C18.0107 50.537 13.9492 51.3986 9.84273 51.9519C9.28773 52.1135 8.907 51.5981 8.88905 51.0992C7.12455 41.8331 5.1925 32.5984 3.32254 23.3524C3.18416 22.8095 3.17219 22.2302 2.92236 21.7193C2.97248 21.5525 3.01885 21.3842 3.06373 21.2152C5.08853 31.2527 7.14101 41.2858 9.18675 51.3189C9.2219 51.5922 9.38197 51.8804 9.70435 51.7999C17.9427 50.4156 26.175 48.9791 34.4096 47.5702C31.9973 35.98 29.4781 24.4098 27.0457 12.8234C26.5834 12.8703 26.1182 12.8718 25.6537 12.8911C26.175 12.7869 26.837 12.8435 26.4735 12.1293C26.6305 13.2314 27.4032 12.0079 27.7376 11.6944C27.4047 10.147 27.1526 8.58314 26.7958 7.04091C25.9708 8.07453 25.8025 9.33229 26.19 10.5804C26.1361 10.4754 26.0778 10.3726 26.0239 10.2684ZM28.2409 11.7465C26.5961 12.1986 27.5191 14.0074 27.7076 15.1371C28.048 14.5078 28.7354 14.3388 29.3427 14.0863C29.6053 14.0439 29.8723 14.058 30.1356 14.093C30.3989 14.1243 30.6614 14.1601 30.924 14.1943C31.0294 14.4028 31.2853 14.4505 31.4835 14.5346C31.2112 13.5941 31.3391 12.3274 30.4011 11.7458C30.1446 11.6341 29.8805 11.5351 29.5993 11.5142C29.1393 11.541 28.6778 11.5931 28.2409 11.7465ZM29.06 14.5674C28.5506 14.9181 27.8281 15.2987 27.8834 16.0165C29.9314 25.5276 31.8836 35.061 34.0461 44.5445C34.3737 44.1647 34.7297 43.7931 35.2301 43.6509C35.7051 43.5027 36.1943 43.3724 36.6969 43.3985C36.9677 43.4014 37.237 43.4491 37.4793 43.5757C37.6476 43.7179 37.9423 43.7894 38.1331 43.951C37.3178 40.0325 36.4134 36.1311 35.4635 32.2439C34.2189 26.6573 32.9697 21.0714 31.7221 15.4856C31.672 15.1557 31.4087 14.9204 31.1027 14.8191C30.9771 14.5048 30.541 14.5845 30.268 14.5279C29.8656 14.4646 29.4579 14.4922 29.06 14.5674ZM35.3319 44.0664C34.8397 44.2727 34.2847 44.6354 34.1994 45.1969C34.3206 46.0078 34.5143 46.8113 34.7043 47.6104C35.0282 47.2038 35.4156 46.8285 35.9422 46.713C36.3798 46.5328 36.8525 46.4792 37.3215 46.4524C37.6267 46.4837 37.9296 46.5328 38.2288 46.6021C38.353 46.7793 38.6417 46.8307 38.8242 46.9722C38.4876 46.0339 38.7195 44.6883 37.703 44.1536C37.504 43.9689 37.228 43.8624 36.9595 43.8334C36.4067 43.7738 35.8495 43.8721 35.3319 44.0664Z" fill="#42030D"/>
<path d="M13.5288 44.6868C14.837 44.3971 16.1864 44.024 17.529 44.024C16.2103 44.3033 14.8842 44.6578 13.5288 44.6868Z" fill="#42030D"/>
<path d="M26.19 10.5805C25.8025 9.3324 25.9708 8.07463 26.7958 7.04102C27.1526 8.58325 27.4047 10.1471 27.7375 11.6945C27.4032 12.008 26.6305 13.2315 26.4734 12.1294C26.3972 11.6096 26.2924 11.0951 26.19 10.5805ZM38.3178 9.84995C38.8392 9.74197 39.4323 9.79857 39.8602 10.1381C40.9395 11.0481 42.0398 11.9358 43.1214 12.8428C43.8641 13.446 44.844 13.1064 45.6989 13.0565C49.6019 12.4146 53.5229 11.9053 57.4341 11.3177C57.4416 11.4197 57.4491 11.521 57.4573 11.623L57.3563 11.7623C57.2381 11.8479 57.111 11.9276 56.9666 11.9596C52.8871 12.6112 48.7724 13 44.7086 13.758C44.0908 13.8839 43.3974 13.7647 42.906 13.3567C41.7511 12.4489 40.5535 11.591 39.4622 10.6065C39.163 10.3429 38.7382 10.3727 38.3694 10.4107C35.7993 10.7034 33.2345 11.2351 30.7078 11.7131C30.4954 11.6253 30.3069 11.4897 30.1109 11.3713C32.8418 10.8411 35.5847 10.3705 38.3178 9.84995Z" fill="#96061E"/>
<path d="M27.7077 15.1372C27.5192 14.0076 26.5961 12.1987 28.241 11.7467C28.4123 12.5472 28.5955 13.3455 28.7526 14.1498C28.9493 14.1297 29.146 14.1081 29.3428 14.0865C28.7354 14.3389 28.048 14.508 27.7077 15.1372ZM27.8834 16.0167C27.8281 15.2988 28.5506 14.9183 29.06 14.5676C28.9366 14.8118 28.9306 15.0851 29.0121 15.3435C31.123 24.7704 32.9869 34.2547 35.2301 43.6511C34.7297 43.7933 34.3737 44.1649 34.0461 44.5447C31.8837 35.0612 29.9314 25.5278 27.8834 16.0167ZM2.92238 21.7195C3.17221 22.2303 3.18418 22.8097 3.32255 23.3526C5.19252 32.5985 7.12457 41.8333 8.88907 51.0994C8.90702 51.5983 9.28774 52.1136 9.84275 51.952C13.9492 51.3987 18.0108 50.5371 22.0993 49.8557C26.2394 49.2734 30.3383 48.4155 34.4665 47.7461C34.4754 48.0402 34.7297 48.5101 34.2495 48.4647C26.018 49.855 17.7976 51.3369 9.56375 52.7079C9.26007 52.7667 8.94891 52.5902 8.91001 52.2722C6.95702 42.5415 4.9599 32.8189 2.98596 23.0919C2.89545 22.6414 2.70696 22.1663 2.92238 21.7195ZM39.0815 47.3536C47.3064 45.8501 55.5627 44.5655 63.7823 43.0382C63.7277 43.1276 63.6753 43.2184 63.623 43.3093C63.3051 43.946 62.8316 44.5916 62.0529 44.643C54.3846 46.0385 46.7058 47.3648 39.0531 48.8497C38.4158 48.8854 39.5378 47.8943 39.0815 47.3536ZM34.1994 45.197C34.2847 44.6355 34.8397 44.2729 35.3319 44.0666C35.5159 44.9513 35.6258 45.8628 35.9422 46.7132C35.4156 46.8286 35.0282 47.2039 34.7043 47.6105C34.5143 46.8115 34.3206 46.008 34.1994 45.197Z" fill="#96061E"/>
<path d="M34.9383 48.7678C34.2689 46.6774 37.9976 45.8397 38.9131 47.4936C39.1712 48.2495 38.4494 48.767 37.9078 49.1327C36.9646 49.5497 35.6796 49.5742 34.9383 48.7678Z" fill="#96061E"/>
<path opacity="0.95" d="M26.0239 10.2684C26.0778 10.3727 26.1361 10.4755 26.19 10.5805C26.2924 11.095 26.3972 11.6096 26.4735 12.1294C26.837 12.8435 26.175 12.7869 25.6537 12.8912C23.0163 13.3566 20.3467 13.5569 17.7041 13.9755C17.2156 14.0343 16.7055 14.2085 16.434 14.6472C15.5072 15.9384 14.6052 17.2468 13.7031 18.5545C13.3186 19.1353 12.7157 19.6268 11.9999 19.6968C9.01771 20.1757 6.01903 20.5771 3.06374 21.2152C3.01886 21.3843 2.97248 21.5526 2.92237 21.7194C2.70695 22.1662 2.89544 22.6413 2.98595 23.0918C4.95988 32.8189 6.957 42.5414 8.91 52.2722C8.94889 52.5901 9.26005 52.7666 9.56374 52.7078C17.7976 51.3368 26.0179 49.8549 34.2495 48.4646C34.5442 48.3648 34.7843 48.5264 34.9384 48.7677C35.6797 49.5742 36.9647 49.5496 37.9079 49.1326C38.2849 49.0216 38.6701 48.9397 39.0531 48.8496C46.7057 47.3647 54.3846 46.0384 62.0529 44.6429C62.8316 44.5915 63.3051 43.9459 63.6229 43.3092C63.7097 43.2898 63.7972 43.2712 63.8855 43.2533C63.504 43.8111 63.2235 44.5617 62.4651 44.6868C54.5087 46.2872 46.4948 47.5531 38.5273 49.0939C37.2796 49.6174 35.3939 49.9972 34.5996 48.5689C31.7729 49.044 28.9568 49.5749 26.1339 50.0709C20.5427 50.8573 15.021 52.1389 9.42461 52.8657C8.54947 52.8545 8.58313 51.7479 8.4814 51.1216C8.27271 49.1229 7.7566 47.1487 7.33848 45.1813C5.7707 37.5126 4.20965 29.8409 2.65234 22.1699C2.68675 21.7045 2.82139 20.9963 3.40931 20.974C6.30925 20.4497 9.21518 19.9567 12.1189 19.4489C12.5811 19.3684 13.0486 19.1666 13.3194 18.7675C14.3277 17.3846 15.2933 15.9712 16.2724 14.5682C16.7317 13.8578 17.6652 13.8548 18.4124 13.7208C21.0625 13.2598 23.7471 13.0826 26.4002 12.6477C26.3575 11.8419 26.071 11.0719 26.0239 10.2684Z" fill="#2C171B"/>
<path d="M37.9206 10.6482C38.3956 10.5685 38.9626 10.4204 39.3605 10.7838C40.4817 11.7325 41.6456 12.6298 42.808 13.5287C43.4744 14.0849 44.3742 14.0648 45.1671 13.8384C49.1509 13.2442 53.1384 12.6589 57.1394 12.1957C57.4498 13.3484 57.5957 14.5504 58.0115 15.6718C59.9152 23.8611 61.845 32.0422 63.7942 40.2195C63.9296 40.9567 64.2273 41.6791 64.1764 42.4401C63.9072 42.8557 63.4225 42.9778 62.9595 43.0269C54.9792 44.3599 47.0131 45.8098 39.0299 47.1287C37.4688 40.215 35.9317 33.2955 34.3886 26.3766C33.2038 21.5303 32.1342 16.6548 31.0526 11.7831C33.3489 11.448 35.6385 11.0727 37.9206 10.6482ZM38.2497 10.9022C36.0118 11.2067 33.7686 11.5642 31.565 12.0631C31.6054 12.7021 31.7954 13.3164 31.9255 13.9397C34.3004 24.4159 36.8121 34.8593 39.1211 45.3518C39.1989 45.7972 39.4966 46.3877 40.0142 46.3773C47.6587 45.0659 55.3076 43.7404 62.9617 42.4997C63.4419 42.4357 63.6902 41.8749 63.5249 41.4467C61.1957 31.9833 59.1874 22.4358 56.8148 12.9865C56.7818 12.9024 56.7026 12.8331 56.6091 12.8368C52.442 13.3105 48.2997 14.0321 44.1319 14.5168C43.5402 14.5384 43.0137 14.1966 42.5746 13.8377C41.3726 12.8778 40.1549 11.9313 38.982 10.9394C38.7501 10.8426 38.4913 10.8709 38.2497 10.9022ZM25.6537 12.8912C26.1182 12.8718 26.5834 12.8704 27.0457 12.8234C29.4781 24.4099 31.9973 35.98 34.4096 47.5702C26.175 48.9792 17.9427 50.4157 9.70434 51.8C9.38196 51.8805 9.22189 51.5923 9.18674 51.319C7.14099 41.2859 5.08852 31.2528 3.06372 21.2153C6.01901 20.5771 9.01769 20.1757 11.9999 19.6968C12.7157 19.6268 13.3186 19.1354 13.7031 18.5545C14.6051 17.2468 15.5072 15.9384 16.434 14.6472C16.7055 14.2085 17.2156 14.0343 17.7041 13.9755C20.3467 13.557 23.0163 13.3566 25.6537 12.8912ZM24.2774 13.586C22.8023 13.659 21.3505 14.0812 19.8665 14.1222C18.746 14.3351 17.4542 14.3031 16.606 15.1871C15.6284 16.4977 14.6852 17.8374 13.6769 19.1257C13.2423 19.6417 12.6948 20.16 11.9797 20.195C9.53231 20.6754 7.05572 20.9524 4.60607 21.4104C4.19243 21.4655 3.47362 21.5101 3.61125 22.1089C5.58892 31.4985 7.58829 40.8867 9.56222 50.2779C9.65124 50.9161 10.4134 51.205 10.9767 50.9973C18.2052 49.56 25.4981 48.446 32.7139 46.9782C33.2846 47.0393 33.5741 46.3259 33.4604 45.8538C31.2284 35.1668 28.9725 24.4844 26.7629 13.793C26.4121 12.7773 25.0455 13.5689 24.2774 13.586ZM37.703 44.1537C38.7195 44.6883 38.4876 46.034 38.8242 46.9723C38.6417 46.8308 38.353 46.7794 38.2288 46.6022C38.0553 45.786 37.8458 44.9765 37.703 44.1537Z" fill="#F30B31"/>
<path d="M38.2497 10.9022C38.4913 10.8709 38.7501 10.8426 38.982 10.9394C40.1548 11.9313 41.3725 12.8778 42.5746 13.8377C43.0136 14.1966 43.5402 14.5384 44.1319 14.5168C48.2996 14.032 52.442 13.3105 56.609 12.8368C56.7025 12.8331 56.7818 12.9024 56.8147 12.9865C59.1873 22.4358 61.1957 31.9833 63.5249 41.4467C63.6902 41.8749 63.4419 42.4357 62.9617 42.4997C55.3075 43.7404 47.6586 45.0659 40.0142 46.3773C39.4966 46.3877 39.1989 45.7972 39.1211 45.3518C36.8121 34.8593 34.3003 24.4159 31.9255 13.9397C31.7953 13.3164 31.6053 12.702 31.5649 12.0631C33.7685 11.5642 36.0117 11.2067 38.2497 10.9022ZM38.403 11.0496C36.174 11.451 33.9099 11.7645 31.7138 12.2761C34.4103 23.4627 36.8083 34.7312 39.5355 45.9081C39.7472 46.206 40.187 46.2365 40.5183 46.1524C47.9892 44.7092 55.517 43.6219 62.9983 42.2443C63.394 42.2115 63.3693 41.758 63.287 41.4765C62.0596 36.1632 60.874 30.838 59.6144 25.5329C58.4932 21.3813 57.728 17.1314 56.6277 12.9753C52.7165 13.5986 48.7866 14.0224 44.8791 14.6702C44.1438 14.7775 43.3173 14.7052 42.7316 14.2026C41.4541 13.1928 40.181 12.1756 38.9191 11.1457C38.774 11.0243 38.5803 11.0206 38.403 11.0496Z" fill="#500310"/>
<path d="M29.5994 11.5143C29.8806 11.5351 30.1446 11.6342 30.4012 11.7459C30.577 12.562 30.7759 13.373 30.924 14.1944C30.6615 14.1601 30.399 14.1244 30.1357 14.0931C29.9606 13.233 29.731 12.3826 29.5994 11.5143ZM30.2681 14.528C30.5411 14.5846 30.9772 14.5049 31.1028 14.8192C32.7424 22.3993 34.4643 29.9623 36.133 37.5357C36.6506 39.5299 37.1899 41.545 37.4794 43.5758C37.2371 43.4492 36.9678 43.4015 36.697 43.3985C34.5151 33.7884 32.2801 24.1776 30.2681 14.528ZM36.7352 43.8319C36.7913 43.8319 36.9035 43.8327 36.9595 43.8334C37.2281 43.8625 37.5041 43.969 37.703 44.1536C37.8459 44.9765 38.0553 45.786 38.2289 46.6021C37.9297 46.5329 37.6268 46.4837 37.3216 46.4525C37.1211 45.5797 36.9349 44.704 36.7352 43.8319Z" fill="#FF7088"/>
<path d="M30.4011 11.7458C31.3391 12.3274 31.2112 13.5941 31.4835 14.5347C31.2852 14.4505 31.0294 14.4029 30.924 14.1944C30.7759 13.373 30.5769 12.562 30.4011 11.7458Z" fill="#F30A31"/>
<path d="M24.2773 13.586C25.0455 13.5689 26.4121 12.7773 26.7629 13.793C28.9725 24.4844 31.2284 35.1668 33.4604 45.8538C33.5741 46.3259 33.2846 47.0393 32.7139 46.9782C32.666 46.9715 32.571 46.9581 32.5231 46.9522C33.518 46.3683 32.7206 45.121 32.6742 44.2542C32.681 44.1901 32.6959 44.0628 32.7034 43.9988C32.951 44.8708 33.0939 45.7659 33.1844 46.6655C33.2666 46.4406 33.3437 46.2023 33.2913 45.9617C31.099 35.461 28.8872 24.964 26.7031 14.461C26.6118 14.1341 26.6485 13.7156 26.3814 13.4743C25.6746 13.3864 24.9819 13.8131 24.2773 13.586Z" fill="#300209"/>
<path d="M24.2774 13.586C24.982 13.8131 25.6746 13.3864 26.3814 13.4743C26.6485 13.7155 26.6118 14.1341 26.7031 14.461C28.8872 24.964 31.099 35.461 33.2913 45.9617C33.3437 46.2023 33.2666 46.4406 33.1844 46.6654C33.0939 45.7659 32.951 44.8708 32.7034 43.9987C32.6959 44.0628 32.681 44.1901 32.6742 44.2542C30.4879 34.0878 28.4294 23.8909 26.2087 13.7327C23.6363 14.1102 21.0715 14.5399 18.4887 14.8288C17.5417 14.8423 16.8012 15.4938 16.3524 16.272C15.1235 17.7331 14.3822 19.7936 12.5123 20.5718C9.61084 21.1847 6.66302 21.5079 3.75261 22.0649C5.85445 31.1761 7.68776 40.364 9.64674 49.5153C9.77091 49.9875 9.74772 50.826 10.4187 50.8282C17.3435 49.7238 24.2287 48.3313 31.1334 47.0869C31.5949 47.0303 32.0572 46.9544 32.5232 46.9521C32.571 46.9581 32.666 46.9715 32.7139 46.9782C25.4981 48.446 18.2052 49.56 10.9767 50.9973C10.4134 51.205 9.65123 50.9161 9.56222 50.2779C7.58828 40.8867 5.58892 31.4985 3.61124 22.1088C3.47361 21.5101 4.19243 21.4654 4.60606 21.4103C7.05572 20.9524 9.5323 20.6753 11.9797 20.195C12.6948 20.16 13.2423 19.6417 13.6769 19.1257C14.6852 17.8374 15.6284 16.4977 16.606 15.187C17.4542 14.3031 18.746 14.3351 19.8665 14.1221C21.3505 14.0812 22.8023 13.659 24.2774 13.586ZM15.4436 17.1649C14.564 18.1062 13.9753 19.3066 12.9424 20.1153C14.1062 19.533 14.8146 18.028 15.4436 17.1649Z" fill="#540310"/>
<path d="M31.1027 14.8191C31.4087 14.9204 31.672 15.1557 31.7221 15.4856C32.9697 21.0714 34.2189 26.6573 35.4635 32.2439C36.4134 36.1311 37.3178 40.0325 38.1331 43.951C37.9423 43.7894 37.6476 43.7179 37.4793 43.5757C37.1899 41.5449 36.6506 39.5298 36.1329 37.5356C34.4642 29.9622 32.7423 22.3992 31.1027 14.8191ZM15.4436 17.1648C14.8146 18.0279 14.1062 19.5329 12.9424 20.1153C13.9754 19.3065 14.564 18.1061 15.4436 17.1648Z" fill="#F20A31"/>
<path d="M54.1063 15.2979C54.5364 15.1386 55.0495 15.2763 55.1393 15.7738C56.0451 19.9998 56.9195 24.2341 57.7969 28.4669C57.8769 28.9442 58.0714 29.5012 57.728 29.922C57.1596 30.7612 56.8731 32.0607 55.6711 32.188C50.3207 33.1338 44.942 33.8591 39.5909 34.8004C39.175 34.9113 38.5706 34.7684 38.5063 34.2739C37.3985 29.2689 36.2885 24.2639 35.1815 19.2589C35.0461 18.7659 35.4814 18.2148 35.9848 18.1791C42.0286 17.252 48.0663 16.2645 54.1063 15.2979ZM53.4077 15.5578C47.4477 16.6607 41.398 17.3048 35.4844 18.5827C35.2294 18.9625 35.272 19.4264 35.4081 19.8405C36.4748 24.6414 37.5369 29.4439 38.599 34.2456C38.6439 34.5144 38.9207 34.6835 39.181 34.676C42.9778 34.2679 46.7162 33.3914 50.5115 32.9543C52.3762 32.6051 54.2709 32.3921 56.1184 31.9654C56.0937 31.9095 56.0436 31.7963 56.0181 31.7397C56.9217 31.4463 57.1439 30.4455 57.6368 29.7507C57.8171 29.5258 57.8126 29.2302 57.7542 28.9636C56.8566 24.6027 55.9404 20.2456 55.0286 15.8877C54.8782 15.1535 53.9268 15.5407 53.4077 15.5578Z" fill="#45111A"/>
<path opacity="0.95" d="M58.0429 15.2399C60.147 24.0874 62.2982 32.929 64.2983 41.8056C64.305 42.1623 64.4367 42.7588 64.0313 42.9077C64.0746 42.7499 64.1278 42.5957 64.1764 42.4401C64.2272 41.679 63.9295 40.9567 63.7942 40.2194C61.8449 32.0421 59.9151 23.861 58.0115 15.6718C58.0197 15.5273 58.0332 15.3836 58.0429 15.2399Z" fill="#2C141B"/>
<path d="M53.4077 15.5579C53.9268 15.5408 54.8782 15.1535 55.0286 15.8878C55.9404 20.2457 56.8566 24.6028 57.7542 28.9636C57.8126 29.2302 57.817 29.5259 57.6368 29.7508C57.1439 30.4456 56.9217 31.4464 56.0181 31.7398C50.4628 32.5932 44.912 33.498 39.3597 34.3775C38.9476 34.4184 38.8511 33.9247 38.7845 33.6209C37.7231 28.6032 36.5129 23.5908 35.4844 18.5828C41.398 17.3049 47.4477 16.6608 53.4077 15.5579ZM46.7042 17.7562C46.1589 17.7458 46.218 18.6528 46.7468 18.5664C47.2921 18.6357 47.2226 17.6281 46.7042 17.7562ZM43.8686 18.2804C43.4131 18.407 43.6711 19.186 44.1124 19.0423C44.7108 19.005 44.4363 17.9625 43.8686 18.2804ZM52.1623 18.4942C47.7372 19.3059 43.3046 20.0118 38.8728 20.7535C38.4539 20.7416 38.1727 21.1624 38.2662 21.5496C38.8668 24.5827 39.5108 27.6083 40.1391 30.6362C40.1691 30.8782 40.3553 31.089 40.6164 31.0674C45.013 30.3607 49.4142 29.7009 53.8041 28.919C54.1901 28.8378 54.9418 28.8311 54.8618 28.2651C54.2611 25.1293 53.6276 21.9979 53.012 18.8643C52.9521 18.4517 52.4981 18.3773 52.1623 18.4942ZM54.6217 29.6703C53.8123 29.8394 53.8235 31.0748 54.7181 31.0905C55.6464 31.1068 55.5499 29.5676 54.6217 29.6703ZM41.6202 31.4762C41.22 31.6512 40.3613 31.4308 40.3284 31.9364C41.0225 31.7689 41.7967 31.815 42.4265 31.4568C42.158 31.4412 41.8872 31.4397 41.6202 31.4762ZM42.14 31.9967C41.5992 32.1658 40.7256 32.06 40.4114 32.454C41.0352 32.3006 41.6994 32.2715 42.3031 32.0675C42.5551 31.9394 42.2769 31.9833 42.14 31.9967ZM42.2933 32.5195C41.7084 32.687 41.0285 32.6215 40.5124 32.9581C41.1347 32.9 41.7548 32.7809 42.3637 32.6431C42.5462 32.5307 42.499 32.448 42.2933 32.5195ZM42.2148 33.0155C41.6748 33.1562 41.0689 33.119 40.5857 33.4213C41.2394 33.4206 41.8879 33.2761 42.5357 33.1949C42.9411 32.9276 42.4699 32.9708 42.2148 33.0155ZM28.8169 36.3911C29.5073 36.8848 29.2627 38.0957 29.6135 38.8634C28.5895 39.3236 27.4024 39.3125 26.3119 39.5746C26.1047 38.7026 25.9454 37.8194 25.795 36.9362C26.7981 36.7307 27.8116 36.5825 28.8169 36.3911ZM25.5384 36.9585C25.8788 37.6712 25.9513 38.7502 26.1204 39.6126C24.97 39.8047 23.8241 40.0296 22.6714 40.2076C22.4231 39.3572 22.2989 38.4725 22.189 37.5952C23.2885 37.3033 24.4269 37.1983 25.5384 36.9585Z" fill="#F4F4F4"/>
<path d="M46.7042 17.7561C47.2225 17.6281 47.2921 18.6356 46.7468 18.5664C46.218 18.6527 46.1589 17.7457 46.7042 17.7561Z" fill="#A20320"/>
<path d="M43.8686 18.2805C44.4363 17.9625 44.7108 19.005 44.1124 19.0423C43.6711 19.186 43.4131 18.4071 43.8686 18.2805Z" fill="#A70322"/>
<path d="M52.1624 18.4942C52.4982 18.3773 52.9522 18.4518 53.0121 18.8643C53.6277 21.9979 54.2612 25.1293 54.8618 28.2652C54.9419 28.8311 54.1901 28.8378 53.8042 28.919C49.4143 29.7009 45.0131 30.3607 40.6164 31.0674C40.3554 31.089 40.1691 30.8782 40.1392 30.6362C39.5109 27.6083 38.8669 24.5827 38.2663 21.5496C38.1728 21.1624 38.454 20.7416 38.8729 20.7536C43.3047 20.0119 47.7373 19.3059 52.1624 18.4942ZM25.0045 21.0492C25.273 21.0626 25.7622 20.9271 25.816 21.2942C26.1384 22.9221 26.4735 24.5477 26.8161 26.1711C26.8438 26.3454 26.8774 26.6261 26.6545 26.6835C20.7282 27.7774 14.7563 28.5608 8.82777 29.6465C8.49866 29.7716 8.13738 29.5862 8.05435 29.2466C7.82248 27.5793 7.43951 25.935 7.17173 24.2737C7.10292 24.0287 7.31834 23.8529 7.53974 23.8202C13.3493 22.8126 19.1851 21.9957 25.0045 21.0492ZM42.1401 31.9968C42.277 31.9833 42.5552 31.9394 42.3031 32.0675C41.6995 32.2715 41.0353 32.3006 40.4115 32.454C40.7256 32.06 41.5993 32.1658 42.1401 31.9968ZM42.2934 32.5195C42.4991 32.448 42.5462 32.5307 42.3637 32.6431C41.7549 32.7809 41.1348 32.9 40.5125 32.9581C41.0286 32.6215 41.7085 32.6871 42.2934 32.5195Z" fill="#262626"/>
<path d="M35.4081 19.8405C35.272 19.4265 35.2294 18.9626 35.4844 18.5828C36.5129 23.5907 37.7232 28.6032 38.7846 33.6209C38.8511 33.9247 38.9476 34.4184 39.3598 34.3774C44.9121 33.498 50.4629 32.5932 56.0182 31.7398C56.0436 31.7964 56.0937 31.9096 56.1184 31.9654C54.2709 32.3921 52.3762 32.6051 50.5115 32.9544C46.7162 33.3915 42.9778 34.268 39.181 34.6761C38.9207 34.6835 38.6439 34.5145 38.599 34.2456C37.5369 29.4439 36.4748 24.6415 35.4081 19.8405Z" fill="#5C5C5C"/>
<path d="M26.5744 28.1273C26.8235 28.1132 27.2282 28.07 27.2648 28.4058C27.6014 30.0665 27.9716 31.7212 28.315 33.3803C28.4189 33.8137 28.0599 34.1406 27.6433 34.1391C21.8845 35.1065 16.1265 36.0731 10.382 37.1402C10.0417 37.2363 9.50013 37.2318 9.42832 36.7895C9.10145 35.2174 8.806 33.6387 8.4881 32.0652C8.36169 31.611 8.69006 31.0495 9.19046 31.042C14.9799 30.0292 20.7828 29.1349 26.5744 28.1273ZM26.8833 28.2599C25.9356 28.4438 24.9692 28.5481 24.032 28.773C24.0649 29.642 24.3207 30.5498 24.5145 31.4173C25.5452 31.22 26.5774 31.0212 27.6171 30.8782C27.5049 29.9838 27.2805 29.1036 27.0733 28.2264C27.0254 28.2353 26.9305 28.2517 26.8833 28.2599ZM22.9212 28.8661C22.0566 29.015 21.1859 29.1356 20.3302 29.3322C20.4746 30.211 20.6631 31.0822 20.8015 31.9624C21.9706 31.7763 23.1426 31.6028 24.3132 31.4285C24.1801 30.552 23.9789 29.6882 23.8353 28.8147C23.5301 28.8124 23.2242 28.8236 22.9212 28.8661ZM19.9203 29.3866C18.7161 29.5772 17.5148 29.788 16.3165 30.0129C16.4631 30.902 16.6344 31.7867 16.7907 32.6744C18.0556 32.4792 19.316 32.2514 20.5733 32.0161C20.4551 31.1269 20.2315 30.2549 20.1529 29.3605C20.0752 29.368 19.9974 29.3769 19.9203 29.3866ZM15.662 30.1179C14.6036 30.3025 13.543 30.4723 12.4891 30.6831C12.6125 31.5789 12.7778 32.4696 12.9446 33.358C14.1586 33.1629 15.3703 32.9484 16.5768 32.7131C16.4145 31.8306 16.2515 30.9489 16.0839 30.068C15.9425 30.0821 15.8019 30.0978 15.662 30.1179ZM11.7029 30.727C10.7493 30.9348 9.74622 30.981 8.82395 31.2945C8.7686 32.1821 9.13287 33.0571 9.24656 33.9396C10.4149 33.7035 11.6087 33.6573 12.7733 33.3967C12.6544 32.5098 12.4696 31.6325 12.3305 30.7479C12.1218 30.7263 11.9116 30.7002 11.7029 30.727ZM27.2543 31.0763C26.3448 31.2483 25.4248 31.3697 24.5212 31.573C24.6693 32.4428 24.86 33.3051 25.0134 34.1741C26.0852 34.0111 27.1616 33.8428 28.217 33.5948C28.0704 32.7302 27.8804 31.8731 27.6807 31.0189C27.5386 31.0361 27.3957 31.0539 27.2543 31.0763ZM24.2669 31.5946C23.1397 31.8083 22.0065 31.996 20.8763 32.1955C21.0161 33.0824 21.1403 33.979 21.3894 34.8429C22.5173 34.6128 23.6722 34.4839 24.786 34.2077C24.7568 33.3714 24.5728 32.2908 24.2669 31.5946ZM20.4492 32.2767C19.2531 32.5351 18.0279 32.585 16.8319 32.8419C16.9703 33.7303 17.1632 34.6105 17.2208 35.5094C18.5171 35.2748 19.8201 35.0655 21.1089 34.793C20.8411 34.0148 20.9697 32.7175 20.4492 32.2767ZM16.1856 32.9506C15.1197 33.1346 14.0569 33.3327 12.9902 33.5099C13.092 34.4042 13.2775 35.2867 13.4241 36.1744C14.641 35.983 15.8543 35.7648 17.0608 35.519C16.9448 34.6403 16.7436 33.7765 16.6052 32.9015C16.4646 32.9156 16.3248 32.9313 16.1856 32.9506ZM12.4435 33.6112C11.4 33.7944 10.3551 33.9716 9.31388 34.1689C9.49714 35.0283 9.52706 35.9673 9.91077 36.7574C11.0141 36.6904 12.1128 36.4112 13.2034 36.2079C13.0029 35.3321 13.0374 34.4229 12.8017 33.5523C12.6821 33.571 12.5624 33.5903 12.4435 33.6112Z" fill="#073650"/>
<path d="M54.6216 29.6703C55.5499 29.5676 55.6464 31.1068 54.7181 31.0904C53.8235 31.0748 53.8123 29.8394 54.6216 29.6703ZM54.6314 29.8893C53.8991 29.9071 54.2035 31.1947 54.8737 30.8827C55.5245 30.8097 55.2462 29.6636 54.6314 29.8893Z" fill="#5D5F60"/>
<path d="M54.6314 29.8892C55.2463 29.6636 55.5245 30.8097 54.8738 30.8826C54.2036 31.1947 53.8992 29.9071 54.6314 29.8892Z" fill="#FF002F"/>
<path d="M41.6201 31.4761C41.8872 31.4396 42.1579 31.4411 42.4265 31.4567C41.7967 31.8149 41.0225 31.7688 40.3284 31.9363C40.3613 31.4307 41.22 31.6511 41.6201 31.4761Z" fill="#626162"/>
<path d="M42.2148 33.0154C42.4699 32.9707 42.9411 32.9275 42.5357 33.1949C41.8879 33.276 41.2394 33.4205 40.5857 33.4212C41.0689 33.1189 41.6748 33.1561 42.2148 33.0154Z" fill="#666666"/>
<path d="M58.5995 33.4727C59.1919 33.4384 59.7925 33.6916 60.1164 34.201C60.7642 35.2279 59.5479 36.7753 58.4058 36.2116C57.0691 35.837 57.2546 33.7162 58.5995 33.4727ZM42.8185 36.2995C43.8627 36.4536 42.8798 38.185 43.832 38.5402C44.5329 38.4762 45.2016 38.2051 45.9024 38.1448C46.1605 38.6683 46.2495 39.2983 46.3318 39.8784C45.6683 40.3193 44.5516 39.8955 44.0205 40.5568C43.9622 41.3075 44.4955 41.9896 44.5875 42.7373C44.0444 42.8996 43.2329 43.3531 42.7856 42.8251C42.6195 42.2234 42.5238 41.5934 42.4393 40.9731C41.6554 40.4548 40.7039 41.1987 39.9133 41.1317C39.5917 40.5687 39.4735 39.8993 39.4219 39.2596C40.1519 39.022 40.9358 39.232 41.6628 39.0176C42.2298 38.2937 41.2604 37.4031 41.4317 36.6204C41.8461 36.3844 42.3577 36.3978 42.8185 36.2995Z" fill="#00352F"/>
<path d="M55.0795 33.6953C55.5709 33.3967 55.7332 34.3015 55.2426 34.3581C54.3861 34.5197 53.5319 34.7274 52.6673 34.8294C52.2589 34.9084 52.125 34.2642 52.5064 34.1726C53.3636 34.0118 54.2201 33.842 55.0795 33.6953ZM55.084 33.9224C54.2388 34.2426 53.0293 33.9686 52.4152 34.6127C53.2223 34.5904 53.9987 34.3305 54.7953 34.2218C55.1236 34.2114 55.7482 33.8658 55.084 33.9224Z" fill="#580311"/>
<path d="M55.0839 33.9224C55.7481 33.8658 55.1235 34.2113 54.7951 34.2218C53.9985 34.3305 53.2221 34.5904 52.415 34.6127C53.0291 33.9686 54.2386 34.2426 55.0839 33.9224Z" fill="#FC012F"/>
<path d="M49.9812 34.8116C50.1502 34.7424 50.0687 34.9754 50.1061 35.0685C49.1532 35.3247 48.1673 35.5742 47.1785 35.595C47.7567 34.8585 49.0903 35.079 49.9812 34.8116Z" fill="#0E6B9E"/>
<path d="M55.1571 36.0082C55.4556 35.9405 55.6396 36.2815 55.6748 36.531C55.8468 37.6927 56.1355 38.8365 56.3001 39.9997C56.3741 40.3073 56.0166 40.3743 55.7929 40.4212C53.8579 40.7496 51.9281 41.1048 49.9931 41.4295C49.634 41.4831 49.1082 41.4392 49.0349 40.9991C48.8292 39.8947 48.6631 38.7822 48.4679 37.6756C48.4006 37.4306 48.4604 37.097 48.7708 37.0851C50.8951 36.703 53.0329 36.3918 55.1571 36.0082ZM55.1571 36.2272C52.9633 36.6189 50.7134 36.7552 48.5539 37.3174C48.7544 38.5416 48.9332 39.7719 49.177 40.9879C49.2353 41.3997 49.7268 41.2724 50.0125 41.2247C51.869 40.8397 53.7502 40.629 55.6187 40.3214C55.8281 40.2753 56.229 40.2432 56.149 39.9357C55.9657 38.7971 55.7129 37.6696 55.5311 36.531C55.5177 36.3359 55.3681 36.1572 55.1571 36.2272Z" fill="#1F221E"/>
<path d="M42.5141 36.2272C43.8231 35.8258 43.3144 37.5207 43.5912 38.2274C44.4035 38.5953 45.3527 37.6622 46.1097 38.0896C46.275 38.8179 46.904 39.8389 46.1306 40.4123C45.4843 40.6424 44.7737 40.4912 44.1118 40.6714C44.1858 41.3603 44.5389 41.9709 44.7678 42.6069C44.5538 43.496 43.4842 43.5228 42.743 43.534C42.0324 42.9472 42.636 41.5941 41.7092 41.2002C40.9687 41.1138 40.1557 41.7698 39.469 41.4243C39.3179 40.7444 38.7203 39.7957 39.3157 39.2148C39.9911 38.9326 40.7511 38.9952 41.4624 38.8686C41.3891 38.2192 41.045 37.6168 41.0293 36.9652C41.2178 36.3084 41.9688 36.3359 42.5141 36.2272ZM42.8185 36.2994C42.3578 36.3977 41.8461 36.3843 41.4317 36.6204C41.2605 37.403 42.2298 38.2937 41.6629 39.0175C40.9358 39.232 40.1519 39.022 39.4219 39.2595C39.4735 39.8992 39.5917 40.5687 39.9133 41.1317C40.704 41.1987 41.6554 40.4547 42.4393 40.973C42.5238 41.5934 42.6195 42.2234 42.7856 42.8251C43.2329 43.353 44.0445 42.8995 44.5875 42.7372C44.4955 41.9895 43.9622 41.3074 44.0205 40.5568C44.5516 39.8955 45.6683 40.3192 46.3318 39.8784C46.2495 39.2982 46.1605 38.6682 45.9025 38.1447C45.2016 38.2051 44.5329 38.4761 43.832 38.5402C42.8798 38.1849 43.8627 36.4536 42.8185 36.2994Z" fill="#020608"/>
<path d="M55.1572 36.2273C55.3681 36.1573 55.5177 36.336 55.5312 36.5311C55.7129 37.6697 55.9657 38.7972 56.149 39.9358C56.229 40.2434 55.8281 40.2754 55.6187 40.3215C53.7502 40.6291 51.869 40.8398 50.0125 41.2248C49.7268 41.2725 49.2354 41.3998 49.177 40.988C48.9332 39.772 48.7544 38.5418 48.554 37.3175C50.7134 36.7553 52.9633 36.619 55.1572 36.2273Z" fill="#59BF68"/>
<path d="M28.5281 36.298C29.5865 35.9591 29.2768 37.4827 29.576 38.0978C29.7443 38.561 29.7974 39.2506 29.2424 39.4628C27.0747 39.8717 24.8988 40.2492 22.7244 40.6231C22.2472 40.67 22.1784 40.1256 22.135 39.7771C22.1418 38.9997 21.3818 37.8149 22.3647 37.3815C24.4171 37.0143 26.4749 36.6681 28.5281 36.298ZM28.8168 36.391C27.8115 36.5824 26.798 36.7306 25.7949 36.9361C25.9453 37.8193 26.1046 38.7025 26.3118 39.5745C27.4024 39.3124 28.5894 39.3236 29.6134 38.8634C29.2626 38.0956 29.5072 36.8848 28.8168 36.391ZM25.5384 36.9585C24.4269 37.1983 23.2884 37.3033 22.1889 37.5952C22.2988 38.4724 22.423 39.3571 22.6713 40.2075C23.824 40.0295 24.9699 39.8047 26.1203 39.6125C25.9513 38.7502 25.8787 37.6711 25.5384 36.9585Z" fill="#444445"/>
<path d="M16.3398 36.674C16.7998 36.4201 17.262 37.173 16.704 37.3338C15.6628 37.5528 14.6164 37.8313 13.549 37.8894C13.2588 37.5714 13.5976 37.1633 13.9544 37.1246C14.751 36.9801 15.5447 36.8215 16.3398 36.674Z" fill="#002C26"/>
<path d="M12.7374 37.354C13.1555 37.2393 13.5063 37.7971 13.0613 38.0212C12.2183 38.2819 11.3245 38.3846 10.4583 38.5596C10.0619 38.6899 9.59436 38.1024 10.0858 37.8887C10.9482 37.6362 11.857 37.5409 12.7374 37.354Z" fill="#002B26"/>
<path d="M11.8452 40.2433C13.0323 39.9104 13.9321 41.6061 13.0637 42.4267C12.5132 43.1982 11.1668 42.9011 10.8863 42.0328C10.5632 41.3082 11.0426 40.3535 11.8452 40.2433ZM10.9364 41.478C10.8519 42.4073 12.0764 43.0411 12.7929 42.4416C13.6494 41.9389 13.2417 40.4071 12.2215 40.4146C11.5894 40.1644 10.9993 40.9046 10.9364 41.478Z" fill="#40060F"/>
<path d="M10.9363 41.4779C10.9991 40.9045 11.5893 40.1643 12.2213 40.4145C11.8563 40.5702 12.1877 40.565 12.4136 40.5799C11.9984 40.7601 11.5721 41.3461 12.0493 41.7036C12.3694 42.0573 12.8167 41.8376 13.0591 41.5197C13.2618 41.6626 12.6207 42.5071 12.7928 42.4416C12.0762 43.041 10.8518 42.4073 10.9363 41.4779Z" fill="#B09A10"/>
<path d="M12.4135 40.5799C12.1876 40.565 11.8562 40.5702 12.2213 40.4146C13.2415 40.4071 13.6492 41.9389 12.7927 42.4416C12.6207 42.5071 13.2617 41.6627 13.059 41.5197C12.8167 41.8377 12.3694 42.0573 12.0492 41.7036C11.572 41.3462 11.9984 40.7601 12.4135 40.5799ZM12.6498 40.8383C12.2624 40.8696 12.2452 41.5785 12.6648 41.4489C13.068 41.4147 13.0852 40.8793 12.6498 40.8383Z" fill="#FFF420"/>
<path d="M12.6499 40.8383C13.0852 40.8792 13.068 41.4146 12.6649 41.4489C12.2453 41.5785 12.2625 40.8695 12.6499 40.8383Z" fill="#FFFFCA"/>
<path d="M29.3488 41.7989C29.6674 41.6872 30.0766 41.7587 30.1589 42.1348C30.3122 42.881 30.4805 43.6294 30.574 44.386C30.6458 44.7039 30.2875 44.7829 30.0519 44.8164C27.7369 45.2282 25.4338 45.7309 23.1151 46.1114C22.5287 45.8426 22.6745 45.0078 22.489 44.4776C22.4419 44.0136 22.0402 43.1766 22.7269 43.0366C24.929 42.6002 27.1437 42.2227 29.3488 41.7989ZM17.5291 44.024C18.3414 43.9176 19.2809 43.4276 20.0446 43.7872C20.1216 44.7024 20.9474 46.0265 20.0813 46.7146C17.4311 47.0393 14.8281 47.7139 12.1907 48.1324C11.7143 48.195 11.5871 47.6238 11.54 47.2664C11.4622 46.5537 11.1757 45.8507 11.2834 45.1284C12.0172 44.9199 12.7742 44.7903 13.5289 44.6868C14.8842 44.6578 16.2104 44.3033 17.5291 44.024Z" fill="#00322D"/>
<path opacity="0.36" d="M7.33838 45.1813C7.7565 47.1487 8.27261 49.1229 8.4813 51.1216C7.99735 49.1869 7.49321 47.1629 7.33838 45.1813Z" fill="#212121"/>
<path d="M75.4287 10.5516C76.9745 10.0407 78.4244 9.568 79.7785 9.13366C81.1454 8.69933 82.5825 8.29054 84.0899 7.9073C85.5973 7.51128 87.0409 7.19831 88.4205 6.96836C89.4808 6.78952 90.5667 6.70009 91.6781 6.70009C93.5304 6.70009 94.744 6.75119 95.3188 6.85339C96.1875 7.01946 97.0051 7.28773 97.7716 7.65819C98.5508 8.02866 99.2406 8.52687 99.8411 9.15283C100.454 9.76601 100.952 10.4942 101.336 11.3373C101.489 11.6822 101.566 12.0463 101.566 12.4295C101.566 13.8603 100.78 15.6232 99.2087 17.7182C97.6502 19.8133 96.0789 21.64 94.4949 23.1985C92.9236 24.757 91.7483 25.8748 90.9691 26.5519L94.4182 38.6431L89.3978 42.2647L80.6024 17.1434C80.5769 17.1434 80.4555 17.2647 80.2384 17.5074C80.0212 17.7502 79.7338 18.0695 79.3761 18.4655C79.0312 18.8488 78.814 19.0851 78.7246 19.1745C78.6863 19.1745 78.5585 18.8999 78.3413 18.3506C78.1369 17.8013 77.8559 17.0412 77.4982 16.0703C77.1533 15.0866 76.7637 14.0008 76.3293 12.8128C75.8822 11.6119 75.582 10.8582 75.4287 10.5516ZM87.8265 15.8787L89.3978 21.5315C90.1898 20.7266 91.1735 19.628 92.3487 18.2356C93.524 16.8432 94.1116 15.834 94.1116 15.208C94.1116 14.9653 94.0094 14.8248 93.805 14.7864C93.2302 14.6587 92.6617 14.5948 92.0996 14.5948C90.4134 14.5948 88.989 15.0228 87.8265 15.8787ZM120.666 20.2476C121.573 20.733 122.307 21.3909 122.869 22.2213C123.444 23.0389 123.859 23.965 124.115 24.9998C124.383 26.0217 124.517 27.0884 124.517 28.1998C124.517 29.1196 124.44 30.0074 124.287 30.8633C124.147 31.7192 123.949 32.5049 123.693 33.2202C123.438 33.9356 123.137 34.5424 122.792 35.0406C121.988 36.2414 121.125 37.2762 120.206 38.1449C119.286 39.0135 118.347 39.7161 117.389 40.2527C116.431 40.7764 115.479 41.1597 114.534 41.4024C113.601 41.6579 112.675 41.7856 111.755 41.7856C110.669 41.7856 109.635 41.6132 108.651 41.2683C107.68 40.9361 106.85 40.4954 106.16 39.9461C105.023 39.0008 104.135 37.7297 103.496 36.1329C102.858 34.5233 102.538 32.8242 102.538 31.0358C102.538 27.9571 103.426 25.4724 105.202 23.5818C106.722 21.9594 108.293 20.7394 109.916 19.9218C111.538 19.0915 113.199 18.6763 114.898 18.6763C115.894 18.6763 116.852 18.8041 117.772 19.0596C118.692 19.3023 119.656 19.6983 120.666 20.2476ZM119.535 23.4668C119.318 24.4377 118.845 25.2936 118.117 26.0345C117.402 26.7754 116.699 27.1459 116.009 27.1459C115.664 27.1459 115.358 27.0565 115.089 26.8776C114.706 26.571 114.515 26.0345 114.515 25.268C114.515 24.6804 114.706 24.0992 115.089 23.5243C115.485 22.9494 116.105 22.4959 116.948 22.1638C116.105 22.1638 115.287 22.3235 114.495 22.6428C113.716 22.9622 113.045 23.3774 112.483 23.8884C111.921 24.3866 111.468 24.9551 111.123 25.5938C110.791 26.2197 110.625 26.8521 110.625 27.4908C110.625 28.6789 111.174 29.6242 112.273 30.3268C113.295 30.9783 114.265 31.304 115.185 31.304C116.092 31.304 116.897 31.0038 117.6 30.4034C118.302 29.7903 118.839 29.011 119.209 28.0657C119.58 27.1076 119.765 26.1623 119.765 25.2297C119.765 24.591 119.688 24.0033 119.535 23.4668ZM126.045 8.98037L135.78 4.89887L137.198 27.0309L145.207 22.6428L153.524 23.8884L142.678 32.2047L152.891 39.9078L153.351 47.5917L138.29 36.7652L138.769 46.1737L129.648 46.3462L127.923 13.0619L125.106 13.6942L126.045 8.98037ZM171.57 30.4034L176.188 35.9796C175.817 37.0526 174.936 38.0363 173.543 38.9305C172.164 39.8247 170.516 40.5273 168.6 41.0383C166.696 41.5621 164.793 41.824 162.889 41.824C161.203 41.824 159.696 41.6004 158.367 41.1533C157.051 40.7062 156.036 40.0291 155.32 39.1221C154.081 37.5636 153.462 35.5708 153.462 33.1436C153.462 31.2274 153.806 29.3431 154.496 27.4908C155.199 25.6257 155.94 24.3227 156.719 23.5818C157.652 22.7003 158.661 21.9658 159.747 21.3782C160.845 20.7905 161.982 20.3498 163.158 20.056C164.333 19.7622 165.54 19.6153 166.779 19.6153C168.402 19.6153 169.941 19.8771 171.397 20.4009C172.866 20.9119 174.15 21.6592 175.249 22.6428L164.729 35.1939C165.661 35.1939 166.543 35.0023 167.373 34.6191C168.216 34.2231 168.989 33.6674 169.692 32.952C170.394 32.2238 171.02 31.3743 171.57 30.4034ZM166.262 25.9387C165.636 25.6193 164.997 25.4597 164.346 25.4597C163.656 25.4597 162.985 25.6002 162.334 25.8812C161.695 26.1623 161.241 26.4944 160.973 26.8776C160.181 27.8996 159.785 29.0238 159.785 30.2501C159.785 30.6973 159.83 31.1252 159.919 31.534C160.009 31.9428 160.162 32.5049 160.379 33.2202L166.262 25.9387ZM190.957 22.2404C190.254 22.3299 189.558 22.5534 188.868 22.9111C188.191 23.2688 187.61 23.6904 187.125 24.1758C186.639 24.6612 186.256 25.1978 185.975 25.7854C185.707 26.3603 185.572 26.9287 185.572 27.4908C185.572 28.6533 186.122 29.5986 187.22 30.3268C188.191 30.9783 189.175 31.304 190.171 31.304C190.363 31.304 190.625 31.2785 190.957 31.2274V27.1459C190.612 27.1459 190.305 27.0565 190.037 26.8776C189.654 26.571 189.462 25.9834 189.462 25.1147C189.462 23.8628 189.961 22.9047 190.957 22.2404ZM190.784 3.63418L198.794 0.0317333L199.273 25.977C199.375 26.6413 199.427 27.395 199.427 28.2381C199.427 28.9791 199.401 29.5284 199.35 29.8861L199.58 41.6323L190.957 42.0922V40.9234C189.552 41.4982 188.134 41.7856 186.703 41.7856C185.604 41.7856 184.57 41.6196 183.599 41.2874C182.641 40.9553 181.81 40.5082 181.108 39.9461C179.971 39.0008 179.083 37.7297 178.444 36.1329C177.805 34.5233 177.486 32.8242 177.486 31.0358C177.486 27.9571 178.374 25.4724 180.15 23.5818C181.683 21.9722 183.26 20.7522 184.883 19.9218C186.518 19.0915 188.185 18.6763 189.884 18.6763C190.357 18.6763 190.714 18.6891 190.957 18.7146L190.784 3.63418ZM220.232 30.4034L224.85 35.9796C224.479 37.0526 223.598 38.0363 222.205 38.9305C220.826 39.8247 219.178 40.5273 217.262 41.0383C215.358 41.5621 213.455 41.824 211.551 41.824C209.865 41.824 208.358 41.6004 207.029 41.1533C205.713 40.7062 204.698 40.0291 203.982 39.1221C202.743 37.5636 202.124 35.5708 202.124 33.1436C202.124 31.2274 202.469 29.3431 203.158 27.4908C203.861 25.6257 204.602 24.3227 205.381 23.5818C206.314 22.7003 207.323 21.9658 208.409 21.3782C209.507 20.7905 210.644 20.3498 211.82 20.056C212.995 19.7622 214.202 19.6153 215.441 19.6153C217.064 19.6153 218.603 19.8771 220.059 20.4009C221.528 20.9119 222.812 21.6592 223.911 22.6428L213.391 35.1939C214.324 35.1939 215.205 35.0023 216.035 34.6191C216.878 34.2231 217.651 33.6674 218.354 32.952C219.057 32.2238 219.682 31.3743 220.232 30.4034ZM214.924 25.9387C214.298 25.6193 213.659 25.4597 213.008 25.4597C212.318 25.4597 211.647 25.6002 210.996 25.8812C210.357 26.1623 209.904 26.4944 209.635 26.8776C208.843 27.8996 208.447 29.0238 208.447 30.2501C208.447 30.6973 208.492 31.1252 208.581 31.534C208.671 31.9428 208.824 32.5049 209.041 33.2202L214.924 25.9387ZM240.635 37.3592L235.997 43.3569L226.11 43.6635L235.691 30.9975L224.864 16.9901L235.365 17.45L240.635 24.4057L245.885 17.45L256.405 16.9901L245.578 30.9975L255.159 43.6635L245.253 43.3569L240.635 37.3592Z" fill="#E3E3E3"/>
</svg>
